<?xml version="1.0" encoding="UTF-8" standalone="no"?>
<!-- Created with Inkscape (http://www.inkscape.org/) -->

<svg
   xmlns:dc="http://purl.org/dc/elements/1.1/"
   xmlns:cc="http://creativecommons.org/ns#"
   xmlns:rdf="http://www.w3.org/1999/02/22-rdf-syntax-ns#"
   xmlns:svg="http://www.w3.org/2000/svg"
   xmlns="http://www.w3.org/2000/svg"
   xmlns:sodipodi="http://sodipodi.sourceforge.net/DTD/sodipodi-0.dtd"
   xmlns:inkscape="http://www.inkscape.org/namespaces/inkscape"
   inkscape:export-ydpi="90"
   inkscape:export-xdpi="90"
   inkscape:export-filename="/home/markus/devel/psyhp/sites/marion/static/gfx/footsteps.png"
   sodipodi:docname="footsteps_banner.svg"
   width="1000"
   height="140"
   viewBox="0 0 1000 140"
   id="svg15555"
   version="1.1"
   inkscape:version="0.91 r13725">
  <sodipodi:namedview
     id="base"
     pagecolor="#ffffff"
     bordercolor="#666666"
     borderopacity="1.0"
     inkscape:pageopacity="0.0"
     inkscape:pageshadow="2"
     inkscape:zoom="1"
     inkscape:cx="516.19143"
     inkscape:cy="89.069149"
     inkscape:document-units="px"
     inkscape:current-layer="layer1"
     showgrid="false"
     units="px"
     inkscape:window-width="1920"
     inkscape:window-height="1016"
     inkscape:window-x="0"
     inkscape:window-y="27"
     inkscape:window-maximized="1" />
  <defs
     id="defs15557">
    <filter
       id="filter17229"
       inkscape:label="Drop Shadow"
       style="color-interpolation-filters:sRGB;">
      <feFlood
         id="feFlood17231"
         result="flood"
         flood-color="rgb(0,0,0)"
         flood-opacity="0.847059" />
      <feComposite
         id="feComposite17233"
         result="composite1"
         operator="in"
         in2="SourceGraphic"
         in="flood" />
      <feGaussianBlur
         id="feGaussianBlur17235"
         result="blur"
         stdDeviation="4.2"
         in="composite1" />
      <feOffset
         id="feOffset17237"
         result="offset"
         dy="2.4"
         dx="2.4" />
      <feComposite
         id="feComposite17239"
         result="composite2"
         operator="over"
         in2="offset"
         in="SourceGraphic" />
    </filter>
    <filter
       id="filter17241"
       inkscape:label="Drop Shadow"
       style="color-interpolation-filters:sRGB;">
      <feFlood
         id="feFlood17243"
         result="flood"
         flood-color="rgb(0,0,0)"
         flood-opacity="0.847059" />
      <feComposite
         id="feComposite17245"
         result="composite1"
         operator="in"
         in2="SourceGraphic"
         in="flood" />
      <feGaussianBlur
         id="feGaussianBlur17247"
         result="blur"
         stdDeviation="4.2"
         in="composite1" />
      <feOffset
         id="feOffset17249"
         result="offset"
         dy="2.4"
         dx="2.4" />
      <feComposite
         id="feComposite17251"
         result="composite2"
         operator="over"
         in2="offset"
         in="SourceGraphic" />
    </filter>
    <filter
       id="filter17930"
       inkscape:label="Drop Shadow"
       style="color-interpolation-filters:sRGB;">
      <feFlood
         id="feFlood17932"
         result="flood"
         flood-color="rgb(0,0,0)"
         flood-opacity="0.847059" />
      <feComposite
         id="feComposite17934"
         result="composite1"
         operator="in"
         in2="SourceGraphic"
         in="flood" />
      <feGaussianBlur
         id="feGaussianBlur17936"
         result="blur"
         stdDeviation="4.2"
         in="composite1" />
      <feOffset
         id="feOffset17938"
         result="offset"
         dy="2.4"
         dx="2.4" />
      <feComposite
         id="feComposite17940"
         result="composite2"
         operator="over"
         in2="offset"
         in="SourceGraphic" />
    </filter>
  </defs>
  <metadata
     id="metadata15560">
    <rdf:RDF>
      <cc:Work
         rdf:about="">
        <dc:format>image/svg+xml</dc:format>
        <dc:type
           rdf:resource="http://purl.org/dc/dcmitype/StillImage" />
        <dc:title />
      </cc:Work>
    </rdf:RDF>
  </metadata>
  <g
     style="display:inline"
     transform="translate(0,-912.36216)"
     id="layer1"
     inkscape:groupmode="layer"
     inkscape:label="Ebene 1">
    <g
       style="fill:#004400;fill-opacity:1;stroke:#000000;stroke-opacity:1"
       id="g3972">
      <g
         style="fill:#004400;fill-opacity:1;stroke:none;stroke-opacity:1"
         id="g19088">
        <path
           id="path19090"
           d="M257.188098661 1040.06200883C257.788824098 1038.62017627 256.853412598 1038.03509394 256.012550796 1036.71900197C254.961786989 1035.0743782 252.717707746 1033.59023157 250.814886359 1034.02376312C247.264379577 1034.83276809 248.595048567 1039.44148692 246.221951404 1042.20415472C245.099661103 1043.51068188 242.518486277 1043.12873035 241.867425113 1044.72330934C241.197915033 1046.36307474 241.738075883 1048.79266869 243.311019186 1049.60645626C244.883453416 1050.41998634 247.069728477 1049.75235201 248.37368462 1048.55485378C249.438399048 1047.57706401 248.923715808 1046.36463105 249.71147913 1045.152359C251.708055036 1042.07986836 255.778856656 1043.44438991 257.188098661 1040.06200883C257.188098661 1040.06200883 257.188098661 1040.06200883 257.188098661 1040.06200883M286.308516262 1016.62613837C287.740068365 1016.00127335 288.512768414 1014.49000452 288.685850039 1012.93763116C288.902137176 1010.99774359 288.08921965 1008.4326418 286.336428476 1007.57389047C283.065820941 1005.97158705 279.988547112 1010.5678217 276.346616782 1010.55425209C274.624266924 1010.54783489 273.208875844 1008.37381388 271.558016202 1008.86488984C269.860375647 1009.36988209 268.207046601 1011.25193771 268.503767011 1012.9980333C268.800386679 1014.74356733 270.805824271 1016.05566481 272.55349039 1016.33952884C273.98050646 1016.57131065 274.952763342 1015.30088917 276.385879655 1015.11034507C280.018096514 1014.62741168 282.95024768 1018.09199901 286.308516262 1016.62613837C286.308516262 1016.62613837 286.308516262 1016.62613837 286.308516262 1016.62613837M330.644012537 1005.27644828C332.183389808 1005.01156464 333.661154395 1003.65793359 334.158870997 1002.17735122C334.780830752 1000.32717556 334.529220358 997.648117815 332.997879198 996.437843034C330.140468317 994.179615331 325.73277807 997.973744396 322.233401919 996.964504511C320.578469055 996.487212686 319.798316857 993.976128007 318.075997285 993.989143553C316.304871673 994.002528423 314.044230116 995.27854014 313.710222633 997.01793671C313.376317594 998.75677201 315.071788209 1000.63004146 316.642691291 1001.44692125C317.925375856 1002.1139247 319.29074674 1001.12338305 320.71331711 1001.38127489C324.318805879 1002.03489733 327.032799054 1005.89783118 330.644012537 1005.27644828C330.644012537 1005.27644828 330.644012537 1005.27644828 330.644012537 1005.27644828M378.6454163 1000.36747878C380.20044896 1000.21983151 381.524843408 999.040971346 382.160484436 997.614149509C382.954798276 995.831154416 382.95792783 993.140301344 381.548028721 991.790494938C378.917214656 989.271907363 374.123410616 992.632017774 370.744794331 991.271947164C369.146971478 990.628739681 368.603627091 988.055419373 366.89143148 987.867995246C365.130716658 987.675260502 362.736916442 988.679677047 362.202827671 990.368466226C361.668905942 992.056709844 363.13500874 994.114549755 364.600272036 995.108647694C365.796698976 995.920354531 367.394193853 995.109944277 368.78317723 995.511243327C372.303540299 996.528329724 374.997477384 1000.71383779 378.6454163 1000.36747878C378.6454163 1000.36747878 378.6454163 1000.36747878 378.6454163 1000.36747878M427.212645857 998.577355688C428.773300086 998.511782913 430.412274446 997.358515487 431.095508534 995.953833023C431.949295947 994.198503875 432.042836684 991.509230318 430.679063694 990.11279076C428.134315855 987.507187578 423.194482363 990.613573272 419.871142513 989.123550669C418.299461109 988.418885995 417.832606785 985.835687432 416.133039196 985.556029393C414.385310214 985.268447064 411.940740286 986.142062032 411.316188742 987.799527536C410.691833474 989.456457302 412.044611624 991.590502129 413.454024131 992.662313889C414.604847447 993.537476154 416.374283938 992.828757719 417.746661582 993.283600507C421.22493767 994.43639292 423.55151964 998.731176788 427.212645857 998.577355688C427.212645857 998.577355688 427.212645857 998.577355688 427.212645857 998.577355688M476.421363682 998.182192251C477.982641662 998.133621183 479.634081891 996.99827152 480.332575523 995.601111916C481.205431676 993.855183534 481.328257288 991.167084615 479.979772684 989.755872407C477.463551304 987.122704024 472.399841655 990.175072292 469.114427878 988.603126097C467.560682553 987.859717932 467.157993361 985.265722008 465.46586625 984.94402348C463.725788578 984.613209343 461.260298088 985.42597329 460.594852875 987.067462646C459.929617156 988.708421289 461.229097211 990.875355883 462.611522402 991.98177928C463.740309869 992.885202882 465.526782139 992.220552706 466.887475307 992.709274015C470.336137258 993.947931168 472.758774271 998.296129183 476.421363682 998.182192251C476.421363682 998.182192251 476.421363682 998.182192251 476.421363682 998.182192251M525.798588345 997.976740143C527.35983631 997.927257188 529.010611645 996.79094412 529.708288465 995.393377999C530.580123907 993.646941624 530.701379278 990.958773795 529.35207181 989.548350721C526.834315055 986.916654829 521.772393621 989.971977578 518.486065136 988.40195204C516.931887226 987.659452197 516.527683312 985.065694215 514.835370081 984.744984392C513.095101015 984.415186978 510.630087855 985.229390155 509.965602132 986.871266466C509.301325594 988.512611943 510.60206998 990.678785231 511.985139972 991.784399992C513.114453937 992.68716332 514.900536105 992.021470371 516.2615133 992.509396389C519.710895114 993.746037883 522.136069344 998.092816263 525.798588345 997.976740143C525.798588345 997.976740143 525.798588345 997.976740143 525.798588345 997.976740143M575.542022026 997.19018302C577.101411066 997.099564676 578.721647897 995.92014244 579.382238408 994.5046827C580.207729796 992.735885984 580.258084624 990.0454769 578.8720791 988.671121272C576.285847803 986.106725839 571.306259829 989.294390535 567.979714412 987.811547116C566.406517024 987.110277638 565.934087777 984.528095455 564.233922109 984.252107277C562.485578102 983.968298804 560.016609453 984.788301314 559.371551323 986.437904969C558.726696097 988.086975356 560.05291776 990.237641473 561.44894046 991.326852352C562.588830649 992.216221468 564.490866025 991.524290717 565.864221012 991.976169383C569.344974159 993.121449261 571.883863714 997.402758318 575.542022026 997.19018302C575.542022026 997.19018302 575.542022026 997.19018302 575.542022026 997.19018302M625.639631336 994.461124969C627.191533509 994.283615345 628.743420476 993.015601987 629.323982406 991.565478509C630.049467917 989.753365069 629.949587484 987.064336829 628.489035757 985.769477823C625.763709652 983.353419778 620.869451042 986.841603028 617.486097068 985.493366308C615.886033657 984.855755335 615.310418249 982.294589256 613.600545171 982.087011317C611.842218691 981.873551654 609.436749187 982.849706308 608.882805578 984.532091478C608.329035426 986.21393309 609.770802288 988.288902644 611.224258559 989.300191806C612.411044757 990.12593574 614.148951492 989.343064737 615.539330155 989.739499803C619.063229557 990.744258486 621.999036098 994.877537838 625.639631336 994.461124969C625.639631336 994.461124969 625.639631336 994.461124969 625.639631336 994.461124969M676.208482035 987.331189278C677.72811829 986.970003499 679.454682219 985.456272789 679.81926494 983.937398027C680.274857006 982.039371177 679.786864303 979.393112508 678.15429595 978.323263231C675.108007696 976.327062595 670.474090722 980.378715461 666.968591884 979.390972728C665.310763466 978.923847384 664.471014592 976.436805103 662.748858531 976.408813679C660.977901052 976.380029549 658.640653104 977.599179562 658.219070865 979.319480042C657.797619336 981.039225144 659.587374792 982.976364926 661.138398598 983.830418811C662.404851221 984.527775911 664.051520782 983.567826395 665.475644923 983.816982301C669.0850717 984.448463584 672.643578497 988.178486647 676.208482035 987.331189278C676.208482035 987.331189278 676.208482035 987.331189278 676.208482035 987.331189278M726.816609128 969.002341104C728.141977062 968.175865119 729.874949884 965.679025503 729.648269127 964.133649137C729.365002437 962.202505291 727.927584523 959.927933743 726.014303134 959.542320236C722.444249682 958.822862262 718.928318534 964.376943383 715.286478625 964.40530526C713.564171531 964.418718395 712.031360299 962.313975389 710.355745294 962.712568424C708.632647847 963.122457029 706.651628303 964.856415553 706.66192357 966.627572703C706.672210283 968.398159369 708.915895932 969.857760733 710.629893047 970.301890634C712.029417546 970.664533809 713.64908005 969.229581438 715.08619893 969.071969449C718.728560286 968.672502095 723.707436402 970.941159652 726.816609128 969.002341104C726.816609128 969.002341104 726.816609128 969.002341104 726.816609128 969.002341104M760.859355173 918.484561507C760.941252834 916.924893878 759.97871293 914.419122855 758.600476687 913.684418313C756.878195439 912.766312031 754.194571097 912.573244127 752.748755656 913.884188997C750.051018899 916.330365276 752.210929631 922.894544847 749.869797762 925.684358117C748.762624561 927.003722974 746.089320617 926.8347096 745.25817169 928.343266751C744.403470606 929.894572715 744.092075217 932.609376538 745.287838672 933.91597888C746.483213092 935.222163884 749.213246922 934.570640047 750.753534659 933.69740515C752.011220267 932.984384942 752.193723632 930.544536077 753.080732968 929.402876682C755.32884685 926.509352917 760.667226584 922.143372745 760.859355173 918.484561507C760.859355173 918.484561507 760.859355173 918.484561507 760.859355173 918.484561507"
           style="fill:#004400;fill-opacity:1;fill-rule:evenodd;stroke:none;stroke-width:0.95363015px;stroke-linecap:butt;stroke-linejoin:miter;stroke-opacity:1" />
        <path
           style="opacity:1;fill:#004400;fill-opacity:1;fill-rule:nonzero;stroke:none;stroke-width:0;stroke-miterlimit:4;stroke-dasharray:none;stroke-dashoffset:0;stroke-opacity:1"
           d="M254.920958159 1032.18058615C254.031959644 1033.33945632 252.92563765 1033.37684827 252.025013896 1032.77179467C251.124390465 1032.16674059 250.914455218 1030.94794083 251.8034534 1029.78907039C252.692451917 1028.63020022 253.976117067 1028.5599432 254.795135233 1029.27160729C255.614153019 1029.98327182 255.809956336 1031.02171572 254.920958154 1032.18058615C254.920958154 1032.18058615 254.920958159 1032.18058615 254.920958159 1032.18058615M290.974785666 1008.57184708C289.568366567 1008.9666313 288.38510006 1008.39733486 288.064767668 1007.36054882C287.74443583 1006.32376261 288.506347628 1005.18319015 289.912766618 1004.78840551C291.319185718 1004.39362129 292.569165559 1004.97602887 292.837031278 1006.02760081C293.104896437 1007.07917291 292.381204648 1008.17706244 290.974785657 1008.57184708C290.974785657 1008.57184708 290.974785666 1008.57184708 290.974785666 1008.57184708M337.53689294 998.324387342C336.081563539 998.450447077 334.825872147 997.676232691 334.732227326 996.595130864C334.638583083 995.514028987 335.742446685 994.535431058 337.197776055 994.4093709C338.653105458 994.283311166 339.782940859 995.106548939 339.851801467 996.189518241C339.920661499 997.272487579 338.992222302 998.198327184 337.53689293 998.324387344C337.53689293 998.324387344 337.53689294 998.324387342 337.53689294 998.324387342M385.888083999 994.098254702C384.427352529 994.085981159 383.250586826 993.196372339 383.259703868 992.111257505C383.268821492 991.026142675 384.460369296 990.156432854 385.921100775 990.168705972C387.381832246 990.180979516 388.558597944 991.070588337 388.549480902 992.15570317C388.540363281 993.240817998 387.348815468 994.110527819 385.888083989 994.098254702C385.888083989 994.098254702 385.888083999 994.098254702 385.888083999 994.098254702M434.939200057 992.5651123C433.479681338 992.503764778 432.333451337 991.575103959 432.379023337 990.490890009C432.424595917 989.406676085 433.64471318 988.577478901 435.104231923 988.638826C436.563750643 988.700173523 437.709980639 989.628834342 437.664408639 990.713048291C437.618836062 991.797262214 436.398718791 992.626459398 434.939200047 992.5651123C434.939200047 992.5651123 434.939200057 992.5651123 434.939200057 992.5651123M484.212952656 992.25445123C482.754186681 992.177210876 481.618137635 991.236119675 481.67551574 990.152464902C481.732894425 989.06881016 482.961972208 988.252949967 484.420738211 988.330189898C485.879504188 988.407430253 487.015553228 989.348521454 486.958175124 990.432176226C486.900796442 991.515830967 485.671718651 992.331691161 484.212952646 992.25445123C484.212952646 992.25445123 484.212952656 992.25445123 484.212952656 992.25445123M533.586706735 992.044454323C532.127897181 991.968066112 530.991299644 991.027639465 531.048044728 989.943952319C531.104790393 988.860265204 532.333390339 988.04368797 533.792199922 988.120075759C535.251009477 988.196463972 536.387607009 989.136890618 536.330861925 990.220577763C536.274116263 991.304264877 535.045516309 992.120842111 533.586706725 992.044454324C533.586706725 992.044454324 533.586706735 992.044454323 533.586706735 992.044454323M583.171004601 991.054717357C581.710699741 991.016809071 580.549717233 990.10667609 580.577877228 989.021878157C580.606037805 987.93708024 581.81267714 987.088408388 583.272982017 987.12631625C584.733286878 987.164224537 585.894269381 988.074357519 585.866109386 989.15915545C585.837948812 990.243953366 584.631309469 991.092625219 583.171004591 991.054717358C583.171004591 991.054717358 583.171004601 991.054717357 583.171004601 991.054717357M633.06419544 987.846778242C631.605077091 987.916700591 630.380120339 987.094696137 630.328177576 986.010779646C630.276235393 984.926863127 631.416976746 983.99149181 632.876095081 983.921569038C634.335213432 983.851646689 635.560170178 984.673651144 635.612112942 985.757567634C635.664055128 986.841484152 634.523313766 987.776855469 633.06419543 987.846778243C633.06419543 987.846778243 633.06419544 987.846778242 633.06419544 987.846778242M682.999191352 979.759889789C681.565763743 980.041314229 680.084843793 979.394833285 679.895778768 978.326268105C679.706714316 977.257702823 680.808696628 976.185216801 682.242124161 975.903791944C683.675551771 975.622367505 685.00704958 976.257444548 685.216108178 977.322276424C685.425166208 978.38710841 684.432618876 979.478464933 682.999191342 979.759889791C682.999191342 979.759889791 682.999191352 979.759889789 682.999191352 979.759889789M731.204423569 958.900036152C730.000395121 959.727021985 728.204793765 959.818673473 727.631774794 958.897224784C727.058756316 957.975775789 727.775700482 956.488036888 728.979728694 955.661050703C730.183757143 954.834064871 731.853904228 954.691240445 732.510709463 955.554938087C733.167514237 956.418636078 732.408451773 958.073049972 731.204423561 958.900036158C731.204423561 958.900036158 731.204423569 958.900036152 731.204423569 958.900036152M755.35686848 909.71834063C755.241514312 911.174401516 754.271154775 912.285305341 753.189509486 912.199614116C752.107864242 912.113922311 751.324530412 910.864085114 751.439884159 909.408024189C751.555238328 907.951963302 752.525597865 906.841059483 753.607243153 906.926750708C754.688888396 907.012442509 755.472222225 908.262279714 755.35686848 909.71834064C755.35686848 909.71834064 755.35686848 909.71834063 755.35686848 909.71834063"
           id="path19092" />
        <path
           style="opacity:1;fill:#004400;fill-opacity:1;fill-rule:nonzero;stroke:none;stroke-width:0;stroke-miterlimit:4;stroke-dasharray:none;stroke-dashoffset:0;stroke-opacity:1"
           d="M256.96495246 1034.85871401C256.110891017 1035.58848929 255.407267365 1035.14677128 254.826397889 1034.54761085C254.245528131 1033.94845069 254.147704292 1033.29095859 255.001765321 1032.56118282C255.411900101 1032.21073202 255.908654499 1031.99566511 256.382748159 1031.96329437C256.85684182 1031.93092363 257.269439432 1032.08390071 257.52977419 1032.38857239C257.790109091 1032.69324394 257.876855883 1033.12465299 257.770931255 1033.58789444C257.665006627 1034.05113588 257.375087374 1034.50826337 256.964952466 1034.858714C256.964952466 1034.858714 256.96495246 1034.85871401 256.96495246 1034.85871401M291.005586323 1011.9411749C289.884374827 1012.01339248 289.203194994 1011.3340678 289.127910551 1010.50284751C289.052625715 1009.67162726 289.690099715 1008.99719448 290.811311173 1008.92497626C291.349736137 1008.89029589 291.876342775 1009.01592457 292.275283574 1009.27422541C292.674224373 1009.53252626 292.912820154 1009.9023406 292.938582548 1010.30231345C292.964345135 1010.7022863 292.775164001 1011.099654 292.412656867 1011.40700016C292.050149733 1011.71434632 291.544011304 1011.90649473 291.005586333 1011.9411749C291.005586333 1011.9411749 291.005586323 1011.9411749 291.005586323 1011.9411749M336.939909823 1001.64055364C335.824852716 1001.50278036 335.00388811 1000.7196005 335.106233935 999.891272326C335.208579368 999.062944102 336.195479061 998.503138268 337.310536248 998.640910907C337.846005817 998.707071741 338.340019971 998.928539305 338.683901176 999.256593237C339.02778238 999.58464717 339.193361653 999.992414987 339.144213433 1000.39019238C339.095065404 1000.78796979 338.83521583 1001.14317295 338.421828688 1001.37766119C338.008441547 1001.61214943 337.475379371 1001.70671467 336.939909833 1001.64055363C336.939909833 1001.64055363 336.939909823 1001.64055364 336.939909823 1001.64055364M384.979857927 997.343025695C383.882847199 997.100314774 383.139706011 996.242933765 383.320005519 995.428011466C383.500304644 994.613089083 384.53576885 994.149219599 385.632779718 994.391929896C386.15958313 994.508483591 386.630415191 994.775722683 386.941698163 995.134857592C387.252981135 995.493992501 387.379216316 995.915604749 387.2926334 996.306944406C387.206050674 996.698284102 386.913742249 997.027294733 386.480012686 997.221597679C386.046283122 997.415900624 385.506661299 997.45957959 384.979857937 997.343025695C384.979857937 997.343025695 384.979857927 997.343025695 384.979857927 997.343025695M433.922447029 995.777588957C432.834192479 995.498151365 432.120266546 994.61627052 432.327848726 993.807852809C432.535430525 992.999435002 433.585913438 992.570611366 434.674168149 992.850048339C435.196766704 992.984238812 435.658361531 993.267151478 435.957406982 993.636548746C436.256452433 994.005946015 436.36845224 994.431568767 436.268767718 994.81978481C436.169083383 995.208000898 435.865880333 995.52700967 435.425859821 995.706632803C434.985839309 995.886255936 434.445045536 995.911779629 433.922447039 995.777588957C433.922447039 995.777588957 433.922447029 995.777588957 433.922447029 995.777588957M483.161269771 995.455667739C482.076121785 995.164393586 481.371842251 994.274788101 481.588217305 993.468678122C481.804591979 992.662568044 482.859684564 992.24521062 483.944832718 992.536484155C484.46593945 992.676358749 484.924426178 992.964282493 485.219431 993.336915418C485.514435822 993.709548342 485.621793457 994.13636628 485.517886446 994.523474109C485.413979622 994.910581986 485.107319649 995.226269929 484.665368265 995.401090158C484.223416881 995.575910386 483.682376454 995.59554253 483.161269781 995.455667739C483.161269781 995.455667739 483.161269771 995.455667739 483.161269771 995.455667739M532.536894779 995.246281744C531.451577804 994.95564173 530.746779396 994.066448549 530.962683376 993.260213036C531.178586975 992.453977423 532.233434671 992.036004163 533.318751814 992.326643559C533.839939697 992.466213629 534.298594118 992.753869269 534.593816282 993.126329489C534.889038447 993.498789709 534.996645272 993.92554449 534.892964479 994.312712604C534.789283873 994.699880765 534.482808616 995.015747494 534.04095981 995.190825681C533.599111003 995.365903868 533.058082613 995.385852011 532.536894789 995.246281744C532.536894789 995.246281744 532.536894779 995.246281744 532.536894779 995.246281744M582.205962603 994.283079407C581.113370179 994.021150529 580.385383876 993.150851012 580.579959582 992.339210881C580.774534905 991.527570659 581.817990522 991.081941124 582.910583097 991.34386938C583.435264769 991.469651869 583.901338583 991.745115644 584.206273562 992.109661788C584.511208541 992.474207932 584.630025979 992.897974706 584.536587389 993.28773821C584.443148987 993.677501756 584.145108536 994.001334668 583.708031577 994.187997363C583.270954618 994.374660059 582.730644231 994.408862094 582.205962613 994.283079407C582.205962613 994.283079407 582.205962603 994.283079407 582.205962603 994.283079407M632.339943103 991.137526363C631.231008161 990.956912857 630.440805136 990.142690928 630.574975134 989.318910643C630.709144743 988.495130296 631.716880049 987.973740113 632.825815096 988.154352988C633.358344707 988.241086437 633.843468359 988.481416436 634.174464326 988.822473103C634.505460294 989.16352977 634.655215089 989.577375503 634.590784355 989.972968917C634.526353812 990.368562359 634.25301555 990.713498564 633.830900907 990.931895464C633.408786264 991.150292364 632.872472685 991.224260013 632.339943113 991.137526362C632.339943113 991.137526362 632.339943103 991.137526363 632.339943103 991.137526363M682.541836711 983.156300801C681.418945376 983.117863734 680.531809149 982.410493968 680.560362358 981.576346081C680.588915174 980.742198183 681.522344989 980.097146672 682.645236348 980.135583099C683.184468025 980.154040982 683.862491177 980.274423389 684.239577227 980.563705221C684.616663277 980.852987054 684.825023922 981.240647387 684.818822181 981.641405327C684.812620632 982.042163268 684.592364698 982.423190848 684.206508201 982.700666305C683.820651705 982.978141762 683.081068384 983.174758887 682.54183672 983.156300799C682.54183672 983.156300799 682.541836711 983.156300801 682.541836711 983.156300801M731.884626755 962.395796066C730.828117679 962.777870408 729.741560981 962.451368169 729.457734275 961.666532836C729.1739072 960.881697638 730.125474337 959.716716842 731.163499444 959.286985162C731.661976913 959.08062069 732.200935995 959.029808536 732.661811781 959.145726803C733.122687566 959.26164507 733.467727482 959.534798336 733.621026652 959.905095966C733.774325999 960.275393519 733.723327132 960.712502622 733.479249231 961.120264206C733.23517133 961.528025791 732.39198051 962.212317366 731.884626763 962.39579606C731.884626763 962.39579606 731.884626755 962.395796066 731.884626755 962.395796066M758.529077682 910.853248797C758.209561201 911.930269679 757.301954967 912.610953233 756.501882266 912.373598162C755.701809455 912.13624347 755.312241134 911.070731528 755.631757001 909.993710462C755.785194047 909.476506499 756.084973058 909.025764958 756.465146038 908.740643887C756.845319019 908.455522816 757.274744161 908.359377871 757.658952787 908.473359845C758.043161465 908.587341634 758.350681287 908.902113557 758.51386137 909.34842934C758.677041452 909.794745123 758.682514923 910.336044889 758.529077682 910.853248787C758.529077682 910.853248787 758.529077682 910.853248797 758.529077682 910.853248797"
           id="path19094" />
        <path
           style="opacity:1;fill:#004400;fill-opacity:1;fill-rule:nonzero;stroke:none;stroke-width:0;stroke-miterlimit:4;stroke-dasharray:none;stroke-dashoffset:0;stroke-opacity:1"
           d="M258.750586267 1036.89545423C258.309707228 1037.16412288 257.807601609 1037.29168462 257.354726986 1037.2500773C256.901852358 1037.20846999 256.535305893 1037.00110187 256.335723673 1036.67359161C255.920115632 1035.99158709 255.907584583 1035.5622473 256.858983101 1035.06150212C257.81038147 1034.56075667 258.883193587 1034.72775863 259.25517633 1035.43451149C259.433808772 1035.77390642 259.423630798 1036.19492565 259.226881447 1036.6049497C259.030132102 1037.01497373 259.191465383 1036.62678571 258.750586267 1036.89545423C258.750586267 1036.89545423 258.750586267 1036.89545423 258.750586267 1036.89545423M290.704989429 1014.79589081C290.193137246 1014.72778694 289.722346578 1014.51142539 289.396186062 1014.19440325C289.070025537 1013.87738112 288.915212569 1013.48566722 288.965804248 1013.10543421C289.071156097 1012.31364045 289.737350089 1011.870504 290.79918297 1012.03998881C291.8610159 1012.20947331 292.619737396 1012.98630831 292.493835078 1013.77509856C292.433374531 1014.1538892 292.172829067 1014.48483377 291.769515752 1014.69512818C291.366202446 1014.90542258 291.216841585 1014.86399482 290.704989429 1014.79589081C290.704989429 1014.79589081 290.704989429 1014.79589081 290.704989429 1014.79589081M335.738985174 1004.4208688C335.253139607 1004.24597546 334.838803858 1003.93487277 334.587127115 1003.55599983C334.335450362 1003.17712689 334.267048695 1002.76151901 334.396969688 1002.40060524C334.667516174 1001.64904176 335.706998555 1001.33501893 336.718718848 1001.69921555C337.73043925 1002.06341186 338.331280164 1002.96791401 338.060734765 1003.71947789C337.930814123 1004.08039178 337.613213214 1004.35704745 337.177800659 1004.48858377C336.742388113 1004.6201201 336.224830681 1004.59576229 335.738985174 1004.4208688C335.738985174 1004.4208688 335.738985174 1004.4208688 335.738985174 1004.4208688M383.52112661 999.997178751C383.054017568 999.777078135 382.670991563 999.428148876 382.456309994 999.02715148C382.241628414 998.626154085 382.212876895 998.205936197 382.376380425 997.858941016C382.716858874 997.136361478 383.781402943 996.922149665 384.754106439 997.380485485C385.726810071 997.838821014 386.239330572 998.796142014 385.898853168 999.518722046C385.735349976 999.865717384 385.392985028 1000.11106605 384.947074754 1000.20079409C384.50116449 1000.29052214 383.988235579 1000.21727951 383.52112661 999.997178751C383.52112661 999.997178751 383.52112661 999.997178751 383.52112661 999.997178751M432.375335201 998.38127426C431.915877495 998.145599337 431.54478541 997.783991554 431.343695015 997.376000552C431.14260461 996.968009551 431.127988202 996.547055852 431.303061215 996.205744529C431.667631846 995.495001009 432.738790169 995.31667534 433.695560582 995.807442952C434.65233114 996.298210278 435.132404755 997.27222748 434.767835152 997.982971528C434.592762472 998.324283021 434.242341375 998.557993761 433.793660552 998.63269002C433.34497974 998.707386278 432.834792829 998.616949321 432.375335201 998.38127426C432.375335201 998.38127426 432.375335201 998.38127426 432.375335201 998.38127426M481.585889486 998.042351755C481.129025265 997.801686292 480.761893144 997.436057705 480.565258047 997.025900163C480.36862294 996.615742622 480.358592207 996.194654122 480.537372476 995.85526939C480.909663063 995.148537786 481.982701554 994.981889 482.934071316 995.483048864C483.885441226 995.984208444 484.354878487 996.963397938 483.982588922 997.670130081C483.803808984 998.009514987 483.450862726 998.239395563 483.001394347 998.309200674C482.551925978 998.379005785 482.042753628 998.283017354 481.585889486 998.042351755C481.585889486 998.042351755 481.585889486 998.042351755 481.585889486 998.042351755M530.963027028 997.83388321C530.506022716 997.593484854 530.13867742 997.228071092 529.941802958 996.818028837C529.744928486 996.407986582 529.734651808 995.986904385 529.913233654 995.647415585C530.28511105 994.940467272 531.358051071 994.773191903 532.309712556 995.273795546C533.26137419 995.774398906 533.731382898 996.753313172 533.359506525 997.460262023C533.180925009 997.799750996 532.828113396 998.029837485 532.378686264 998.099905056C531.929259141 998.169972626 531.420031261 998.074281703 530.963027028 997.83388321C530.963027028 997.83388321 530.963027028 997.83388321 530.963027028 997.83388321M580.700860576 996.911247291C580.237681941 996.682980518 579.860835188 996.327379424 579.65322235 995.922672246C579.445609501 995.517965069 579.424237159 995.097303335 579.593806976 994.753227889C579.946917805 994.036728382 581.015067471 993.841230787 581.979586319 994.316571737C582.944105308 994.791912399 583.439750276 995.758089956 583.086640483 996.474589975C582.917071002 996.818665584 582.570449572 997.057970109 582.123029002 997.139859248C581.675608442 997.221748387 581.164039136 997.139514203 580.700860576 996.911247291C580.700860576 996.911247291 580.700860576 996.911247291 580.700860576 996.911247291M631.032827215 993.869557795C630.554072585 993.676082487 629.903561756 993.358624362 629.673684873 992.96613492C629.443807981 992.573645479 629.398991007 992.154831903 629.54909316 991.801828461C629.861664704 991.066737366 631.119700829 990.784735678 632.116655008 991.187627205C633.113609306 991.590518434 633.679177672 992.517496801 633.379887472 993.25809159C633.236163083 993.613737929 632.908140656 993.877960138 632.46798143 993.992632306C632.027822214 994.107304473 631.51158178 994.063033246 631.032827215 993.869557795C631.032827215 993.869557795 631.032827215 993.869557795 631.032827215 993.869557795M681.591962088 986.032116852C681.092525929 985.900956087 680.652250786 985.627784236 680.367992219 985.272696028C680.083733644 984.917607825 679.97877666 984.50969026 680.076210603 984.13868061C680.279106353 983.366093521 681.286689438 982.961202262 682.326710684 983.234330561C683.36673201 983.507458551 684.045357122 984.355178168 683.842462489 985.12776555C683.745028908 985.498775295 683.453185633 985.802486029 683.031134894 985.972084813C682.609084164 986.141683595 682.0913982 986.163277767 681.591962088 986.032116852C681.591962088 986.032116852 681.591962088 986.032116852 681.591962088 986.032116852M732.072893325 965.418361081C731.560546883 965.482429879 731.050278186 965.392681682 730.654340592 965.168860088C730.25840299 964.9450385 730.009229674 964.605477818 729.96163595 964.22487758C729.862527404 963.432319065 730.64708178 962.681668599 731.713987405 962.548252635C732.780892991 962.414836355 734.184284046 962.548441553 734.319340331 963.335663098C734.384196599 963.713700456 733.714954564 964.512798097 733.386324915 964.827226539C733.057695275 965.141654976 732.58523978 965.35429244 732.072893325 965.418361081C732.072893325 965.418361081 732.072893325 965.418361081 732.072893325 965.418361081M761.073347099 912.495536983C760.820846608 912.945892693 760.44578838 913.303290368 760.030680999 913.489106557C759.615573618 913.674922755 759.194420546 913.673936343 758.859870714 913.486364342C758.163207266 913.095765934 758.02469917 912.018873122 758.550504185 911.081056634C759.07630892 910.14323999 760.067315425 909.699631249 760.763979438 910.090228649C761.098529452 910.277800324 761.319071714 910.636592735 761.377089409 911.087675595C761.435107105 911.538758446 761.325847724 912.045181356 761.073347099 912.495536983C761.073347099 912.495536983 761.073347099 912.495536983 761.073347099 912.495536983"
           id="path19096" />
        <path
           style="opacity:1;fill:#004400;fill-opacity:1;fill-rule:nonzero;stroke:none;stroke-width:0;stroke-miterlimit:4;stroke-dasharray:none;stroke-dashoffset:0;stroke-opacity:1"
           d="M260.031190397 1039.04363685C259.621374523 1039.31949068 259.146939453 1039.46311008 258.712255506 1039.44290041C258.277571558 1039.42269074 257.918245791 1039.24030748 257.713325789 1038.93587287C257.508405587 1038.63143812 257.47467733 1038.22988959 257.619560868 1037.81956349C257.764444406 1037.40923739 257.775314654 1037.62146634 258.19783693 1037.36561761C258.620358936 1037.10976886 259.101076203 1036.98908482 259.534236375 1037.03011459C259.967396547 1037.07114436 260.317517368 1037.27052701 260.507576216 1037.58440061C260.9033532 1038.23800802 260.884587545 1038.46920153 260.031190397 1039.04363685C260.031190397 1039.04363685 260.031190398 1039.04363685 260.031190398 1039.04363685M289.606715956 1017.55642439C289.117202566 1017.48988587 289.084198746 1017.12009373 288.764647424 1016.82471481C288.445096102 1016.52933589 288.28763192 1016.15840944 288.326895208 1015.79353507C288.366158433 1015.42866047 288.238665326 1015.24848843 288.619755195 1015.03840705C289.000845064 1014.82832567 289.4899451 1014.74768437 289.979458731 1014.81422335C290.468972166 1014.88076213 290.91880085 1015.08903055 291.229987572 1015.39321189C291.541174294 1015.69739323 291.688228227 1016.07257053 291.638799173 1016.43620903C291.535868767 1017.19344654 290.626074292 1017.69498394 289.606715956 1017.55642439C289.606715956 1017.55642439 289.606715956 1017.55642439 289.606715956 1017.55642439M334.081327502 1006.88643448C333.616983491 1006.71779896 333.221421916 1006.4190429 332.981661819 1006.05588925C332.741901722 1005.69273559 332.677583012 1005.294932 332.802855076 1004.94999075C332.928127134 1004.60504925 333.232728546 1004.34122596 333.649650401 1004.21655908C334.066572256 1004.09189221 334.561662427 1004.11659381 335.026006578 1004.28522982C335.490350577 1004.45386561 335.885911986 1004.75262192 336.125671783 1005.11577573C336.36543158 1005.47892954 336.429749862 1005.87673318 336.304477339 1006.22167433C336.043611176 1006.9399767 335.048273278 1007.2375999 334.081327502 1006.88643448C334.081327502 1006.88643448 334.081327502 1006.88643448 334.081327502 1006.88643448M381.637507508 1002.29475861C381.191211136 1002.08292315 380.825706266 1001.74806236 380.621399809 1001.36384179C380.417093352 1000.97962121 380.390721039 1000.57751422 380.548084478 1000.24597978C380.705447936 999.914445093 381.033656959 999.680640643 381.460509226 999.596000808C381.887361493 999.511360972 382.377891425 999.582819018 382.824187892 999.79465497C383.270484228 1000.00649069 383.635988908 1000.34135172 383.840295051 1000.72557242C384.044601194 1001.10979312 384.070973077 1001.51190012 383.91360919 1001.84343441C383.585916256 1002.53381849 382.566871014 1002.73588317 381.637507508 1002.29475861C381.637507508 1002.29475861 381.637507508 1002.29475861 381.637507508 1002.29475861M430.415549281 1000.61430547C429.976615131 1000.38759049 429.62256188 1000.04063217 429.43127721 999.649757406C429.239992541 999.25888264 429.227145507 998.856109857 429.395562311 998.530044492C429.563979141 998.203978885 429.899864182 997.981330392 430.329326476 997.911079206C430.758788769 997.840828019 431.246648936 997.928728761 431.685583164 998.155444244C432.124517268 998.382159488 432.478570323 998.729118031 432.669854674 999.119992917C432.861139025 999.510867802 432.873985629 999.913640576 432.705568383 1000.23970578C432.354858032 1000.91870107 431.32958175 1001.08641503 430.415549281 1000.61430547C430.415549281 1000.61430547 430.415549281 1000.61430547 430.415549281 1000.61430547M479.601896012 1000.2539085C479.165456569 1000.022426 478.81520274 999.671631607 478.628186378 999.278696109C478.441170016 998.88576061 478.432710537 998.482871244 478.604668931 998.15865909C478.776627355 997.834446694 479.114917914 997.615469404 479.545120464 997.549899788C479.975323014 997.484330173 480.462197538 997.577539363 480.898637052 997.809022373C481.335076446 998.040505141 481.685330076 998.391299757 481.872346118 998.784235372C482.059362161 999.177170985 482.06782121 999.580060339 481.895862375 999.904272326C481.537777051 1000.5794085 480.51073352 1000.73594592 479.601896012 1000.2539085C479.601896012 1000.2539085 479.601896012 1000.25390851 479.601896012 1000.25390851M528.980327408 1000.04659647C528.543753217 999.815369135 528.193294859 999.464779696 528.006049181 999.071953847C527.818803504 998.679127998 527.810108707 998.276243997 527.981877549 997.951931744C528.15364642 997.627619249 528.491808719 997.408444595 528.921972517 997.342623769C529.352136314 997.276802943 529.839064768 997.369727652 530.275639031 997.600955495C530.712213174 997.832183097 531.062671332 998.182772761 531.24991669 998.575598726C531.437162049 998.968424691 531.445856415 999.371308678 531.274087133 999.695620765C530.916396531 1000.37096539 529.889445515 1000.52810253 528.980327408 1000.04659647C528.980327408 1000.04659647 528.980327408 1000.04659648 528.980327408 1000.04659648M578.777190224 999.175436553C578.334676191 998.95579902 577.975101132 998.614571859 577.777567465 998.226821167C577.580033799 997.839070474 577.560722463 997.436558776 577.723881734 997.10783407C577.887041028 996.779109122 578.219305973 996.551098698 578.647581991 996.473962557C579.075858009 996.396826416 579.565062895 996.476883159 580.007577014 996.696521194C580.450091005 996.916158989 580.80966587 997.25738638 581.007199221 997.645137198C581.204732571 998.032888014 581.224043476 998.43539971 581.06088376 998.764124262C580.721121644 999.448657353 579.698677413 999.632808103 578.777190224 999.175436553C578.777190224 999.175436553 578.777190224 999.175436554 578.777190224 999.175436554M628.980560394 996.262724931C628.526477344 996.068127105 628.148417915 995.747500087 627.929550876 995.371378177C627.710683837 994.995256268 627.668937647 994.594449423 627.813495994 994.257130592C627.95805435 993.919811517 628.277075985 993.673611964 628.700379701 993.572693095C629.123683417 993.471774226 629.616594316 993.524402804 630.07067748 993.719001127C630.524760503 993.913599219 631.166870551 994.206726173 631.392469648 994.578847281C631.618068745 994.950968387 631.667020418 995.35095765 631.528555859 995.69082195C631.240218716 996.398552339 629.92613882 996.667954026 628.980560394 996.262724931C628.980560394 996.262724931 628.980560395 996.262724932 628.980560395 996.262724932M679.7401954 988.721736767C679.266172403 988.582647319 678.852609255 988.30937095 678.590485138 987.962025356C678.328361022 987.614679762 678.239147791 987.221717693 678.342471343 986.869586335C678.445794876 986.517454734 678.733191684 986.234998693 679.141437681 986.084355395C679.549683677 985.933712098 680.392296957 985.833347847 680.869761609 985.960180878C681.347226088 986.087013702 681.767706605 986.349551028 682.038702217 986.690037609C682.309697828 987.030524189 682.409009953 987.421069124 682.314791052 987.77575694C682.118590673 988.514355656 680.727296629 989.011375715 679.7401954 988.721736767C679.7401954 988.721736767 679.7401954 988.721736768 679.7401954 988.721736768M731.112859531 968.748360057C730.620399844 968.787272018 730.136627107 968.679265951 729.767965817 968.448101968C729.399304527 968.216937985 729.175953509 967.881551838 729.147047451 967.515724665C729.118141286 967.149897273 729.286048148 966.783595508 729.613830406 966.497401679C729.941612663 966.211207849 730.885478463 965.68018584 731.375822048 965.620274332C731.866165395 965.560362695 732.354105383 965.64760468 732.732300745 965.862808026C733.110496107 966.078011371 733.347967014 966.403547741 733.392472555 966.767802807C733.485150691 967.526324203 732.138353277 968.667330448 731.112859531 968.748360057C731.112859531 968.748360057 731.112859531 968.748360058 731.112859531 968.748360058M763.231979244 914.53643602C762.989191553 914.966616698 762.543163231 916.223703814 762.136046174 916.377250306C761.728929116 916.530796798 761.326795316 916.505603469 761.018109637 916.307212564C760.70942372 916.10882161 760.582043628 914.954184163 760.527755593 914.522468851C760.473467558 914.09075354 760.579365864 913.606545301 760.822154061 913.176364564C761.064942014 912.746183942 761.424731826 912.405268887 761.822373807 912.228616843C762.220015787 912.051964799 762.622937157 912.054046207 762.942499766 912.234403175C763.607954123 912.609976698 763.737558475 913.640631715 763.231979244 914.53643602C763.231979244 914.53643602 763.231979245 914.53643602 763.231979245 914.53643602"
           id="path19098" />
        <path
           style="opacity:1;fill:#004400;fill-opacity:1;fill-rule:nonzero;stroke:none;stroke-width:0;stroke-miterlimit:4;stroke-dasharray:none;stroke-dashoffset:0;stroke-opacity:1"
           d="M260.002827673 1041.03044995C259.610091222 1041.24179944 259.171071234 1041.32859651 258.782347141 1041.27174677C258.393623042 1041.21489703 258.087037102 1041.01905732 257.930034755 1040.72731016C257.603094713 1040.11977848 257.812020075 1039.7179155 258.643716121 1039.30460182C259.475412215 1038.89128823 260.174311535 1039.55848564 260.461219037 1040.1859165C260.598996887 1040.48721968 260.835755613 1040.33499423 260.657598542 1040.68513489C260.479441476 1041.03527555 260.395564098 1040.8191004 260.002827671 1041.03044994C260.002827671 1041.03044994 260.002827672 1041.03044995 260.002827672 1041.03044995M287.669769645 1019.27335052C287.240020823 1019.15406015 286.863075859 1018.9128372 286.621858393 1018.60274797C286.380640917 1018.29265875 286.294910214 1017.93910416 286.383526074 1017.61986221C286.568059121 1016.9550758 287.443116137 1016.61753542 288.338021119 1016.86594447C289.232926076 1017.11435362 289.808796952 1017.8546448 289.624265035 1018.51943152C289.535649527 1018.83867356 289.279946369 1019.09745242 288.91340736 1019.23883966C288.546868361 1019.38022691 288.099518479 1019.39264083 287.669769644 1019.27335052C287.669769644 1019.27335052 287.669769645 1019.27335052 287.669769645 1019.27335052M331.333639347 1008.17219208C330.94481367 1007.95371383 331.072184304 1007.56117845 330.902671019 1007.20676752C330.733157725 1006.85235658 330.317218361 1006.54818088 330.479516641 1006.25933901C330.817485258 1005.65785751 331.747843552 1005.53907599 332.557530579 1005.994033C333.367217559 1006.44899009 333.749621513 1007.30540285 333.41165392 1007.90688493C333.249355957 1008.19572697 332.939244834 1008.38594867 332.549541484 1008.43570341C332.159838143 1008.48545816 331.722465048 1008.3906703 331.333639347 1008.17219208C331.333639347 1008.17219208 331.333639347 1008.17219208 331.333639347 1008.17219208M379.113962748 1003.30715124C378.742777143 1003.05987412 378.459765548 1002.71318837 378.327187327 1002.34336092C378.194609097 1001.97353347 378.223324349 1001.61085867 378.40701606 1001.33512087C378.789534148 1000.76092717 379.442042404 1000.73254952 380.205027569 1001.26211311C380.968012677 1001.79167677 381.267628868 1002.68044605 380.874239217 1003.24723536C380.685326631 1003.51941732 380.358600055 1003.67942893 379.965935635 1003.69206944C379.573271226 1003.70470995 379.48514838 1003.55442831 379.113962747 1003.30715123C379.113962747 1003.30715123 379.113962747 1003.30715124 379.113962747 1003.30715124M427.525774502 1001.53762853C427.168121318 1001.27115122 426.903753847 1000.91004506 426.790829959 1000.53374933C426.677906061 1000.15745359 426.725675871 999.796792474 426.923630581 999.53110734C427.335849798 998.977847212 428.273777469 998.979184529 429.018551199 999.534094322C429.76332487 1000.0890042 430.032914172 1000.98735364 429.620695895 1001.54061447C429.422741479 1001.80629981 429.090817518 1001.95524571 428.697943524 1001.95468574C428.305069539 1001.95412576 427.883427716 1001.8041058 427.525774502 1001.53762852C427.525774502 1001.53762852 427.525774502 1001.53762853 427.525774502 1001.53762853M476.70223229 1001.145704C476.347502176 1000.87534674 476.087083022 1000.51138214 475.978264112 1000.1338783C475.869445193 999.756374456 475.921140386 999.396254527 476.121977341 999.132740818C476.540198518 998.584002447 477.478057274 998.59555515 478.216744031 999.158544511C478.955430729 999.721533954 479.215220011 1000.62276757 478.796999767 1001.17150666C478.596163102 1001.43502058 478.262636127 1001.58034269 477.869790998 1001.57550375C477.476945878 1001.57066481 477.056962435 1001.41606121 476.70223229 1001.145704C476.70223229 1001.145704 476.70223229 1001.145704 476.70223229 1001.145704M526.081187636 1000.94008471C525.726299981 1000.66993494 525.465668511 1000.30612283 525.356629217 999.928682949C525.247589913 999.551243063 525.299074707 999.191093318 525.499757533 998.927462578C525.917657753 998.378480504 526.855522268 998.389485395 527.594537088 998.952042698C528.333551847 999.514600083 528.593867264 1000.41568101 528.175967977 1000.9646638C527.975285442 1001.22829475 527.6418437 1001.37381152 527.248996159 1001.36920204C526.856148627 1001.36459257 526.436075322 1001.21023445 526.081187636 1000.94008471C526.081187636 1000.94008471 526.081187636 1000.94008471 526.081187636 1000.94008471M575.902631788 1000.14502588C575.540749316 999.88432656 575.270620699 999.527513685 575.151671194 999.153082047C575.032721679 998.778650408 575.074694989 998.417271511 575.268357478 998.148444618C575.671638619 997.588642118 576.609460054 997.57492191 577.363040813 998.117799669C578.116621514 998.660677512 578.400596069 999.554576689 577.99731588 1000.11437988C577.803653688 1000.38320698 577.474166074 1000.53746125 577.081336582 1000.54320849C576.6885071 1000.54895573 576.264514289 1000.40572516 575.902631788 1000.14502588C575.902631788 1000.14502588 575.902631788 1000.14502588 575.902631788 1000.14502588M626.16459469 997.39123833C625.788725852 997.151142482 625.499103653 996.809961856 625.359441716 996.442752321C625.219779768 996.075542786 625.241518451 995.712384251 625.419875507 995.43316748C625.791284762 994.851729183 626.726879466 994.785688762 627.509585296 995.285662035C628.292291073 995.785635395 628.625713443 996.662292857 628.254305176 997.243731787C628.075948428 997.522948753 627.755583328 997.695352044 627.363686568 997.723014888C626.971789818 997.750677731 626.540463553 997.631334132 626.164594689 997.391238327C626.164594689 997.391238327 626.164594689 997.391238328 626.164594689 997.391238328M677.078881403 990.1777614C676.67709042 989.984178552 676.348881845 989.679956276 676.166457864 989.332020022C675.984033874 988.984083769 675.962337693 988.62093468 676.106142244 988.32246144C676.405599695 987.70092363 677.326625399 987.523857062 678.163311253 987.926972091C678.999997065 988.330087212 679.435507368 989.160732558 679.136050974 989.782270878C678.992246753 990.080744274 678.694721468 990.290092526 678.308927314 990.36426139C677.92313317 990.438430253 677.480672407 990.371344199 677.078881403 990.177761397C677.078881403 990.177761397 677.078881403 990.177761398 677.078881403 990.177761398M729.144942707 971.056912288C728.700560423 971.019174905 727.697945459 971.183961563 727.414186341 970.912275314C727.130427213 970.640589069 726.99417228 970.303279316 727.035396088 969.974550376C727.121240373 969.290008311 728.430965705 968.488947342 729.356343252 968.567531213C730.281720792 968.646115185 730.984564058 969.267086546 730.926188012 969.954509934C730.89815473 970.284622512 730.694739397 970.586223478 730.360691083 970.792964035C730.026642778 970.999704586 729.589324993 971.094649618 729.144942705 971.056912285C729.144942705 971.056912285 729.144942706 971.056912286 729.144942706 971.056912286M763.835555602 918.452024213C763.536575986 918.782905515 763.031478612 920.009368596 762.642367305 920.063192765C762.253255996 920.117016943 761.904251382 920.014474068 761.672130526 919.778122403C761.188764362 919.285945743 761.359402257 917.466197363 761.981994553 916.777173146C762.604586926 916.088148995 763.524231271 915.904512318 764.036078216 916.367009059C764.281875895 916.589108057 764.398837169 916.933552613 764.361231882 917.324568827C764.323626595 917.715585031 764.134535177 918.121142879 763.835555599 918.452024213C763.835555599 918.452024213 763.8355556 918.452024213 763.8355556 918.452024213"
           id="path19100" />
      </g>
      <g
         style="fill:#004400;fill-opacity:1;stroke:#000000;stroke-opacity:1"
         id="g19102">
        <path
           style="fill:#004400;fill-opacity:1;fill-rule:evenodd;stroke:none;stroke-width:0.95363015px;stroke-linecap:butt;stroke-linejoin:miter;stroke-opacity:1"
           d="M243.870532432 1009.48304926C244.999053993 1008.40333006 248.098666963 1007.18880148 249.526556441 1007.8217357C251.310885433 1008.61266764 253.116431024 1010.60755103 252.974639859 1012.55410836C252.709999037 1016.18623349 246.246017035 1018.51365114 245.469166776 1022.07140393C245.101776842 1023.75394433 246.873058038 1025.76737363 246.182845484 1027.34517826C245.473072866 1028.9676946 243.525883713 1030.85238424 241.764333444 1030.66797863C240.003351369 1030.48363537 238.843269156 1027.99776836 238.600564731 1026.24410684C238.402394697 1024.81218947 240.21359942 1023.1854654 240.578827611 1021.78679021C241.504495824 1018.2418642 241.223146784 1012.01595767 243.870532432 1009.48304926C243.870532432 1009.48304926 243.870532432 1009.48304926 243.870532432 1009.48304926M293.720869138 983.457742116C295.234373708 983.071508098 297.423180494 983.688134574 298.457234649 984.858868347C299.749416314 986.321848985 300.558871182 988.888083299 299.618323111 990.598405485C297.863270122 993.78970517 291.937594798 992.314102929 289.272312497 994.796186801C288.011841096 995.970019347 288.376721189 998.61311279 286.878292128 999.462444743C285.337399993 1000.33584449 282.677855576 1000.47298861 281.448888005 999.197545026C280.22031499 997.92251504 280.810769071 995.361235871 281.724219655 993.84442743C282.47008375 992.605911136 284.593336164 992.553881189 285.724212992 991.653125572C288.590408455 989.370171892 290.170352545 984.363810703 293.720869138 983.457742116C293.720869138 983.457742116 293.720869138 983.457742116 293.720869138 983.457742116M344.556882531 974.122427289C346.113048985 973.987437527 348.15642736 974.931769538 348.98771966 976.25421103C350.026524623 977.906769675 350.41067367 980.570084021 349.206117274 982.105953991C346.958450721 984.971729534 341.502888124 982.546046679 338.424701803 984.4926686C336.968958932 985.413269261 336.838193764 988.056066253 335.207842594 988.611599389C333.531290058 989.182874545 330.976317614 988.723475382 330.087523751 987.191409837C329.199014247 985.659840159 330.182137707 983.332297173 331.395927872 982.043171035C332.387027448 980.990565005 334.248948803 981.398421707 335.527745716 980.723939029C338.768842714 979.014471705 340.906284883 974.439104188 344.556882531 974.122427289C344.556882531 974.122427289 344.556882531 974.122427289 344.556882531 974.122427289M394.827670872 970.483702604C396.389509481 970.460855602 398.091091432 971.519510652 398.852707134 972.883256797C399.804442336 974.587430833 400.050011127 977.267058018 398.767466802 978.73840976C396.374282906 981.483796352 391.176431195 978.666136173 387.966363773 980.386588607C386.448251407 981.20022868 386.164562508 983.809874321 384.488938997 984.208578486C382.765831259 984.61858041 380.265813735 983.91937862 379.526040334 982.310051796C378.786503075 980.701245532 379.985549357 978.477214726 381.315926287 977.3087764C382.402222047 976.354715901 384.217178001 976.936999442 385.55408523 976.386599969C388.942462032 974.991620186 391.163766562 970.537304738 394.827670872 970.483702604C394.827670872 970.483702604 394.827670872 970.483702604 394.827670872 970.483702604M444.667339792 969.263869888C446.229090307 969.293513318 448.039640236 970.427114669 448.739851334 971.823415025C449.614853687 973.568269668 449.740984108 976.256216631 448.394234975 977.669086216C445.881251796 980.305347202 440.743170209 977.319138202 437.477054282 978.930789427C435.932435337 979.692974986 435.561217556 982.291658789 433.873115651 982.633843403C432.13717593 982.98572411 429.662021447 982.202904617 428.976726901 980.569603118C428.291650876 978.936829829 429.56476781 976.754305664 430.933675435 975.631208325C432.051432512 974.714170203 433.845829245 975.35711738 435.200497431 974.851939678C438.63388913 973.571573982 441.003641958 969.19433515 444.667339792 969.263869888C444.667339792 969.263869888 444.667339792 969.263869888 444.667339792 969.263869888M494.185824678 969.060177634C495.747187435 969.105917172 497.400683143 970.238269483 498.101709079 971.634159377C498.977729674 973.378501095 499.105429984 976.066371554 497.759507523 977.480026282C495.248066824 980.117752317 490.182638418 977.072574696 486.899158413 978.648559541C485.34632761 979.393877675 484.946827705 981.988367762 483.255096709 982.312146539C481.515425064 982.645099822 479.048940109 981.83536748 478.381474421 980.194696723C477.71422149 978.554556525 479.01103567 976.38602502 480.392096214 975.277902255C481.519776466 974.373091354 483.307066541 975.035544994 484.667158384 974.545150972C488.114296263 973.302254348 490.523036425 968.952883166 494.185824678 969.060177634C494.185824678 969.060177634 494.185824678 969.060177634 494.185824678 969.060177634M543.382649967 968.814339735C544.944442137 968.841645842 546.611187023 969.954400296 547.328640316 971.341916556C548.22518898 973.075794359 548.384607649 975.761967242 547.055467097 977.191409085C544.575339619 979.858593289 539.547518518 976.859106909 536.2649625 978.437007964C534.712568672 979.183232316 534.314584622 981.777953017 532.623044526 982.102719588C530.883569191 982.436688657 528.416613873 981.628397835 527.748190577 979.988118671C527.079980348 978.348369942 528.375526529 976.179083256 529.755938367 975.070154985C530.883088933 974.164686363 532.670764062 974.826095354 534.030568035 974.334907423C537.476976309 973.089998645 539.718854424 968.750288103 543.382649967 968.814339735C543.382649967 968.814339735 543.382649967 968.814339735 543.382649967 968.814339735M592.308796333 967.517033889C593.870722781 967.498848973 595.569165845 968.562596864 596.32672009 969.928633715C597.273379987 971.635670279 597.510952691 974.316064218 596.223999989 975.78360583C593.822590527 978.521882846 588.729428047 975.717643076 585.489630017 977.381508574C583.957457388 978.168387425 583.628009009 980.772676872 581.945630328 981.141915416C580.215576004 981.521616714 577.728191268 980.778639546 577.016769265 979.156562042C576.305574234 977.535009167 577.543479927 975.332343749 578.894171139 974.1874231C579.997054042 973.252565543 581.801528228 973.866618217 583.147901925 973.33976167C586.560271357 972.004451176 588.64468595 967.559699275 592.308796333 967.517033889C592.308796333 967.517033889 592.308796333 967.517033889 592.308796333 967.517033889M640.358205202 963.74734353C641.913683394 963.604658335 643.691521921 964.52955708 644.555588961 965.830810251C645.635350126 967.456891405 646.085915166 970.109762611 644.920112224 971.675238402C642.744755663 974.596257564 637.476036399 972.141489234 634.367818985 974.039817616C632.897873746 974.937579187 632.761443359 977.559068899 631.110892275 978.051410044C629.413567427 978.557702456 626.906435602 977.953133905 626.105590673 976.373289153C625.305001643 974.793955547 626.418043949 972.525631684 627.702730807 971.307110014C628.751719422 970.312154841 630.430481804 970.806586871 631.734316826 970.181844844C635.038872574 968.598444666 636.709222171 964.082073078 640.358205202 963.74734353C640.358205202 963.74734353 640.358205202 963.74734353 640.358205202 963.74734353M686.389474746 954.841187502C687.899598643 954.44194485 689.50685621 955.130293286 690.601156243 956.244906013C691.968622788 957.637756293 692.912169652 960.157756622 692.063055729 961.915251731C690.478610336 965.194575804 685.079588583 963.579894184 682.280565351 965.910157785C680.956844897 967.012191143 681.236911198 969.634097423 679.662174643 970.331903871C678.042812671 971.049484125 675.498885492 970.790421392 674.515497322 969.317328264C673.532424135 967.844712123 674.188423122 965.518590397 675.283234653 964.126975747C676.177184959 962.990684446 677.914795946 963.28404856 679.113886874 962.476293482C682.152970101 960.429048689 682.84688889 955.777772922 686.389474746 954.841187502C686.389474746 954.841187502 686.389474746 954.841187502 686.389474746 954.841187502M722.882682343 935.380699408C723.995042487 934.284339194 725.375915309 934.363255833 726.892411769 934.736796327C728.787466482 935.203582885 730.913884631 936.852026415 731.114578743 938.793322588C731.488989981 942.415642964 726.333445449 943.279754741 724.847692695 946.604642906C724.145047014 948.177056405 725.535430087 950.310799803 724.390811189 951.597700666C723.213755332 952.92106937 720.761871989 953.505008598 719.318239359 952.478941598C717.875070964 951.453208064 717.569659694 949.133114001 718.068083952 947.434186588C718.475067298 946.046963493 720.00128179 945.794737812 720.781413872 944.577625028C722.758651098 941.492867322 720.27320969 937.952645794 722.882682343 935.380699408C722.882682343 935.380699408 722.882682343 935.380699408 722.882682343 935.380699408M732.434858719 899.13509116C732.522320931 897.575707299 733.698333067 895.953286934 735.112289815 895.289921142C736.879208352 894.46096168 739.569191583 894.405186495 740.946177055 895.788252949C743.515479686 898.369000257 740.338242796 903.354417374 741.827616954 906.677570999C742.531974965 908.249164336 745.114798767 908.716328513 745.394182829 910.415732587C745.681483329 912.163294729 744.791108306 914.50233373 743.100687611 915.030460047C741.410813305 915.558418655 739.359852411 914.502818778 738.288367964 913.093426856C737.413473422 911.942613306 738.122357705 910.173487278 737.667763518 908.801209239C736.515601183 905.323185622 732.229687366 902.793237285 732.434858719 899.13509116C732.434858719 899.13509116 732.434858719 899.13509116 732.434858719 899.13509116"
           id="path19104" />
        <path
           style="opacity:1;fill:#004400;fill-opacity:1;fill-rule:nonzero;stroke:none;stroke-width:0;stroke-miterlimit:4;stroke-dasharray:none;stroke-dashoffset:0;stroke-opacity:1"
           d="M255.013281662 1007.73038225C253.891329205 1008.66570146 253.296367209 1010.37018038 254.030305086 1011.16937163C254.382754507 1011.5531571 254.926000662 1011.73274864 255.540535558 1011.66863815C256.155070455 1011.60452766 256.990625715 1011.19773097 257.529406659 1010.7485748C258.068187808 1010.29941852 258.627048212 1009.57168526 258.799004826 1008.9782112C258.970961441 1008.38473714 258.890436293 1007.81825679 258.575144011 1007.40338949C258.259852014 1006.98852225 257.735620146 1006.75925164 257.117773448 1006.7660146C256.49992675 1006.77277755 255.552062382 1007.28122594 255.013281662 1007.73038225C255.013281662 1007.73038225 255.013281662 1007.73038225 255.013281662 1007.73038225M303.331757523 987.129555388C301.929480929 987.538657265 301.039074106 988.714757234 301.342977935 989.756448564C301.488917589 990.256686661 301.896386042 990.658393885 302.475744857 990.873199202C303.05510367 991.088004521 303.758894773 991.098312193 304.432292103 990.901854649C305.105689662 990.705397092 305.693532188 990.318266976 306.066500917 989.825628584C306.439469647 989.332990192 306.567012892 988.775197938 306.421072569 988.274959864C306.275132487 987.774721953 305.86766372 987.373015017 305.288304755 987.158210007C304.708945792 986.943404996 304.005154705 986.933097621 303.331757522 987.129555388C303.331757522 987.129555388 303.331757522 987.129555388 303.331757522 987.129555388M353.175726915 979.207306146C351.731442903 979.426315336 350.692507654 980.473611785 350.855199757 981.546508568C350.933327111 982.061732035 351.283774232 982.514074007 351.829446728 982.804024381C352.375119223 983.093974757 353.071318429 983.197782302 353.764888415 983.092610533C354.45845863 982.987438783 355.092585943 982.681902713 355.527769457 982.243216835C355.96295297 981.804530956 356.16354468 981.268630168 356.085416659 980.753406634C356.007288855 980.238183295 355.656841384 979.785841566 355.111168699 979.495891475C354.565496014 979.205941385 353.869296785 979.102134137 353.175726914 979.207306147C353.175726914 979.207306147 353.175726914 979.207306147 353.175726914 979.207306147M403.053217501 976.099135545C401.596965304 976.214302908 400.485793901 977.184626215 400.571346356 978.266413619C400.612429926 978.785906501 400.929633589 979.262152468 401.453176136 979.590382812C401.976718681 979.918613156 402.663714218 980.071940945 403.363031517 980.016635804C404.062349044 979.961330698 404.716703871 979.70192284 405.182145274 979.29547905C405.647586677 978.88903526 405.885988081 978.368849331 405.84490385 977.849356335C405.803819822 977.329863548 405.486615793 976.853617798 404.963073037 976.525387724C404.439530282 976.197157651 403.752534701 976.043830157 403.0532175 976.099135545C403.0532175 976.099135545 403.0532175 976.099135545 403.0532175 976.099135545M452.624354128 975.165775265C451.16568367 975.244814516 450.030795367 976.187306488 450.089509794 977.270890302C450.117705283 977.791245847 450.423010045 978.275211145 450.938260493 978.61631932C451.453510941 978.957427496 452.136500428 979.127736733 452.836979012 979.089780932C453.537457823 979.051825171 454.198046145 978.80871338 454.673421956 978.413927427C455.148797767 978.019141475 455.400020714 977.505020204 455.371824568 976.984664528C455.343628619 976.464309067 455.038323486 975.980343978 454.523072821 975.639236068C454.007822158 975.298128157 453.324832619 975.127819213 452.624354127 975.165775265C452.624354127 975.165775265 452.624354127 975.165775265 452.624354127 975.165775265M501.988160042 974.974247169C500.529537288 975.054138341 499.395200687 975.997292206 499.454547971 977.080840583C499.483047369 977.601179111 499.788634491 978.084965571 500.304083637 978.425772431C500.819532782 978.766579291 501.502621026 978.936489417 502.203076703 978.898124508C502.903532606 978.859759639 503.563978231 978.616262256 504.039122948 978.221199055C504.514267664 977.826135853 504.765190051 977.311868384 504.736689995 976.791529726C504.708190138 976.271191283 504.402602644 975.787405031 503.887153283 975.446598437C503.371703922 975.105791842 502.688615626 974.935882009 501.988160041 974.974247169C501.988160041 974.974247169 501.988160041 974.974247169 501.988160041 974.974247169M551.254242361 974.635892641C549.796665858 974.732995619 548.673542439 975.689472353 548.745675637 976.772243521C548.78031505 977.292208821 549.091591122 977.77235392 549.611026646 978.107052344C550.130462169 978.441750768 550.815507678 978.603585754 551.51546093 978.556955441C552.215414408 978.510325164 552.872939073 978.259049169 553.343386872 977.858405356C553.813834671 977.457761544 554.058668931 976.940568602 554.024028859 976.420603179C553.989388987 975.900637968 553.678112547 975.420493082 553.15867681 975.085794926C552.639241074 974.75109677 551.954195517 974.589262078 551.25424236 974.635892641C551.25424236 974.635892641 551.25424236 974.635892641 551.25424236 974.635892641M600.243076794 973.076583483C598.790704132 973.233326864 597.707714982 974.235017923 597.824152482 975.313923398C597.880067581 975.832032335 598.210755234 976.299019767 598.743467907 976.612153757C599.276180578 976.925287749 599.967281208 977.058917983 600.664735494 976.983647325C601.362190008 976.908376694 602.00886632 976.63037082 602.462502893 976.210787878C602.916139467 975.791204936 603.139576717 975.264415011 603.083660954 974.746305979C603.0277454 974.228197151 602.697057388 973.761209947 602.164344513 973.448076232C601.63163164 973.134942518 600.940530974 973.001312579 600.243076793 973.076583483C600.243076793 973.076583483 600.243076793 973.076583483 600.243076793 973.076583483M648.614654461 968.692858412C647.182691342 968.981568603 646.365249456 970.006279913 646.554694236 971.074771375C646.645668685 971.587879336 647.007305433 972.031322366 647.560048496 972.30754803C648.112791558 972.583773694 648.703667071 972.683661471 649.391320362 972.545018084C650.078973883 972.406374704 650.69754939 972.070483926 651.110967208 971.611237955C651.524385026 971.151991984 651.698780085 970.607009898 651.595787428 970.096181644C651.492794998 969.585353573 651.120851692 969.150523642 650.561780803 968.887349481C650.002709915 968.62417532 649.302307624 968.55421479 648.61465446 968.692858412C648.61465446 968.692858412 648.61465446 968.692858412 648.61465446 968.692858412M695.110097262 958.269521984C693.759127111 958.825172162 693.166927958 960.003374366 693.554786481 961.016843958C693.741042623 961.503529508 694.179928972 961.870679713 694.774895508 962.037525694C695.369862044 962.204371677 695.956105968 962.170633126 696.604865084 961.903800567C697.253624428 961.636967972 697.797070251 961.189615907 698.115650568 960.660156811C698.434230884 960.130697715 698.343504928 959.610277094 698.132594466 959.133761636C697.921684266 958.657246307 697.657593023 958.242434077 697.05868939 958.090333666C696.459785758 957.938233255 695.758856208 958.00268922 695.110097261 958.269521985C695.110097261 958.269521985 695.110097261 958.269521985 695.110097261 958.269521985M731.159231873 934.630208904C730.417620868 935.888509065 730.733653625 936.904222861 731.633172139 937.510956266C732.065136255 937.802320209 732.635217262 937.850754495 733.218003804 937.64560413C733.800790346 937.440453767 734.188081611 937.2294928 734.544216111 936.625235582C734.900350769 936.020978198 735.063583332 935.336374635 734.998004465 934.722029999C734.932425599 934.107685364 734.423333816 933.93581499 733.958813695 933.699810728C733.494293858 933.463806401 733.173687353 933.071128956 732.604458518 933.311333446C732.035229684 933.551537935 731.515366113 934.025951624 731.159231872 934.630208904C731.159231872 934.630208904 731.159231872 934.630208904 731.159231872 934.630208904M738.554669082 891.494653032C738.595523623 892.954705517 739.507893034 894.11370918 740.592503485 894.083360538C741.113352033 894.068786785 741.60507447 893.77628221 741.959497437 893.270194501C742.313920405 892.764106794 742.502011408 892.085892036 742.482392559 891.384749783C742.462773756 890.683607306 742.237052042 890.016971281 741.854883664 889.531494159C741.472715286 889.046017036 740.965405518 888.781466615 740.444556822 888.796041021C739.923708345 888.810615235 739.431986107 889.103120187 739.077563399 889.609208118C738.723140692 890.115296049 738.53504998 890.793510866 738.554669082 891.494653033C738.554669082 891.494653033 738.554669082 891.494653033 738.554669082 891.494653033"
           id="path19106" />
        <path
           style="opacity:1;fill:#004400;fill-opacity:1;fill-rule:nonzero;stroke:none;stroke-width:0;stroke-miterlimit:4;stroke-dasharray:none;stroke-dashoffset:0;stroke-opacity:1"
           d="M252.253796534 1005.79650912C251.920237129 1006.22054657 251.317224817 1007.08735944 251.326878707 1007.5624888C251.336532598 1008.03761816 251.525385743 1008.43510735 251.851892593 1008.66751326C252.178399435 1008.89991923 252.615814256 1008.94820442 253.067910749 1008.80174663C253.520007241 1008.65528884 254.295649651 1008.08911006 254.629208914 1007.66507246C255.323809738 1006.78206018 255.355140868 1005.64794554 254.699188957 1005.13195623C254.043237147 1004.61596687 252.948397818 1004.91349729 252.253796534 1005.79650912C252.253796534 1005.79650912 252.253796534 1005.79650912 252.253796534 1005.79650912M301.574835546 984.254034827C301.099607786 984.509471604 300.719223219 984.894685555 300.51736213 985.324933986C300.315501041 985.755182416 300.308698849 986.1952216 300.498451955 986.548247912C300.688205032 986.901274265 301.058969844 987.138369655 301.529182333 987.207375782C301.999394822 987.276381908 302.530537611 987.171646146 303.005765299 986.916209175C303.995375255 986.384289357 304.477288013 985.357135506 304.082147686 984.62199659C303.687007469 983.886857675 302.564445742 983.722115605 301.574835546 984.254034827C301.574835546 984.254034827 301.574835546 984.254034827 301.574835546 984.254034827M351.816725452 976.123566189C351.311730185 976.31354867 350.883481817 976.644773521 350.626190128 977.044375035C350.36889844 977.443976548 350.303639436 977.879221437 350.444769354 978.254360764C350.585899237 978.629500129 350.921857439 978.913804462 351.378736961 979.044730031C351.835616484 979.175655598 352.375992117 979.142477655 352.88098734 978.952494973C353.932584962 978.556876588 354.54683 977.602887614 354.252942178 976.821700732C353.959054465 976.040513865 352.868323235 975.727948427 351.816725452 976.123566189C351.816725452 976.123566189 351.816725452 976.123566189 351.816725452 976.123566189M401.91821171 972.926098154C401.400922032 973.079482242 400.950082655 973.37923574 400.664873122 973.759416283C400.379663591 974.139596825 400.283446795 974.56906199 400.397389336 974.953334313C400.511331839 975.337606671 400.826100126 975.645208592 401.272448737 975.808471138C401.718797348 975.971733683 402.260163712 975.977283229 402.77745336 975.823898937C403.854652794 975.50449272 404.535547517 974.596868383 404.298274454 973.796663022C404.061001498 972.996457684 402.995411259 972.60669257 401.91821171 972.926098154C401.91821171 972.926098154 401.91821171 972.926098154 401.91821171 972.926098154M451.568332921 971.965556868C451.047396521 972.106073843 450.589262711 972.394563377 450.294715728 972.767561046C450.000168746 973.140558714 449.893336356 973.56751048 449.997720472 973.954491798C450.102104548 974.341473151 450.409154552 974.656784555 450.851322959 974.831061073C451.293491367 975.005337589 451.834558028 975.024303389 452.355494403 974.883786208C453.440287752 974.591174351 454.143474247 973.700698042 453.926105567 972.89485149C453.708736993 972.089004963 452.65312637 971.672945646 451.568332921 971.965556868C451.568332921 971.965556868 451.568332921 971.965556868 451.568332921 971.965556868M500.93027071 971.774648962C500.409416935 971.915470067 499.951452113 972.204226891 499.657123307 972.577396211C499.362794502 972.95056553 499.256211607 973.377579247 499.360821647 973.764499187C499.465431648 974.151419162 499.7726655 974.466550887 500.214935237 974.640568951C500.657204973 974.814587015 501.198282141 974.833236759 501.719135892 974.692415449C502.803757185 974.399170276 503.506422814 973.508284176 503.28858367 972.702565437C503.070744633 971.896846723 502.014892103 971.481404424 500.93027071 971.774648962C500.93027071 971.774648962 500.93027071 971.774648962 500.93027071 971.774648962M550.158660106 971.449008096C549.63950543 971.59596735 549.184981478 971.890109517 548.89507836 972.266726662C548.605175243 972.643343805 548.503640324 973.071585399 548.612810131 973.45724315C548.7219799 973.842900936 549.032911799 974.154383797 549.477204332 974.323169033C549.921496864 974.491954267 550.462755883 974.504215862 550.981910531 974.357256404C552.062993627 974.051229204 552.755093586 973.152111944 552.527759222 972.349021578C552.300424966 971.545931236 551.239743309 971.142981531 550.158660106 971.449008096C550.158660106 971.449008096 550.158660106 971.449008096 550.158660106 971.449008096M599.017837606 969.937267579C598.505140751 970.105374892 598.063050894 970.417893255 597.788822785 970.806072176C597.514594677 971.194251095 597.430691666 971.626292965 597.55557146 972.007153474C597.680451217 972.38801402 598.003884303 972.686495088 598.454719101 972.836934224C598.905553899 972.987373359 599.446860354 972.977447366 599.959557173 972.80933985C601.027192538 972.459274118 601.681870751 971.532554862 601.421822046 970.739454234C601.16177345 969.946353626 600.085473104 969.587202477 599.017837606 969.937267579C599.017837606 969.937267579 599.017837606 969.937267579 599.017837606 969.937267579M647.380432325 965.629529407C646.880343809 965.832067925 646.460506497 966.173886573 646.213279833 966.57978913C645.96605317 966.985691686 645.911688684 967.422428715 646.062145943 967.793923024C646.212603168 968.165417372 646.555557487 968.441238112 647.015562836 968.560707805C647.475568184 968.680177497 647.812727457 968.666845658 648.307921324 968.452626396C649.339108683 968.006537971 649.906414644 967.023926104 649.575034788 966.257901127C649.243655043 965.491876159 648.421812333 965.207765063 647.380432325 965.629529407C647.380432325 965.629529407 647.380432325 965.629529407 647.380432325 965.629529407M693.057821736 955.596655429C692.612378861 955.901100597 692.536578693 956.221990152 692.37047325 956.667282487C692.204367806 957.112574822 692.233476316 957.551717201 692.451395235 957.888103284C692.669314127 958.224489411 693.058192668 958.430564232 693.532481982 958.460993619C694.006771296 958.491423005 694.317848393 958.396423371 694.763291178 958.091978018C695.690877297 957.458003575 696.061052041 956.385469151 695.590099697 955.696405073C695.119147463 955.007340984 693.985408159 954.962681553 693.057821736 955.596655429C693.057821736 955.596655429 693.057821736 955.596655429 693.057821736 955.596655429M728.294367805 933.131795442C728.092224442 933.631968609 728.045960895 934.171308285 728.165754619 934.631165865C728.285548343 935.091023444 728.561586457 935.433729773 728.933143707 935.583893348C729.30470096 935.734056975 729.741341325 935.679377207 730.147008865 935.431882973C730.552676404 935.184388738 730.604258272 935.209516421 730.775613376 934.697982353C731.132441652 933.632768224 730.780231254 932.554357985 729.988929346 932.289285408C729.19762752 932.024212757 728.715309482 932.090239238 728.294367805 933.131795442C728.294367805 933.131795442 728.294367805 933.131795442 728.294367805 933.131795442M735.328336209 892.466485224C735.455163508 892.99085182 735.731536305 893.456315144 736.096655722 893.760478547C736.461775139 894.06464195 736.885732484 894.182589939 737.27526195 894.088375298C737.664791449 893.994160696 737.987984839 893.695501011 738.173743234 893.25809799C738.359501627 892.820694969 738.392608659 892.280378407 738.265781154 891.75601183C738.001676559 890.664075455 737.130008388 889.937931191 736.318855591 890.134123047C735.507702823 890.330314796 735.064232251 891.374548767 735.328336209 892.466485224C735.328336209 892.466485224 735.328336209 892.466485224 735.328336209 892.466485224"
           id="path19108" />
        <path
           style="opacity:1;fill:#004400;fill-opacity:1;fill-rule:nonzero;stroke:none;stroke-width:0;stroke-miterlimit:4;stroke-dasharray:none;stroke-dashoffset:0;stroke-opacity:1"
           d="M248.939879076 1005.14119731C248.525146052 1006.13317918 248.786314444 1007.18709365 249.523215077 1007.49518147C249.87708749 1007.64313045 250.295583024 1007.59578381 250.686637375 1007.36355725C251.077691727 1007.1313307 251.834382762 1006.3763505 252.056144263 1005.91006865C252.277905904 1005.44378688 252.352985499 1004.93116116 252.264866386 1004.48496338C252.176747272 1004.0387656 251.932647713 1003.69554599 251.586266863 1003.53080899C250.864966435 1003.18776233 249.354611805 1004.14921532 248.939879076 1005.14119731C248.939879076 1005.14119731 248.939879076 1005.14119731 248.939879076 1005.14119731M299.450133186 982.096545555C298.63879102 982.802137765 298.048972784 983.973311259 298.590360984 984.560633199C298.850344991 984.842675249 299.578015286 984.897846722 300.031502908 984.862911955C300.48499053 984.827977189 300.958643716 984.617994015 301.348264099 984.279156366C301.737884583 983.940318833 302.011556626 983.500382603 302.109075461 983.056128691C302.206594295 982.61187478 302.119971682 982.199694179 301.868263619 981.910261981C301.344108882 981.307551118 300.261475143 981.390953105 299.450133186 982.096545555C299.450133186 982.096545555 299.450133186 982.096545555 299.450133186 982.096545555M349.997709943 973.702602596C349.099709146 974.294064458 348.727916546 975.31431931 349.167287829 975.981405866C349.378281564 976.30175227 349.751941231 976.496147542 350.206065911 976.52182691C350.66019059 976.54750628 351.157580727 976.402366224 351.588816094 976.118335922C352.020051546 975.834305748 352.34980771 975.434651577 352.505541945 975.007292825C352.66127618 974.579934073 352.63023154 974.159877769 352.419237496 973.839531569C351.979865246 973.17244565 350.895710565 973.111140468 349.997709943 973.702602596C349.997709943 973.702602596 349.997709943 973.702602596 349.997709943 973.702602596M400.27697261 970.381246347C399.338972318 970.906979049 398.641977374 971.931168092 399.04617421 972.620128909C399.240276573 972.950979713 399.832063989 973.150072554 400.283191033 973.208161035C400.734318077 973.266249516 401.240815359 973.157049335 401.691259181 972.904583302C402.141703079 972.652117403 402.499195546 972.277066324 402.685092266 971.861937078C402.870988987 971.446807832 402.870062259 971.025605671 402.682515953 970.690990324C402.291971053 969.994190452 401.214972746 969.855513367 400.27697261 970.381246347C400.27697261 970.381246347 400.27697261 970.381246347 400.27697261 970.381246347M449.990660284 969.380788759C449.039910523 969.883115389 448.571678787 970.86287751 448.944835304 971.569148973C449.124031572 971.908312652 449.477258802 972.137758429 449.926810979 972.20701082C450.376363157 972.276263211 450.885415283 972.179649415 451.341981623 971.938423379C451.798548036 971.697197478 452.165229167 971.33111929 452.3613593 970.92072189C452.557489432 970.510324491 452.567002594 970.089225524 452.387805998 969.750062018C452.014648458 969.043791096 450.941409896 968.878461847 449.990660284 969.380788759C449.990660284 969.380788759 449.990660284 969.380788759 449.990660284 969.380788759M499.35108998 969.190805091C498.400634628 969.693686522 497.932975662 970.673721103 498.306544316 971.379773862C498.485938501 971.718832515 498.839299376 971.948071733 499.28889153 972.017061468C499.738483684 972.086051204 500.247478842 971.989140174 500.703903802 971.747647713C501.160328835 971.506155387 501.526795755 971.139863407 501.722685968 970.729351881C501.918576182 970.318840355 501.927843372 969.897736275 501.74844886 969.558677795C501.374879182 968.852625578 500.301545183 968.687923378 499.35108998 969.190805091C499.35108998 969.190805091 499.35108998 969.190805091 499.35108998 969.190805091M548.549091655 968.883987592C547.604639533 969.39805253 547.148581907 970.383537964 547.530458313 971.085131185C547.713842022 971.422048291 548.069883811 971.647100243 548.520258498 971.710778148C548.970633185 971.774456054 549.478448393 971.671543746 549.931990497 971.424680773C550.385532675 971.177817935 550.747649981 970.807226132 550.938680688 970.394431385C551.129711396 969.981636638 551.134007253 969.560452969 550.950623219 969.223536041C550.568745797 968.521943374 549.493543623 968.369922374 548.549091655 968.883987592C548.549091655 968.883987592 548.549091655 968.883987592 548.549091655 968.883987592M597.304524214 967.440352815C596.381929013 967.992683165 596.11882984 968.975903975 596.520975084 969.666080053C596.714092237 969.997514448 596.938933599 970.220777711 597.391538823 970.265948659C597.844144047 970.311119608 598.347315724 970.187486834 598.790361752 969.922248154C599.233407861 969.657009607 599.580036336 969.271892093 599.75399282 968.85161713C599.927949305 968.431342166 599.914984178 968.010336514 599.717949621 967.681216675C599.307646479 966.995860601 598.227119252 966.888022191 597.304524214 967.440352815C597.304524214 967.440352815 597.304524214 967.440352815 597.304524214 967.440352815M645.501511232 963.254779477C644.618572229 963.868488382 644.2723869 964.897707747 644.728284564 965.553605551C644.947214551 965.868578922 645.325612149 966.053577254 645.780234148 966.067902999C646.234856147 966.082228744 646.728462253 965.92470841 647.152464683 965.629994697C647.576467202 965.33528111 647.606968243 964.964683477 647.741816745 964.530287634C647.876665247 964.095891791 647.825310023 963.677837245 647.599048645 963.368091288C647.127883842 962.723079226 646.384450052 962.64107031 645.501511232 963.254779477C645.501511232 963.254779477 645.501511232 963.254779477 645.501511232 963.254779477M691.043467224 953.536583608C690.292347423 954.306018869 690.146801814 955.382097289 690.718381969 955.940072325C690.992864669 956.208021482 691.399393116 956.318214354 691.84853563 956.24640975C692.297678144 956.174605147 692.483726417 956.023975994 692.835190306 955.645685683C693.186654308 955.267395477 693.412090215 954.800882391 693.461904668 954.348774049C693.511719121 953.896665707 693.381831577 953.495996496 693.100815832 953.234909132C692.515631058 952.69122331 691.794586796 952.767148125 691.043467224 953.536583608C691.043467224 953.536583608 691.043467224 953.536583608 691.043467224 953.536583608M725.28157983 932.830929438C725.108723411 933.892080573 726.052649005 934.241360091 726.832033892 934.415867246C727.20630796 934.499668497 727.17047478 934.90318734 727.496844155 934.586460408C727.823213529 934.269733476 728.053199632 933.805517307 728.136208111 933.295934229C728.219216741 932.786351175 727.712197936 932.889886387 727.479048612 932.499411794C727.245899289 932.108937202 726.900540731 931.86792394 726.518947933 931.829392214C725.724322524 931.749154288 725.454435935 931.769778252 725.28157983 932.830929438C725.28157983 932.830929438 725.28157983 932.830929438 725.28157983 932.830929438M732.703522207 893.975819306C733.180748636 894.939259567 734.147805296 895.432894443 734.863503976 895.078383796C735.207194769 894.908141594 735.445770498 894.561080785 735.52674719 894.113550839C735.607723882 893.666020893 735.524468344 893.154681158 735.295295855 892.692020618C735.066123504 892.229360008 734.709806791 891.853277293 734.30473138 891.646506432C733.899655969 891.439735571 733.479003552 891.419214169 733.135312924 891.589456703C732.419614757 891.943968388 732.226295492 893.012379187 732.703522207 893.975819306C732.703522207 893.975819306 732.703522207 893.975819306 732.703522207 893.975819306"
           id="path19110" />
        <path
           style="opacity:1;fill:#004400;fill-opacity:1;fill-rule:nonzero;stroke:none;stroke-width:0;stroke-miterlimit:4;stroke-dasharray:none;stroke-dashoffset:0;stroke-opacity:1"
           d="M245.369827189 1005.25653477C245.20398993 1005.72184037 245.182256119 1006.21702664 245.309406949 1006.63315819C245.436557779 1007.04928974 245.70217771 1007.35227923 246.04783336 1007.47547239C246.767623462 1007.73200888 248.163470668 1006.7085339 248.557579297 1005.75836401C248.95168773 1004.80819404 248.698979183 1003.80059515 247.993138855 1003.50782847C247.654182193 1003.36723678 247.253925892 1003.41366307 246.880421815 1003.63689409C246.506917737 1003.86012512 245.535664545 1004.79122921 245.369827189 1005.25653477C245.369827189 1005.25653477 245.369827189 1005.25653477 245.369827189 1005.25653477M296.555357043 980.549656424C296.193060549 980.885512962 295.944713693 981.314526976 295.864949977 981.742320232C295.785186261 982.170113489 295.880539517 982.561643371 296.130033107 982.83077773C296.649576137 983.391220793 298.059612504 983.15771662 298.833938452 982.48047232C299.608264259 981.803227862 299.828139789 980.787910234 299.325044286 980.212696504C299.083449219 979.936468892 298.704034462 979.800749725 298.270266972 979.835395686C297.836499481 979.870041648 296.917653606 980.213799962 296.555357042 980.549656424C296.555357042 980.549656424 296.555357042 980.549656424 296.555357042 980.549656424M347.807143877 971.694298393C347.395337457 971.967199691 347.080930453 972.350447277 346.933088852 972.759731014C346.78524725 973.16901475 346.816081474 973.570808225 347.018808341 973.876721415C347.440964756 974.513752354 348.478364982 974.569480314 349.335907027 974.001193319C350.193448954 973.432906148 350.54639905 972.455802745 350.124243279 971.818771379C349.921516875 971.512857882 349.563504057 971.327883376 349.128963598 971.304540162C348.694423139 971.281196947 348.218950353 971.42139718 347.807143876 971.694298393C347.807143876 971.694298393 347.807143876 971.694298393 347.807143876 971.694298393M397.910104211 968.268310263C397.484707876 968.519495388 397.150859146 968.885926608 396.982000967 969.286993198C396.813142789 969.688059787 396.823107153 970.090908441 397.009702014 970.406917006C397.398265279 971.064970454 398.43137416 971.17439983 399.317215711 970.651334403C400.203057153 970.128268793 400.913418156 969.176871957 400.537896486 968.511280945C400.357564585 968.19165262 399.683084094 967.993436831 399.250341181 967.947599465C398.817598267 967.901762099 398.335500598 968.017125227 397.91010421 968.268310263C397.91010421 968.268310263 397.91010421 968.268310263 397.91010421 968.268310263M448.003454316 967.171022777C447.567297732 967.4030406 447.217473216 967.754264901 447.030938206 968.147430302C446.844403197 968.540595703 446.83643768 968.943496125 447.008793979 969.267498026C447.367706992 969.942196718 448.394944086 970.097476256 449.303192672 969.614324647C450.211441157 969.13117285 450.656765948 968.192549598 450.297853617 967.517850544C450.125497808 967.193848381 449.786938625 966.975285167 449.356655262 966.91024234C448.926371897 966.845199513 448.439610946 966.939005044 448.003454315 967.171022777C448.003454315 967.171022777 448.003454315 967.171022777 448.003454315 967.171022777M497.362595388 966.982202157C496.926574785 967.214474494 496.576955786 967.565902756 496.390650619 967.959176698C496.204345453 968.35245064 496.196615278 968.755355289 496.369160644 969.079256176C496.728467368 969.753744517 497.755794078 969.908423886 498.6637595 969.42474228C499.571724821 968.941060487 500.016500895 968.002178111 499.657194853 967.327689407C499.484649977 967.003788258 499.145963488 966.785423026 498.715642587 966.720631595C498.285321684 966.655840163 497.798616038 966.749929911 497.362595387 966.982202157C497.362595387 966.982202157 497.362595387 966.982202157 497.362595387 966.982202157M546.534667619 966.699012977C546.101419595 966.936415627 545.755973567 967.291945893 545.574323758 967.687391134C545.392673948 968.082836375 545.389700172 968.485803759 545.566056627 968.807645014C545.933299527 969.477844396 546.962379359 969.620386341 547.86457119 969.126021417C548.766762917 968.631656307 549.200425028 967.687590273 548.833182805 967.017390519C548.656826838 966.695548997 548.315586752 966.481197045 547.88453151 966.42148967C547.453476268 966.361782295 546.967915692 966.461610417 546.534667618 966.699012977C546.534667618 966.699012977 546.534667618 966.699012977 546.534667618 966.699012977M595.397881774 965.310815322C594.971730258 965.560733719 594.636783466 965.926172947 594.466725908 966.326740506C594.29666835 966.727308065 594.305430263 967.130191529 594.491084126 967.446761086C594.877687867 968.105982739 595.910483069 968.21849751 596.797897203 967.698069905C597.685311227 967.177642118 597.906289501 966.218273734 597.511895534 965.563684531C597.32250083 965.249339461 597.171704494 965.041231103 596.739092973 964.994101344C596.306481451 964.946971585 595.824033342 965.060897014 595.397881773 965.310815322C595.397881773 965.310815322 595.397881773 965.310815322 595.397881773 965.310815322M643.261467123 961.301840378C642.856609431 961.584943226 642.551877019 961.97592397 642.414307573 962.388771265C642.276738127 962.801618561 642.317600627 963.202514088 642.527905784 963.503265361C642.965843164 964.129547175 644.004306165 964.159339903 644.847378247 963.569809291C645.690450206 962.980278507 646.018877076 961.994667631 645.580940329 961.368385374C645.370635627 961.067633782 645.008115269 960.891662315 644.573129636 960.879182707C644.138144002 960.866703099 643.666324873 961.018737615 643.261467122 961.301840378C643.261467122 961.301840378 643.261467122 961.301840378 643.261467122 961.301840378M688.474869172 952.041923389C688.130775506 952.396401547 688.258195926 952.729790803 688.191161207 953.15976102C688.124126488 953.589731237 688.231055025 953.978258049 688.488423747 954.239869947C689.024365885 954.78464831 689.744079396 954.70766081 690.460617056 953.969498878C691.177154561 953.231336799 691.313498549 952.201436051 690.765149933 951.669150743C690.501823536 951.413538094 690.112591522 951.309210547 689.683080535 951.379118984C689.253569547 951.449027421 688.81896291 951.687445302 688.474869171 952.041923389C688.474869171 952.041923389 688.474869171 952.041923389 688.474869171 952.041923389M722.875713404 932.2776906C722.769145415 932.760020835 722.809277307 933.254044154 722.987280517 933.65108101C723.165283728 934.048117866 723.466577153 934.315645049 723.824879644 934.394809601C724.571005436 934.559661332 724.890659188 934.535700037 725.053172494 933.520006788C725.215685589 932.504313507 724.735773474 931.583065212 723.981258583 931.462340745C723.618927537 931.404366684 723.240434624 931.542526422 722.92904401 931.846426378C722.617653395 932.150326336 722.982281493 931.795360389 722.875713403 932.277690601C722.875713403 932.277690601 722.875713403 932.277690601 722.875713403 932.277690601M730.44282398 895.904301561C730.663326343 896.346321113 731.005236982 896.705166667 731.393339422 896.901896255C731.781441863 897.098625843 732.183944754 897.117124393 732.51230201 896.953322432C733.196070246 896.612222899 733.378141476 895.58952914 732.918969559 894.669071565C732.459797452 893.748614087 731.533261271 893.278951274 730.849492691 893.620050116C730.521135187 893.78385158 730.293820514 894.116535835 730.217555333 894.544916106C730.141290151 894.973296378 730.222321709 895.462281963 730.44282398 895.904301562C730.44282398 895.904301562 730.44282398 895.904301562 730.44282398 895.904301562"
           id="path19112" />
        <path
           style="opacity:1;fill:#004400;fill-opacity:1;fill-rule:nonzero;stroke:none;stroke-width:0;stroke-miterlimit:4;stroke-dasharray:none;stroke-dashoffset:0;stroke-opacity:1"
           d="M242.629138178 1006.55571976C242.463982439 1007.46958307 242.298563195 1008.94470099 242.983025275 1009.03081919C243.311715806 1009.07217453 244.229463363 1008.37364765 244.516064897 1008.1049921C244.80266643 1007.83633654 245.008233786 1007.43886239 245.087544476 1007.00000945C245.166855115 1006.5611565 245.113412362 1006.11687336 244.938973019 1005.76489728C244.764533676 1005.4129212 244.48338691 1005.18208424 244.157381827 1005.12316792C243.478511833 1005.00048134 242.794294019 1005.64185648 242.629138177 1006.55571977C242.629138177 1006.55571977 242.629138178 1006.55571976 242.629138178 1006.55571976M293.524251989 980.433749605C292.955054352 981.167645339 292.615899436 982.216559305 293.169865545 982.627810275C293.435889703 982.825300014 294.102232708 982.785976679 294.480636135 982.680350654C294.859039561 982.574724629 295.225184426 982.317391768 295.498523007 981.964962386C295.771861546 981.612532973 295.930003303 981.193876255 295.938158881 980.801091968C295.94631446 980.40830768 295.803815797 980.07357068 295.542010986 979.870519318C294.996830949 979.447687213 294.093449705 979.699853938 293.524251985 980.433749608C293.524251985 980.433749608 293.524251987 980.433749606 293.524251987 980.433749606M344.488160993 971.146828932C343.820663211 971.792609384 343.668441083 972.71808811 344.148163264 973.213944053C344.378534218 973.452062573 344.726805441 973.557235716 345.116361208 973.506326582C345.505916973 973.455417449 346.208804941 973.223868857 346.535500215 972.920238007C346.862195453 972.616607121 347.085908946 972.229004763 347.157426262 971.842699062C347.228943578 971.456393361 347.142406387 971.103028482 346.916851891 970.860340696C346.447159149 970.354970048 345.155658843 970.501048557 344.488160989 971.146828934C344.488160989 971.146828934 344.488160991 971.146828933 344.488160991 971.146828933M394.97289137 967.510864429C394.260727948 968.107021989 394.042414029 969.01917125 394.485273459 969.54820735C394.697942288 969.802259561 395.037757083 969.932180136 395.429962439 969.909388022C395.822167794 969.886595908 396.234636276 969.712958115 396.57662949 969.426672992C396.91862267 969.14038783 397.162126246 968.764906354 397.25357219 968.382830236C397.345018135 968.000754118 397.276915669 967.643381057 397.064246563 967.389329079C396.621386231 966.860293735 395.685054855 966.914706952 394.972891366 967.510864431C394.972891366 967.510864431 394.972891368 967.51086443 394.972891368 967.51086443M444.912368343 966.297540001C444.18056418 966.869442163 443.931721585 967.773756277 444.356562706 968.317382625C444.560578834 968.578441327 444.895842097 968.719708524 445.288598375 968.710107032C445.681354651 968.70050554 446.2653513 968.539735726 446.61974719 968.268941934C446.974143048 967.998148102 447.234112796 967.633863455 447.342466033 967.256226488C447.450819271 966.878589521 447.398680261 966.518534301 447.197518996 966.255268899C446.77862248 965.7070476 445.644172565 965.725637923 444.912368339 966.297540003C444.912368339 966.297540003 444.912368341 966.297540002 444.912368341 966.297540002M494.461415634 966.096529512C493.723755139 966.660858534 493.465604469 967.562560112 493.884819824 968.110536873C494.086134362 968.37368472 494.419923872 968.518400191 494.812758442 968.512847521C495.205593011 968.507294851 495.625293664 968.351928885 495.979531011 968.080928377C496.333768326 967.809927829 496.593525022 967.445491718 496.701657568 967.06779186C496.809790115 966.690092002 496.757440854 966.330067616 496.556126028 966.066919989C496.136909739 965.518943943 495.199076188 965.532200576 494.46141563 966.096529514C494.46141563 966.096529514 494.461415632 966.096529513 494.461415632 966.096529513M543.623238768 965.847648289C542.892291768 966.420644657 542.644802975 967.325329613 543.070456935 967.868319213C543.274863401 968.129072138 543.6103375 968.269837344 544.003078727 968.259648081C544.395819953 968.249458818 544.813656978 968.089149736 545.16467039 967.813987018C545.515683769 967.538824261 545.771120309 967.171347794 545.874786866 966.792398277C545.978453424 966.41344876 545.921858169 966.054067778 545.717451418 965.793315076C545.291796532 965.250326203 544.354185829 965.274652006 543.623238764 965.847648291C543.623238764 965.847648291 543.623238766 965.84764829 543.623238766 965.84764829M592.462893121 964.54459185C591.748941107 965.138630967 591.527901512 966.050139989 591.96918724 966.580504756C592.18110035 966.835195016 592.520531582 966.966131633 592.912809907 966.944510037C593.305088231 966.922888441 593.718080239 966.750479759 594.060932365 966.465211948C594.403784458 966.179944099 594.648411976 965.805184806 594.740999637 965.423376867C594.833587298 965.041568929 594.766550799 964.683988076 594.554637411 964.429298048C594.113350779 963.898934035 593.176845198 963.950552816 592.462893117 964.544591852C592.462893117 964.544591852 592.462893119 964.544591851 592.462893119 964.544591851M640.274766465 960.772124415C639.610471709 961.421197956 639.462829258 962.347417381 639.944997735 962.840893936C640.176543443 963.077869832 640.525330277 963.181318943 640.914629085 963.128483635C641.303927892 963.075648327 641.701849328 962.870856595 642.020855184 962.559160301C642.339861004 962.247463971 642.553819914 961.854395648 642.615663379 961.466425912C642.677506845 961.078456175 642.582168968 960.727365499 642.350623003 960.490389856C641.868453684 959.996914125 640.939061291 960.123050952 640.274766462 960.772124417C640.274766462 960.772124417 640.274766463 960.772124416 640.274766463 960.772124416M685.812673497 951.921224876C685.265504781 952.671684379 685.273866841 953.609559563 685.831350685 954.016028269C686.09906412 954.211221482 686.460193732 954.255258257 686.835295096 954.138451001C687.210396458 954.021643747 687.56874321 953.753560707 687.831503123 953.393177115C688.094262995 953.032793495 687.88433389 952.718195652 687.871781232 952.325529827C687.859228576 951.932864003 687.69929061 951.606102824 687.427151877 951.417130051C686.860452586 951.023615077 686.359842295 951.170765439 685.812673494 951.921224879C685.812673494 951.921224879 685.812673496 951.921224878 685.812673496 951.921224878M720.932154727 933.132935547C720.829924698 934.055946345 721.302892063 934.865757971 721.988557173 934.941700904C722.317825418 934.978169911 722.653109724 934.837066528 722.920651341 934.549431903C723.188192958 934.261797278 722.788845167 934.488010654 722.812858717 934.042706745C722.836872215 933.597402836 722.72849348 933.163251072 722.511564604 932.835759925C722.29463573 932.508268777 721.986926406 932.314264626 721.6561292 932.296426188C720.967280161 932.259279802 721.034384859 932.209924765 720.932154726 933.132935551C720.932154726 933.132935551 720.932154726 933.132935549 720.932154726 933.132935549M729.480013808 898.780397118C730.024347389 899.532788427 730.918710418 899.814922127 731.477630056 899.410560538C731.746032864 899.216379033 731.899602509 898.886620274 731.90455541 898.493827454C731.90950831 898.101034635 731.765438748 897.677383311 731.504040397 897.316071973C731.242642006 896.954760667 730.885327243 896.685386126 730.510701312 896.567207699C730.13607538 896.449029271 729.774825696 896.491727521 729.506423101 896.685909319C728.947504153 897.090271861 728.935680314 898.028005752 729.48001381 898.780397122C729.48001381 898.780397122 729.480013809 898.78039712 729.480013809 898.78039712"
           id="path19114" />
      </g>
    </g>
  </g>
</svg>
