<?xml version="1.0" encoding="UTF-8" standalone="no"?>
<!-- Created with Inkscape (http://www.inkscape.org/) -->

<svg
   xmlns:dc="http://purl.org/dc/elements/1.1/"
   xmlns:cc="http://creativecommons.org/ns#"
   xmlns:rdf="http://www.w3.org/1999/02/22-rdf-syntax-ns#"
   xmlns:svg="http://www.w3.org/2000/svg"
   xmlns="http://www.w3.org/2000/svg"
   xmlns:sodipodi="http://sodipodi.sourceforge.net/DTD/sodipodi-0.dtd"
   xmlns:inkscape="http://www.inkscape.org/namespaces/inkscape"
   inkscape:export-ydpi="90"
   inkscape:export-xdpi="90"
   inkscape:export-filename="/home/markus/devel/psyhp/sites/marion/static/gfx/footsteps.png"
   sodipodi:docname="footsteps_banner.svg"
   width="630"
   height="120"
   viewBox="0 0 630 120"
   id="svg15555"
   version="1.1"
   inkscape:version="0.91 r13725">
  <sodipodi:namedview
     id="base"
     pagecolor="#ffffff"
     bordercolor="#666666"
     borderopacity="1.0"
     inkscape:pageopacity="0.0"
     inkscape:pageshadow="2"
     inkscape:zoom="1"
     inkscape:cx="256.19143"
     inkscape:cy="87.069149"
     inkscape:document-units="px"
     inkscape:current-layer="layer1"
     showgrid="false"
     units="px"
     inkscape:window-width="1920"
     inkscape:window-height="1016"
     inkscape:window-x="0"
     inkscape:window-y="27"
     inkscape:window-maximized="1" />
  <defs
     id="defs15557">
    <filter
       id="filter17229"
       inkscape:label="Drop Shadow"
       style="color-interpolation-filters:sRGB">
      <feFlood
         id="feFlood17231"
         result="flood"
         flood-color="rgb(0,0,0)"
         flood-opacity="0.847059" />
      <feComposite
         id="feComposite17233"
         result="composite1"
         operator="in"
         in2="SourceGraphic"
         in="flood" />
      <feGaussianBlur
         id="feGaussianBlur17235"
         result="blur"
         stdDeviation="4.2"
         in="composite1" />
      <feOffset
         id="feOffset17237"
         result="offset"
         dy="2.4"
         dx="2.4" />
      <feComposite
         id="feComposite17239"
         result="composite2"
         operator="over"
         in2="offset"
         in="SourceGraphic" />
    </filter>
    <filter
       id="filter17241"
       inkscape:label="Drop Shadow"
       style="color-interpolation-filters:sRGB">
      <feFlood
         id="feFlood17243"
         result="flood"
         flood-color="rgb(0,0,0)"
         flood-opacity="0.847059" />
      <feComposite
         id="feComposite17245"
         result="composite1"
         operator="in"
         in2="SourceGraphic"
         in="flood" />
      <feGaussianBlur
         id="feGaussianBlur17247"
         result="blur"
         stdDeviation="4.2"
         in="composite1" />
      <feOffset
         id="feOffset17249"
         result="offset"
         dy="2.4"
         dx="2.4" />
      <feComposite
         id="feComposite17251"
         result="composite2"
         operator="over"
         in2="offset"
         in="SourceGraphic" />
    </filter>
    <filter
       id="filter17930"
       inkscape:label="Drop Shadow"
       style="color-interpolation-filters:sRGB">
      <feFlood
         id="feFlood17932"
         result="flood"
         flood-color="rgb(0,0,0)"
         flood-opacity="0.847059" />
      <feComposite
         id="feComposite17934"
         result="composite1"
         operator="in"
         in2="SourceGraphic"
         in="flood" />
      <feGaussianBlur
         id="feGaussianBlur17936"
         result="blur"
         stdDeviation="4.2"
         in="composite1" />
      <feOffset
         id="feOffset17938"
         result="offset"
         dy="2.4"
         dx="2.4" />
      <feComposite
         id="feComposite17940"
         result="composite2"
         operator="over"
         in2="offset"
         in="SourceGraphic" />
    </filter>
  </defs>
  <metadata
     id="metadata15560">
    <rdf:RDF>
      <cc:Work
         rdf:about="">
        <dc:format>image/svg+xml</dc:format>
        <dc:type
           rdf:resource="http://purl.org/dc/dcmitype/StillImage" />
        <dc:title></dc:title>
      </cc:Work>
    </rdf:RDF>
  </metadata>
  <g
     style="display:inline"
     transform="translate(0,-932.36216)"
     id="layer1"
     inkscape:groupmode="layer"
     inkscape:label="Ebene 1">
    <g
       style="fill:#004400;fill-opacity:1;stroke:#000000;stroke-opacity:1"
       id="g3972"
       transform="translate(-184,0)">
      <g
         style="fill:#004400;fill-opacity:1;stroke:none;stroke-opacity:1"
         id="g19088">
        <path
           id="path19090"
           d="m 257.1881,1040.062 c 0.60072,-1.4418 -0.33469,-2.0269 -1.17555,-3.343 -1.05076,-1.6446 -3.29484,-3.1288 -5.19766,-2.6952 -3.55051,0.809 -2.21984,5.4177 -4.59294,8.1804 -1.12229,1.3065 -3.70346,0.9245 -4.35452,2.5191 -0.66951,1.6398 -0.12935,4.0694 1.44359,4.8832 1.57243,0.8135 3.75871,0.1459 5.06266,-1.0516 1.06472,-0.9778 0.55004,-2.1903 1.3378,-3.4025 1.99658,-3.0725 6.06738,-1.708 7.47662,-5.0904 0,0 0,0 0,0 m 29.12042,-23.4359 c 1.43155,-0.6248 2.20425,-2.1361 2.37733,-3.6885 0.21629,-1.9399 -0.59663,-4.505 -2.34942,-5.3637 -3.27061,-1.6023 -6.34788,2.9939 -9.98981,2.9804 -1.72235,-0.01 -3.13774,-2.1805 -4.7886,-1.6894 -1.69764,0.505 -3.35097,2.387 -3.05425,4.1331 0.29662,1.7456 2.30205,3.0577 4.04972,3.3415 1.42702,0.2318 2.39927,-1.0386 3.83239,-1.2292 3.63222,-0.4829 6.56437,2.9817 9.92264,1.5158 0,0 0,0 0,0 m 44.33549,-11.3497 c 1.53938,-0.2648 3.01714,-1.6185 3.51486,-3.099 0.62196,-1.8502 0.37035,-4.52928 -1.16099,-5.73956 -2.85741,-2.25822 -7.2651,1.5359 -10.76448,0.52666 -1.65493,-0.47729 -2.43508,-2.98837 -4.1574,-2.97536 -1.77113,0.0134 -4.03177,1.2894 -4.36578,3.0288 -0.3339,1.73883 1.36157,3.61206 2.93247,4.42896 1.28269,0.667 2.64806,-0.3235 4.07063,-0.066 3.60549,0.6536 6.31948,4.5165 9.93069,3.8951 0,0 0,0 0,0 m 48.00141,-4.9089 c 1.55503,-0.1477 2.87942,-1.32653 3.51506,-2.75335 0.79432,-1.783 0.79745,-4.47385 -0.61245,-5.82366 -2.63082,-2.51858 -7.42462,0.84153 -10.80324,-0.51854 -1.59782,-0.64321 -2.14116,-3.21653 -3.85336,-3.40395 -1.76071,-0.19274 -4.15451,0.81168 -4.6886,2.50047 -0.53392,1.68824 0.93218,3.74608 2.39744,4.74018 1.19643,0.8117 2.79392,10e-4 4.18291,0.40259 3.52036,1.01709 6.2143,5.20256 9.86224,4.85626 0,0 0,0 0,0 m 48.56723,-1.79014 c 1.56065,-0.0656 3.19962,-1.21884 3.88286,-2.62353 0.85379,-1.75533 0.94733,-4.4446 -0.41645,-5.84104 -2.54474,-2.6056 -7.48458,0.50078 -10.80792,-0.98924 -1.57168,-0.70466 -2.03853,-3.28786 -3.7381,-3.56752 -1.74773,-0.28758 -4.1923,0.58603 -4.81685,2.2435 -0.62436,1.65693 0.72842,3.79097 2.13783,4.86278 1.15083,0.87517 2.92026,0.16645 4.29264,0.62129 3.47828,1.15279 5.80486,5.44758 9.46599,5.29376 0,0 0,0 0,0 m 49.20871,-0.39517 c 1.56128,-0.0486 3.21272,-1.18392 3.91122,-2.58108 0.87285,-1.74593 0.99568,-4.43403 -0.35281,-5.84524 -2.51622,-2.63317 -7.57993,0.4192 -10.86534,-1.15274 -1.55375,-0.74341 -1.95644,-3.33741 -3.64856,-3.65911 -1.74008,-0.33081 -4.20557,0.48195 -4.87102,2.12344 -0.66523,1.64096 0.63425,3.8079 2.01667,4.91432 1.12879,0.90342 2.91526,0.23877 4.27596,0.72749 3.44866,1.23866 5.87129,5.58686 9.53388,5.47292 0,0 0,0 0,0 m 49.37723,-0.20545 c 1.56125,-0.0495 3.21202,-1.1858 3.9097,-2.58336 0.87183,-1.74644 0.99309,-4.43461 -0.35622,-5.84503 -2.51775,-2.6317 -7.57968,0.42363 -10.866,-1.1464 -1.55418,-0.7425 -1.95839,-3.33626 -3.6507,-3.65697 -1.74027,-0.32979 -4.20528,0.48441 -4.86977,2.12629 -0.66427,1.64134 0.63647,3.80752 2.01954,4.91313 1.12931,0.90276 2.9154,0.23707 4.27637,0.725 3.44939,1.23664 5.87456,5.58342 9.53708,5.46734 0,0 0,0 0,0 m 49.74343,-0.78656 c 1.55939,-0.0906 3.17963,-1.27004 3.84022,-2.6855 0.82549,-1.76879 0.87584,-4.4592 -0.51016,-5.83356 -2.58623,-2.56439 -7.56582,0.62327 -10.89237,-0.85957 -1.57319,-0.70127 -2.04562,-3.28345 -3.74579,-3.55944 -1.74834,-0.28381 -4.21731,0.53619 -4.86237,2.18579 -0.64485,1.64908 0.68137,3.79974 2.07739,4.88895 1.13989,0.88937 3.04193,0.19744 4.41528,0.64932 3.48075,1.14528 6.01964,5.42659 9.6778,5.21401 0,0 0,0 0,0 m 50.09761,-2.72906 c 1.5519,-0.1775 3.10379,-1.44552 3.68435,-2.89564 0.72549,-1.81211 0.62561,-4.50114 -0.83494,-5.796 -2.72533,-2.41606 -7.61959,1.07212 -11.00294,-0.27611 -1.60007,-0.63761 -2.17568,-3.19878 -3.88555,-3.40636 -1.75833,-0.21346 -4.1638,0.7627 -4.71774,2.44508 -0.55377,1.68184 0.88799,3.75681 2.34145,4.7681 1.18678,0.82575 2.92469,0.0429 4.31507,0.43931 3.5239,1.00476 6.45971,5.13804 10.1003,4.72162 0,0 0,0 0,0 m 50.56885,-7.12993 c 1.51964,-0.36119 3.2462,-1.87492 3.61078,-3.39379 0.4556,-1.89803 -0.0324,-4.54429 -1.66496,-5.61414 -3.04629,-1.9962 -7.68021,2.05546 -11.18571,1.06771 -1.65783,-0.46712 -2.49758,-2.95416 -4.21973,-2.98216 -1.77096,-0.0288 -4.10821,1.19037 -4.52979,2.91067 -0.42145,1.71975 1.3683,3.65688 2.91933,4.51094 1.26645,0.69736 2.91312,-0.26259 4.33724,-0.0134 3.60943,0.63148 7.16794,4.36151 10.73284,3.51421 0,0 0,0 0,0 m 50.60813,-18.32885 c 1.32537,-0.82647 3.05834,-3.32331 2.83166,-4.86869 -0.28327,-1.93114 -1.72069,-4.20572 -3.63397,-4.59133 -3.57005,-0.71946 -7.08598,4.83462 -10.72782,4.86299 -1.72231,0.0134 -3.25512,-2.09133 -4.93073,-1.69274 -1.7231,0.40989 -3.70412,2.14385 -3.69383,3.915 0.0103,1.77059 2.25398,3.23019 3.96797,3.67432 1.39953,0.36264 3.01919,-1.07231 4.45631,-1.22992 3.64236,-0.39947 8.62124,1.86919 11.73041,-0.0696 0,0 0,0 0,0 m 34.04275,-50.51778 c 0.0819,-1.55967 -0.88065,-4.06544 -2.25888,-4.80014 -1.72228,-0.91811 -4.40591,-1.11118 -5.85172,0.19977 -2.69774,2.44618 -0.53783,9.01035 -2.87896,11.80017 -1.10718,1.31936 -3.78048,1.15035 -4.61163,2.65891 -0.8547,1.5513 -1.16609,4.26611 0.0297,5.57271 1.19537,1.30618 3.92541,0.65466 5.46569,-0.21857 1.25769,-0.71303 1.44019,-3.15287 2.3272,-4.29453 2.24812,-2.89353 7.5865,-7.25951 7.77863,-10.91832 0,0 0,0 0,0"
           style="fill:#004400;fill-opacity:1;fill-rule:evenodd;stroke:none;stroke-width:0.95363015px;stroke-linecap:butt;stroke-linejoin:miter;stroke-opacity:1"
           inkscape:connector-curvature="0" />
        <path
           style="opacity:1;fill:#004400;fill-opacity:1;fill-rule:nonzero;stroke:none;stroke-width:0;stroke-miterlimit:4;stroke-dasharray:none;stroke-dashoffset:0;stroke-opacity:1"
           d="m 254.92096,1032.1806 c -0.889,1.1589 -1.99532,1.1962 -2.89595,0.5912 -0.90062,-0.6051 -1.11055,-1.8239 -0.22156,-2.9827 0.889,-1.1589 2.17267,-1.2292 2.99169,-0.5175 0.81901,0.7117 1.01482,1.7501 0.12582,2.909 0,0 0,0 0,0 m 36.05383,-23.6088 c -1.40642,0.3948 -2.58969,-0.1745 -2.91002,-1.2113 -0.32033,-1.0367 0.44158,-2.1773 1.848,-2.5721 1.40642,-0.3948 2.6564,0.1876 2.92426,1.2392 0.26787,1.0516 -0.45583,2.1495 -1.86224,2.5442 0,0 0,0 0,0 m 46.5621,-10.24741 c -1.45533,0.12606 -2.71102,-0.64816 -2.80466,-1.72926 -0.0937,-1.0811 1.01022,-2.0597 2.46555,-2.18576 1.45533,-0.12606 2.58516,0.69718 2.65402,1.78015 0.0689,1.08297 -0.85958,2.00881 -2.31491,2.13487 0,0 0,0 0,0 m 48.35119,-4.22614 c -1.46073,-0.0123 -2.63749,-0.90188 -2.62838,-1.98699 0.009,-1.08512 1.20067,-1.95483 2.6614,-1.94255 1.46073,0.0123 2.6375,0.90188 2.62838,1.98699 -0.009,1.08512 -1.20066,1.95483 -2.6614,1.94255 0,0 0,0 0,0 m 49.05112,-1.53314 c -1.45952,-0.0613 -2.60575,-0.99001 -2.56018,-2.07422 0.0456,-1.08421 1.26569,-1.91341 2.72521,-1.85206 1.45952,0.0613 2.60575,0.99 2.56018,2.07422 -0.0456,1.08421 -1.26569,1.91341 -2.72521,1.85206 0,0 0,0 0,0 m 49.27375,-0.31066 c -1.45876,-0.0772 -2.59481,-1.01833 -2.53743,-2.10199 0.0574,-1.08365 1.28645,-1.89951 2.74522,-1.82227 1.45876,0.0772 2.59481,1.01833 2.53744,2.10199 -0.0574,1.08365 -1.28646,1.89951 -2.74523,1.82227 0,0 0,0 0,0 m 49.37376,-0.21 c -1.45881,-0.0764 -2.59541,-1.01681 -2.53867,-2.1005 0.0567,-1.08368 1.28535,-1.90026 2.74416,-1.82387 1.45881,0.0764 2.59541,1.01681 2.53866,2.1005 -0.0567,1.08368 -1.28534,1.90026 -2.74415,1.82387 0,0 0,0 0,0 m 49.58429,-0.98973 c -1.4603,-0.0379 -2.62128,-0.94804 -2.59312,-2.03284 0.0282,-1.0848 1.2348,-1.93347 2.6951,-1.89556 1.46031,0.0379 2.62129,0.94804 2.59313,2.03284 -0.0282,1.08479 -1.2348,1.93347 -2.69511,1.89556 0,0 0,0 0,0 m 49.8932,-3.20794 c -1.45912,0.0699 -2.68408,-0.75208 -2.73602,-1.836 -0.0519,-1.08392 1.0888,-2.01929 2.54792,-2.08921 1.45911,-0.0699 2.68407,0.75208 2.73601,1.836 0.0519,1.08391 -1.0888,2.01929 -2.54791,2.08921 0,0 0,0 0,0 m 49.93499,-8.08689 c -1.43343,0.28142 -2.91435,-0.36506 -3.10341,-1.43362 -0.18907,-1.06857 0.91292,-2.14105 2.34634,-2.42248 1.43343,-0.28142 2.76493,0.35365 2.97399,1.41849 0.20906,1.06483 -0.78349,2.15618 -2.21692,2.43761 0,0 0,0 0,0 m 48.20523,-20.85985 c -1.20402,0.82698 -2.99963,0.91863 -3.57265,-0.003 -0.57301,-0.92144 0.14393,-2.40918 1.34796,-3.23617 1.20403,-0.82699 2.87417,-0.96981 3.53098,-0.10611 0.6568,0.8637 -0.10226,2.51811 -1.30629,3.3451 0,0 0,0 0,0 m 24.15245,-49.1817 c -0.11536,1.45606 -1.08572,2.56697 -2.16736,2.48127 -1.08165,-0.0857 -1.86498,-1.33552 -1.74963,-2.79159 0.11536,-1.45606 1.08572,-2.56696 2.16736,-2.48127 1.08165,0.0857 1.86498,1.33553 1.74963,2.79159 0,0 0,0 0,0"
           id="path19092"
           inkscape:connector-curvature="0" />
        <path
           style="opacity:1;fill:#004400;fill-opacity:1;fill-rule:nonzero;stroke:none;stroke-width:0;stroke-miterlimit:4;stroke-dasharray:none;stroke-dashoffset:0;stroke-opacity:1"
           d="m 256.96495,1034.8587 c -0.85406,0.7298 -1.55768,0.2881 -2.13855,-0.3111 -0.58087,-0.5991 -0.6787,-1.2566 0.17537,-1.9864 0.41013,-0.3505 0.90688,-0.5655 1.38098,-0.5979 0.47409,-0.032 0.88669,0.1206 1.14702,0.4253 0.26034,0.3046 0.34709,0.7361 0.24116,1.1993 -0.10592,0.4632 -0.39584,0.9204 -0.80598,1.2708 0,0 0,0 0,0 m 34.04064,-22.9175 c -1.12122,0.072 -1.8024,-0.6071 -1.87768,-1.4384 -0.0753,-0.8312 0.56219,-1.5056 1.6834,-1.5778 0.53843,-0.035 1.06503,0.091 1.46397,0.3492 0.39894,0.2583 0.63754,0.6281 0.6633,1.0281 0.0258,0.4 -0.16342,0.7974 -0.52592,1.1047 -0.36251,0.3073 -0.86865,0.4995 -1.40707,0.5342 0,0 0,0 0,0 m 45.93432,-10.3006 c -1.11506,-0.1378 -1.93602,-0.921 -1.83368,-1.74933 0.10235,-0.82833 1.08925,-1.38813 2.20431,-1.25036 0.53547,0.0662 1.02948,0.28763 1.37336,0.61568 0.34388,0.32806 0.50946,0.73582 0.46031,1.13361 -0.0491,0.3978 -0.30899,0.753 -0.72238,0.9875 -0.41339,0.2344 -0.94645,0.329 -1.48192,0.2629 0,0 0,0 0,0 m 48.03995,-4.29757 c -1.09701,-0.24272 -1.84015,-1.1001 -1.65985,-1.91502 0.18029,-0.81492 1.21576,-1.27879 2.31277,-1.03608 0.5268,0.11655 0.99764,0.38379 1.30892,0.74293 0.31128,0.35913 0.43752,0.78074 0.35093,1.17208 -0.0866,0.39134 -0.37889,0.72035 -0.81262,0.91466 -0.43373,0.1943 -0.97335,0.23798 -1.50015,0.12143 0,0 0,0 0,0 m 48.94259,-1.56544 c -1.08826,-0.27944 -1.80218,-1.16132 -1.5946,-1.96974 0.20758,-0.80841 1.25806,-1.23724 2.34632,-0.9578 0.5226,0.13419 0.98419,0.4171 1.28324,0.7865 0.29904,0.3694 0.41104,0.79502 0.31136,1.18323 -0.0997,0.38822 -0.40289,0.70723 -0.84291,0.88685 -0.44002,0.17963 -0.98081,0.20515 -1.50341,0.071 0,0 0,0 0,0 m 49.23882,-0.32192 c -1.08515,-0.29128 -1.78943,-1.18088 -1.57305,-1.98699 0.21637,-0.80611 1.27146,-1.22347 2.35661,-0.9322 0.52111,0.13988 0.9796,0.4278 1.2746,0.80044 0.29501,0.37263 0.40236,0.79945 0.29846,1.18655 -0.10391,0.38711 -0.41057,0.7028 -0.85252,0.87762 -0.44195,0.17482 -0.98299,0.19445 -1.5041,0.0546 0,0 0,0 0,0 m 49.37562,-0.20939 c -1.08531,-0.29064 -1.79011,-1.17983 -1.57421,-1.98607 0.21591,-0.80623 1.27075,-1.22421 2.35607,-0.93357 0.52119,0.13957 0.97984,0.42723 1.27507,0.79969 0.29522,0.37246 0.40283,0.79921 0.29914,1.18638 -0.10368,0.38717 -0.41015,0.70304 -0.852,0.87812 -0.44185,0.17507 -0.98288,0.19502 -1.50407,0.0554 0,0 0,0 0,0 m 49.66907,-0.9632 c -1.09259,-0.26193 -1.82058,-1.13223 -1.626,-1.94387 0.19457,-0.81164 1.23803,-1.25727 2.33062,-0.99534 0.52468,0.12578 0.99076,0.40125 1.29569,0.76579 0.30494,0.36455 0.42376,0.78831 0.33032,1.17808 -0.0934,0.38976 -0.39148,0.71359 -0.82856,0.90026 -0.43708,0.18666 -0.97739,0.22086 -1.50207,0.0951 0,0 0,0 0,0 m 50.13398,-3.14555 c -1.10893,-0.18062 -1.89913,-0.99484 -1.76496,-1.81862 0.13416,-0.82378 1.1419,-1.34517 2.25084,-1.16456 0.53252,0.0867 1.01765,0.32707 1.34864,0.66812 0.331,0.34106 0.48076,0.75491 0.41632,1.1505 -0.0644,0.39559 -0.33776,0.74053 -0.75988,0.95893 -0.42211,0.21839 -0.95843,0.29236 -1.49096,0.20563 0,0 0,0 0,0 m 50.2019,-7.98123 c -1.12289,-0.0384 -2.01003,-0.74581 -1.98148,-1.57995 0.0286,-0.83415 0.96198,-1.4792 2.08488,-1.44077 0.53923,0.0185 1.21725,0.13884 1.59434,0.42813 0.37708,0.28928 0.58544,0.67694 0.57924,1.0777 -0.006,0.40075 -0.22646,0.78178 -0.61231,1.05926 -0.38586,0.27747 -1.12544,0.47409 -1.66467,0.45563 0,0 0,0 0,0 m 49.34279,-20.7605 c -1.05651,0.38207 -2.14307,0.0556 -2.4269,-0.72927 -0.28382,-0.78483 0.66774,-1.94981 1.70577,-2.37954 0.49848,-0.20637 1.03744,-0.25718 1.49831,-0.14126 0.46088,0.11592 0.80592,0.38907 0.95922,0.75937 0.1533,0.37029 0.1023,0.8074 -0.14178,1.21516 -0.24408,0.40777 -1.08727,1.09206 -1.59462,1.27554 0,0 0,0 0,0 m 26.64445,-51.54255 c -0.31952,1.07702 -1.22713,1.7577 -2.0272,1.52035 -0.80007,-0.23736 -1.18964,-1.30287 -0.87012,-2.37989 0.15343,-0.5172 0.45321,-0.96795 0.83339,-1.25307 0.38017,-0.28512 0.80959,-0.38126 1.1938,-0.26728 0.38421,0.11398 0.69173,0.42875 0.85491,0.87507 0.16318,0.44632 0.16865,0.98761 0.0152,1.50482 0,0 0,0 0,0"
           id="path19094"
           inkscape:connector-curvature="0" />
        <path
           style="opacity:1;fill:#004400;fill-opacity:1;fill-rule:nonzero;stroke:none;stroke-width:0;stroke-miterlimit:4;stroke-dasharray:none;stroke-dashoffset:0;stroke-opacity:1"
           d="m 258.75059,1036.8955 c -0.44088,0.2686 -0.94299,0.3962 -1.39586,0.3546 -0.45288,-0.042 -0.81942,-0.249 -1.01901,-0.5765 -0.4156,-0.682 -0.42814,-1.1114 0.52326,-1.6121 0.9514,-0.5007 2.02421,-0.3337 2.3962,0.373 0.17863,0.3394 0.16845,0.7604 -0.0283,1.1704 -0.19675,0.4101 -0.0354,0.022 -0.47629,0.2906 0,0 0,0 0,0 m 31.9544,-22.0996 c -0.51185,-0.068 -0.98264,-0.2845 -1.3088,-0.6015 -0.32616,-0.317 -0.48098,-0.7087 -0.43039,-1.089 0.10536,-0.7918 0.77155,-1.2349 1.83338,-1.0654 1.06184,0.1695 1.82056,0.9463 1.69466,1.7351 -0.0605,0.3788 -0.32101,0.7097 -0.72432,0.92 -0.40332,0.2103 -0.55268,0.1689 -1.06453,0.1008 0,0 0,0 0,0 m 45.034,-10.375 c -0.48585,-0.1749 -0.90019,-0.486 -1.15186,-0.8649 -0.25168,-0.3789 -0.32008,-0.7945 -0.19016,-1.1554 0.27055,-0.7516 1.31003,-1.0656 2.32175,-0.7014 1.01172,0.3642 1.61256,1.2687 1.34201,2.0203 -0.12992,0.3609 -0.44752,0.6375 -0.88293,0.7691 -0.43541,0.1315 -0.95297,0.1072 -1.43881,-0.068 0,0 0,0 0,0 m 47.78214,-4.42372 c -0.46711,-0.2201 -0.85014,-0.56903 -1.06482,-0.97003 -0.21468,-0.401 -0.24343,-0.82121 -0.0799,-1.16821 0.34048,-0.72258 1.40502,-0.93679 2.37773,-0.47845 0.9727,0.45833 1.48522,1.41565 1.14474,2.13823 -0.1635,0.347 -0.50586,0.59238 -0.95178,0.68208 -0.44591,0.09 -0.95883,0.017 -1.42594,-0.20362 0,0 0,0 0,0 m 48.85421,-1.61591 c -0.45946,-0.23567 -0.83055,-0.59728 -1.03164,-1.00527 -0.2011,-0.40799 -0.21571,-0.82894 -0.0406,-1.17026 0.36457,-0.71074 1.43573,-0.88906 2.3925,-0.3983 0.95677,0.49077 1.43684,1.46479 1.07228,2.17553 -0.17508,0.34131 -0.5255,0.57502 -0.97418,0.64972 -0.44868,0.0747 -0.95887,-0.0157 -1.41832,-0.25142 0,0 0,0 0,0 m 49.21055,-0.33892 c -0.45686,-0.24066 -0.824,-0.60629 -1.02063,-1.01645 -0.19664,-0.41016 -0.20667,-0.83125 -0.0279,-1.17063 0.37229,-0.70673 1.44533,-0.87338 2.3967,-0.37222 0.95137,0.50116 1.42081,1.48035 1.04852,2.18708 -0.17878,0.33938 -0.53173,0.56927 -0.9812,0.63907 -0.44946,0.0698 -0.95864,-0.0262 -1.4155,-0.26685 0,0 0,0 0,0 m 49.37714,-0.20847 c -0.45701,-0.2404 -0.82435,-0.60581 -1.02123,-1.01585 -0.19687,-0.41004 -0.20715,-0.83113 -0.0286,-1.17061 0.37188,-0.70695 1.44482,-0.87423 2.39648,-0.37362 0.95166,0.5006 1.42167,1.47951 1.0498,2.18646 -0.17858,0.33949 -0.5314,0.56958 -0.98082,0.63965 -0.44943,0.0701 -0.95866,-0.0256 -1.41566,-0.26603 0,0 0,0 0,0 m 49.73783,-0.92263 c -0.46318,-0.22827 -0.84002,-0.58387 -1.04764,-0.98858 -0.20761,-0.4047 -0.22898,-0.82537 -0.0594,-1.16944 0.35311,-0.7165 1.42126,-0.912 2.38578,-0.43666 0.96452,0.47534 1.46016,1.44152 1.10705,2.15802 -0.16957,0.34408 -0.51619,0.58338 -0.96361,0.66527 -0.44742,0.0819 -0.95899,-3.5e-4 -1.42217,-0.22861 0,0 0,0 0,0 m 50.33197,-3.04169 c -0.47876,-0.19348 -1.12927,-0.51094 -1.35915,-0.90343 -0.22987,-0.39248 -0.27469,-0.8113 -0.12459,-1.1643 0.31257,-0.73509 1.57061,-1.01709 2.56757,-0.6142 0.99695,0.40289 1.56252,1.32987 1.26323,2.07046 -0.14373,0.35565 -0.47175,0.61987 -0.91191,0.73454 -0.44016,0.11467 -0.9564,0.0704 -1.43515,-0.12307 0,0 0,0 0,0 m 50.55913,-7.83744 c -0.49943,-0.13116 -0.93971,-0.40434 -1.22397,-0.75942 -0.28426,-0.35509 -0.38921,-0.76301 -0.29178,-1.13402 0.2029,-0.77259 1.21048,-1.17748 2.2505,-0.90435 1.04002,0.27313 1.71865,1.12085 1.51575,1.89344 -0.0974,0.37101 -0.38927,0.67472 -0.81133,0.84431 -0.42205,0.1696 -0.93973,0.1912 -1.43917,0.06 0,0 0,0 0,0 m 50.48093,-20.61376 c -0.51234,0.0641 -1.02261,-0.0257 -1.41855,-0.2495 -0.39594,-0.22382 -0.64511,-0.56338 -0.6927,-0.94398 -0.0991,-0.79256 0.68544,-1.54321 1.75235,-1.67663 1.0669,-0.13341 2.47029,1.9e-4 2.60535,0.78741 0.0649,0.37804 -0.60439,1.17714 -0.93302,1.49157 -0.32862,0.31442 -0.80108,0.52706 -1.31343,0.59113 0,0 0,0 0,0 m 29.00046,-52.92282 c -0.2525,0.45035 -0.62756,0.80775 -1.04267,0.99357 -0.41511,0.18581 -0.83626,0.18483 -1.17081,-0.003 -0.69666,-0.39059 -0.83517,-1.46749 -0.30937,-2.4053 0.52581,-0.93782 1.51682,-1.38143 2.21348,-0.99083 0.33455,0.18757 0.55509,0.54636 0.61311,0.99745 0.058,0.45108 -0.0512,0.9575 -0.30374,1.40786 0,0 0,0 0,0"
           id="path19096"
           inkscape:connector-curvature="0" />
        <path
           style="opacity:1;fill:#004400;fill-opacity:1;fill-rule:nonzero;stroke:none;stroke-width:0;stroke-miterlimit:4;stroke-dasharray:none;stroke-dashoffset:0;stroke-opacity:1"
           d="m 260.03119,1039.0436 c -0.40982,0.2759 -0.88425,0.4195 -1.31893,0.3993 -0.43469,-0.02 -0.79401,-0.2026 -0.99893,-0.507 -0.20492,-0.3045 -0.23865,-0.706 -0.0938,-1.1163 0.14488,-0.4104 0.15575,-0.1981 0.57828,-0.454 0.42252,-0.2558 0.90324,-0.3765 1.3364,-0.3355 0.43316,0.041 0.78328,0.2404 0.97334,0.5543 0.39577,0.6536 0.37701,0.8848 -0.47639,1.4592 0,0 0,0 0,0 m 29.57553,-21.4872 c -0.48952,-0.067 -0.52252,-0.4363 -0.84207,-0.7317 -0.31955,-0.2954 -0.47702,-0.6663 -0.43775,-1.0312 0.0393,-0.3648 -0.0882,-0.545 0.29286,-0.7551 0.38109,-0.2101 0.87019,-0.2907 1.3597,-0.2242 0.48951,0.067 0.93934,0.2748 1.25053,0.579 0.31118,0.3042 0.45824,0.6794 0.40881,1.043 -0.10293,0.7572 -1.01273,1.2588 -2.03208,1.1202 0,0 0,0 0,0 m 44.47461,-10.67 c -0.46435,-0.1686 -0.85991,-0.4674 -1.09967,-0.8305 -0.23976,-0.3632 -0.30408,-0.761 -0.1788,-1.1059 0.12527,-0.345 0.42987,-0.6088 0.84679,-0.7334 0.41692,-0.1247 0.91201,-0.1 1.37636,0.069 0.46434,0.1687 0.8599,0.4674 1.09966,0.8306 0.23976,0.3631 0.30408,0.7609 0.17881,1.1059 -0.26087,0.7183 -1.25621,1.0159 -2.22315,0.6647 0,0 0,0 0,0 m 47.55618,-4.5916 c -0.4463,-0.2119 -0.8118,-0.5467 -1.01611,-0.931 -0.20431,-0.3842 -0.23068,-0.7863 -0.0733,-1.1178 0.15737,-0.33155 0.48558,-0.56536 0.91243,-0.65 0.42685,-0.0846 0.91738,-0.0132 1.36368,0.19865 0.44629,0.21185 0.8118,0.54675 1.01611,0.93095 0.2043,0.3842 0.23067,0.7863 0.0733,1.1178 -0.32769,0.6904 -1.34674,0.8925 -2.2761,0.4514 0,0 0,0 0,0 m 48.77804,-1.6805 c -0.43893,-0.2267 -0.79299,-0.5737 -0.98427,-0.96454 -0.19129,-0.39088 -0.20413,-0.79365 -0.0357,-1.11972 0.16842,-0.32606 0.5043,-0.54871 0.93377,-0.61896 0.42946,-0.0702 0.91732,0.0177 1.35625,0.24436 0.43894,0.22672 0.79299,0.57368 0.98427,0.96455 0.19129,0.39088 0.20414,0.79365 0.0357,1.11971 -0.35071,0.679 -1.37599,0.8467 -2.29002,0.3746 0,0 0,0 0,0 m 49.18635,-0.3604 c -0.43644,-0.2315 -0.7867,-0.58227 -0.97371,-0.9752 -0.18702,-0.39294 -0.19548,-0.79583 -0.0235,-1.12004 0.17196,-0.32421 0.51025,-0.54319 0.94045,-0.60876 0.4302,-0.0656 0.91708,0.0276 1.35352,0.25912 0.43644,0.23149 0.78669,0.58228 0.97371,0.97522 0.18701,0.39293 0.19547,0.79582 0.0235,1.12003 -0.35808,0.67513 -1.38513,0.83163 -2.29396,0.34963 0,0 0,0 0,0 m 49.37843,-0.2073 c -0.43658,-0.23123 -0.78704,-0.58182 -0.97428,-0.97465 -0.18725,-0.39282 -0.19594,-0.79571 -0.0242,-1.12002 0.17177,-0.32431 0.50993,-0.54349 0.94009,-0.60931 0.43017,-0.0658 0.91709,0.0271 1.35367,0.25834 0.43657,0.23122 0.78703,0.58181 0.97428,0.97464 0.18724,0.39282 0.19594,0.79571 0.0242,1.12002 -0.35769,0.67538 -1.38464,0.83248 -2.29376,0.35098 0,0 0,0 0,0 m 49.79686,-0.87116 c -0.44251,-0.21964 -0.80209,-0.56087 -0.99962,-0.94862 -0.19754,-0.38775 -0.21685,-0.79026 -0.0537,-1.11899 0.16316,-0.32872 0.49543,-0.55673 0.9237,-0.63387 0.42828,-0.0771 0.91748,0.003 1.36,0.22256 0.44251,0.21964 0.80209,0.56087 0.99962,0.94862 0.19753,0.38775 0.21684,0.79026 0.0537,1.11898 -0.33976,0.68454 -1.3622,0.86869 -2.28369,0.41132 0,0 0,0 0,0 m 50.20337,-2.91272 c -0.45408,-0.19459 -0.83214,-0.51522 -1.05101,-0.89134 -0.21887,-0.37612 -0.26061,-0.77693 -0.11605,-1.11425 0.14455,-0.33732 0.46358,-0.58352 0.88688,-0.68444 0.4233,-0.10092 0.91621,-0.0483 1.3703,0.14631 0.45408,0.1946 1.09619,0.48773 1.32179,0.85985 0.2256,0.37212 0.27455,0.77211 0.13609,1.11197 -0.28834,0.70773 -1.60242,0.97713 -2.548,0.5719 0,0 0,0 0,0 m 50.75964,-7.54098 c -0.47403,-0.13909 -0.88759,-0.41237 -1.14971,-0.75971 -0.26213,-0.34735 -0.35134,-0.74031 -0.24802,-1.09244 0.10332,-0.35214 0.39072,-0.63459 0.79897,-0.78523 0.40824,-0.15065 1.25086,-0.25101 1.72832,-0.12418 0.47747,0.12683 0.89795,0.38937 1.16894,0.72986 0.271,0.34048 0.37031,0.73103 0.27609,1.08572 -0.1962,0.7386 -1.58749,1.23562 -2.57459,0.94598 0,0 0,0 0,0 m 51.37266,-19.97338 c -0.49246,0.0389 -0.97623,-0.0691 -1.34489,-0.30026 -0.36867,-0.23116 -0.59202,-0.56655 -0.62092,-0.93238 -0.0289,-0.36582 0.139,-0.73212 0.46678,-1.01832 0.32778,-0.28619 1.27165,-0.81721 1.76199,-0.87713 0.49035,-0.0599 0.97829,0.0273 1.35648,0.24254 0.3782,0.2152 0.61567,0.54074 0.66017,0.90499 0.0927,0.75852 -1.25412,1.89953 -2.27961,1.98056 0,0 0,0 0,0 m 32.11912,-54.21192 c -0.24279,0.43018 -0.68882,1.68726 -1.09593,1.84081 -0.40712,0.15355 -0.80925,0.12835 -1.11794,-0.07 -0.30869,-0.19839 -0.43607,-1.35303 -0.49035,-1.78474 -0.0543,-0.43172 0.0516,-0.91592 0.29439,-1.34611 0.24279,-0.43018 0.60258,-0.77109 1.00022,-0.94774 0.39765,-0.17666 0.80057,-0.17457 1.12013,0.006 0.66545,0.37558 0.79506,1.40623 0.28948,2.30204 0,0 0,0 0,0"
           id="path19098"
           inkscape:connector-curvature="0" />
        <path
           style="opacity:1;fill:#004400;fill-opacity:1;fill-rule:nonzero;stroke:none;stroke-width:0;stroke-miterlimit:4;stroke-dasharray:none;stroke-dashoffset:0;stroke-opacity:1"
           d="m 260.00283,1041.0304 c -0.39274,0.2114 -0.83176,0.2982 -1.22048,0.2413 -0.38873,-0.057 -0.69531,-0.2526 -0.85232,-0.5444 -0.32694,-0.6075 -0.11801,-1.0094 0.71369,-1.4227 0.83169,-0.4133 1.53059,0.2539 1.8175,0.8813 0.13778,0.3013 0.37454,0.1491 0.19638,0.4992 -0.17816,0.3502 -0.26204,0.134 -0.65477,0.3453 0,0 0,0 0,0 m 27.66694,-21.757 c -0.42975,-0.1193 -0.80669,-0.3606 -1.04791,-0.6707 -0.24122,-0.31 -0.32695,-0.6636 -0.23833,-0.9828 0.18453,-0.6648 1.05959,-1.0024 1.95449,-0.754 0.89491,0.2485 1.47078,0.9887 1.28625,1.6535 -0.0886,0.3193 -0.34432,0.5781 -0.71086,0.7194 -0.36654,0.1414 -0.81389,0.1538 -1.24364,0.035 0,0 0,0 0,0 m 43.66387,-11.1012 c -0.38883,-0.2185 -0.26146,-0.611 -0.43097,-0.9654 -0.16951,-0.3544 -0.58545,-0.6586 -0.42315,-0.9475 0.33797,-0.6014 1.26832,-0.7202 2.07801,-0.2653 0.80969,0.455 1.19209,1.3114 0.85412,1.9129 -0.16229,0.2888 -0.47241,0.479 -0.86211,0.5288 -0.3897,0.05 -0.82707,-0.045 -1.2159,-0.2635 0,0 0,0 0,0 m 47.78032,-4.865 c -0.37118,-0.2473 -0.65419,-0.594 -0.78677,-0.9638 -0.13258,-0.3699 -0.10387,-0.7325 0.0798,-1.0083 0.38251,-0.5742 1.03502,-0.6026 1.79801,-0.073 0.76298,0.5296 1.0626,1.4183 0.66921,1.9851 -0.18891,0.2722 -0.51564,0.4322 -0.9083,0.4449 -0.39267,0.013 -0.48079,-0.1377 -0.85198,-0.3849 0,0 0,0 0,0 m 48.41181,-1.7696 c -0.35765,-0.2664 -0.62202,-0.6276 -0.73494,-1.0039 -0.11292,-0.3762 -0.0652,-0.73691 0.1328,-1.00259 0.41222,-0.55326 1.35015,-0.55193 2.09492,0.003 0.74477,0.55489 1.01436,1.45329 0.60215,2.00649 -0.19796,0.2657 -0.52988,0.4146 -0.92276,0.4141 -0.39287,-6e-4 -0.81451,-0.1506 -1.17217,-0.4171 0,0 0,0 0,0 m 49.17646,-0.3919 c -0.35473,-0.2704 -0.61515,-0.6343 -0.72397,-1.0118 -0.10881,-0.37751 -0.0571,-0.73763 0.14372,-1.00114 0.41822,-0.54874 1.35608,-0.53718 2.09476,0.0258 0.73869,0.56299 0.99848,1.46424 0.58026,2.01294 -0.20084,0.2635 -0.53436,0.4088 -0.92721,0.404 -0.39284,0 -0.81283,-0.1594 -1.16756,-0.4298 0,0 0,0 0,0 m 49.37896,-0.2056 c -0.35489,-0.2702 -0.61552,-0.634 -0.72456,-1.0114 -0.10904,-0.37744 -0.0576,-0.73759 0.14313,-1.00122 0.4179,-0.54898 1.35576,-0.53797 2.09478,0.0246 0.73901,0.56256 0.99933,1.46362 0.58143,2.01262 -0.20068,0.2636 -0.53413,0.4091 -0.92697,0.4045 -0.39285,0 -0.81292,-0.159 -1.16781,-0.4291 0,0 0,0 0,0 m 49.82144,-0.7951 c -0.36188,-0.26063 -0.63201,-0.61745 -0.75096,-0.99188 -0.11895,-0.37443 -0.077,-0.73581 0.11669,-1.00464 0.40328,-0.5598 1.3411,-0.57352 2.09468,-0.0306 0.75358,0.54288 1.03756,1.43678 0.63428,1.99662 -0.19367,0.2688 -0.52315,0.4231 -0.91598,0.4288 -0.39283,0.01 -0.81683,-0.1375 -1.17871,-0.3982 0,0 0,0 0,0 m 50.26196,-2.75378 c -0.37586,-0.2401 -0.66549,-0.58128 -0.80515,-0.94849 -0.13966,-0.36721 -0.11792,-0.73037 0.0604,-1.00958 0.3714,-0.58144 1.307,-0.64748 2.08971,-0.14751 0.7827,0.49998 1.11612,1.37663 0.74472,1.95807 -0.17836,0.27922 -0.49873,0.45162 -0.89062,0.47928 -0.3919,0.0277 -0.82323,-0.0917 -1.1991,-0.33177 0,0 0,0 0,0 m 50.91429,-7.21348 c -0.40179,-0.19358 -0.73,-0.4978 -0.91242,-0.84574 -0.18243,-0.34794 -0.20412,-0.71109 -0.0603,-1.00956 0.29946,-0.62154 1.22049,-0.7986 2.05717,-0.39549 0.83669,0.40312 1.2722,1.23376 0.97274,1.8553 -0.1438,0.29847 -0.44133,0.50782 -0.82712,0.58199 -0.3858,0.0742 -0.82826,0.007 -1.23005,-0.1865 0,0 0,0 0,0 m 52.06606,-19.12085 c -0.44438,-0.0377 -1.44699,0.12705 -1.73075,-0.14463 -0.28376,-0.27169 -0.42002,-0.609 -0.37879,-0.93773 0.0858,-0.68454 1.39557,-1.4856 2.32094,-1.40702 0.92538,0.0786 1.62822,0.69956 1.56985,1.38698 -0.028,0.33011 -0.23145,0.63171 -0.5655,0.83845 -0.33405,0.20674 -0.77137,0.30169 -1.21575,0.26395 0,0 0,0 0,0 m 34.69062,-52.60489 c -0.29898,0.33089 -0.80408,1.55735 -1.19319,1.61117 -0.38911,0.0538 -0.73812,-0.0487 -0.97024,-0.28507 -0.48337,-0.49217 -0.31273,-2.31192 0.30986,-3.00095 0.6226,-0.68902 1.54224,-0.87266 2.05409,-0.41016 0.2458,0.2221 0.36276,0.56654 0.32515,0.95756 -0.0376,0.39102 -0.22669,0.79657 -0.52567,1.12745 0,0 0,0 0,0"
           id="path19100"
           inkscape:connector-curvature="0" />
      </g>
      <g
         style="fill:#004400;fill-opacity:1;stroke:#000000;stroke-opacity:1"
         id="g19102">
        <path
           style="fill:#004400;fill-opacity:1;fill-rule:evenodd;stroke:none;stroke-width:0.95363015px;stroke-linecap:butt;stroke-linejoin:miter;stroke-opacity:1"
           d="m 243.87053,1009.483 c 1.12852,-1.0797 4.22814,-2.2942 5.65603,-1.6613 1.78433,0.791 3.58987,2.7859 3.44808,4.7324 -0.26464,3.6321 -6.72862,5.9596 -7.50547,9.5173 -0.36739,1.6825 1.40389,3.696 0.71368,5.2738 -0.70978,1.6225 -2.65697,3.5072 -4.41852,3.3228 -1.76098,-0.1844 -2.92106,-2.6702 -3.16377,-4.4239 -0.19817,-1.4319 1.61304,-3.0586 1.97827,-4.4573 0.92567,-3.5449 0.64432,-9.7708 3.2917,-12.3038 0,0 0,0 0,0 m 49.85034,-26.02526 c 1.5135,-0.38623 3.70231,0.23039 4.73636,1.40113 1.29219,1.46298 2.10164,4.02921 1.16109,5.73954 -1.75505,3.1913 -7.68073,1.71569 -10.34601,4.19778 -1.26047,1.17383 -0.89559,3.81692 -2.39402,4.66625 -1.54089,0.87336 -4.20043,1.01056 -5.4294,-0.26489 -1.22858,-1.27503 -0.63812,-3.83631 0.27533,-5.35312 0.74586,-1.23852 2.86912,-1.29055 3.99999,-2.1913 2.8662,-2.28296 4.44614,-7.28932 7.99666,-8.19539 0,0 0,0 0,0 m 50.83601,-9.33531 c 1.55617,-0.13499 3.59955,0.80934 4.43084,2.13178 1.0388,1.65256 1.42295,4.31587 0.2184,5.85174 -2.24767,2.86578 -7.70323,0.4401 -10.78142,2.38672 -1.45574,0.9206 -1.58651,3.5634 -3.21686,4.11893 -1.67655,0.57127 -4.23152,0.11188 -5.12032,-1.42019 -0.88851,-1.53157 0.0946,-3.85911 1.30841,-5.14824 0.9911,-1.0526 2.85302,-0.64475 4.13182,-1.31923 3.24109,-1.70947 5.37853,-6.28484 9.02913,-6.60151 0,0 0,0 0,0 m 50.27079,-3.63873 c 1.56184,-0.0228 3.26342,1.03581 4.02504,2.39956 0.95173,1.70417 1.1973,4.3838 -0.0852,5.85515 -2.39319,2.74539 -7.59104,-0.0723 -10.80111,1.64818 -1.51811,0.81364 -1.8018,3.42328 -3.47742,3.82199 -1.72311,0.41 -4.22313,-0.2892 -4.9629,-1.89853 -0.73954,-1.6088 0.45951,-3.83284 1.78989,-5.00127 1.08629,-0.95406 2.90125,-0.37178 4.23816,-0.92218 3.38837,-1.39498 5.60968,-5.8493 9.27358,-5.9029 0,0 0,0 0,0 m 49.83967,-1.21983 c 1.56175,0.0296 3.3723,1.16324 4.07251,2.55955 0.875,1.74485 1.00113,4.4328 -0.34562,5.84567 -2.51298,2.63626 -7.65106,-0.34995 -10.91718,1.2617 -1.54461,0.76218 -1.91583,3.36087 -3.60393,3.70305 -1.73594,0.35188 -4.2111,-0.43094 -4.89639,-2.06424 -0.68508,-1.63277 0.58804,-3.81529 1.95695,-4.93839 1.11775,-0.91704 2.91215,-0.27409 4.26682,-0.77927 3.43339,-1.28037 5.80314,-5.6576 9.46684,-5.58807 0,0 0,0 0,0 m 49.51848,-0.20369 c 1.56137,0.0457 3.21486,1.17809 3.91589,2.57398 0.87602,1.74434 1.00372,4.43221 -0.3422,5.84587 -2.51144,2.63772 -7.57687,-0.40746 -10.86035,1.16853 -1.55283,0.74532 -1.95233,3.33981 -3.64406,3.66359 -1.73967,0.33295 -4.20616,-0.47678 -4.87363,-2.11745 -0.66725,-1.64014 0.62957,-3.80867 2.01063,-4.9168 1.12768,-0.90481 2.91497,-0.24236 4.27506,-0.73275 3.44714,-1.2429 5.85588,-5.59227 9.51866,-5.48497 0,0 0,0 0,0 m 49.19683,-0.24584 c 1.56179,0.0273 3.22854,1.14006 3.94599,2.52758 0.89655,1.73387 1.05597,4.42005 -0.27317,5.84949 -2.48013,2.66718 -7.50795,-0.3323 -10.79051,1.2456 -1.55239,0.74622 -1.95038,3.34094 -3.64192,3.66571 -1.73947,0.33397 -4.20643,-0.47432 -4.87485,-2.1146 -0.66821,-1.63975 0.62734,-3.80904 2.00775,-4.91797 1.12715,-0.90546 2.91482,-0.24405 4.27463,-0.73524 3.44641,-1.24491 5.68828,-5.58462 9.35208,-5.52057 0,0 0,0 0,0 m 48.92615,-1.29731 c 1.56192,-0.0182 3.26037,1.04557 4.01792,2.4116 0.94666,1.70704 1.18423,4.38743 -0.10272,5.85498 -2.40141,2.73827 -7.49457,-0.066 -10.73437,1.5979 -1.53217,0.78688 -1.86162,3.39117 -3.544,3.76041 -1.73005,0.3797 -4.21744,-0.36328 -4.92886,-1.98536 -0.7112,-1.62155 0.52671,-3.82422 1.8774,-4.96914 1.10288,-0.93485 2.90736,-0.3208 4.25373,-0.84766 3.41237,-1.33531 5.49679,-5.78006 9.1609,-5.82273 0,0 0,0 0,0 m 48.04941,-3.76969 c 1.55547,-0.14268 3.33331,0.78222 4.19738,2.08347 1.07976,1.62608 1.53033,4.27895 0.36452,5.84443 -2.17535,2.92102 -7.44407,0.46625 -10.55229,2.36458 -1.46995,0.89776 -1.60638,3.51925 -3.25693,4.01159 -1.69732,0.50629 -4.20445,-0.0983 -5.0053,-1.67812 -0.80059,-1.57933 0.31245,-3.84766 1.59714,-5.06618 1.04899,-0.99496 2.72775,-0.50052 4.03159,-1.12527 3.30455,-1.5834 4.9749,-6.09977 8.62389,-6.4345 0,0 0,0 0,0 m 46.03126,-8.90615 c 1.51013,-0.39925 3.11739,0.2891 4.21169,1.40372 1.36746,1.39285 2.31101,3.91285 1.4619,5.67034 -1.58445,3.27933 -6.98347,1.66464 -9.78249,3.99491 -1.32373,1.10203 -1.04366,3.72394 -2.6184,4.42174 -1.61936,0.71758 -4.16328,0.45852 -5.14667,-1.01457 -0.98308,-1.47262 -0.32708,-3.79874 0.76773,-5.19035 0.89395,-1.1363 2.63157,-0.84293 3.83066,-1.65069 3.03908,-2.04724 3.733,-6.69852 7.27558,-7.6351 0,0 0,0 0,0 m 36.49321,-19.46049 c 1.11236,-1.09636 2.49324,-1.01744 4.00973,-0.6439 1.89506,0.46678 4.02147,2.11523 4.22217,4.05652 0.37441,3.62232 -4.78113,4.48643 -6.26689,7.81132 -0.70264,1.57242 0.68774,3.70616 -0.45688,4.99306 -1.17705,1.32337 -3.62894,1.90731 -5.07257,0.88124 -1.44317,-1.02573 -1.74858,-3.34583 -1.25016,-5.04475 0.40699,-1.38723 1.9332,-1.63945 2.71333,-2.85656 1.97724,-3.08476 -0.5082,-6.62498 2.10127,-9.19693 0,0 0,0 0,0 m 9.55218,-36.24561 c 0.0875,-1.55938 1.26347,-3.1818 2.67743,-3.84517 1.76692,-0.82896 4.4569,-0.88473 5.83389,0.49833 2.5693,2.58075 -0.60794,7.56617 0.88144,10.88932 0.70435,1.57159 3.28718,2.03876 3.56656,3.73816 0.2873,1.74756 -0.60307,4.0866 -2.29349,4.61473 -1.68988,0.52796 -3.74084,-0.52764 -4.81232,-1.93703 -0.8749,-1.15082 -0.16601,-2.91994 -0.62061,-4.29222 -1.15216,-3.47802 -5.43807,-6.00797 -5.2329,-9.66612 0,0 0,0 0,0"
           id="path19104"
           inkscape:connector-curvature="0" />
        <path
           style="opacity:1;fill:#004400;fill-opacity:1;fill-rule:nonzero;stroke:none;stroke-width:0;stroke-miterlimit:4;stroke-dasharray:none;stroke-dashoffset:0;stroke-opacity:1"
           d="m 255.01328,1007.7304 c -1.12195,0.9353 -1.71691,2.6398 -0.98297,3.439 0.35244,0.3838 0.89569,0.5633 1.51023,0.4992 0.61453,-0.064 1.45009,-0.4709 1.98887,-0.92 0.53878,-0.4492 1.09764,-1.1769 1.26959,-1.7704 0.17196,-0.5935 0.0914,-1.1599 -0.22386,-1.5748 -0.31529,-0.4149 -0.83952,-0.6441 -1.45737,-0.6374 -0.61784,0.01 -1.56571,0.5152 -2.10449,0.9644 0,0 0,0 0,0 m 48.31848,-20.60084 c -1.40228,0.4091 -2.29269,1.5852 -1.98878,2.62689 0.14594,0.50024 0.55341,0.90194 1.13276,1.11675 0.57936,0.2148 1.28315,0.22511 1.95655,0.0286 0.6734,-0.19645 1.26124,-0.58358 1.63421,-1.07622 0.37297,-0.49264 0.50051,-1.05043 0.35457,-1.55067 -0.14594,-0.50024 -0.55341,-0.90194 -1.13277,-1.11675 -0.57935,-0.21481 -1.28315,-0.22511 -1.95654,-0.0287 0,0 0,0 0,0 m 49.84397,-7.92225 c -1.44429,0.21901 -2.48322,1.2663 -2.32053,2.3392 0.0781,0.51522 0.42857,0.96756 0.97425,1.25751 0.54567,0.28995 1.24187,0.39376 1.93544,0.28859 0.69357,-0.10517 1.3277,-0.41071 1.76288,-0.84939 0.43518,-0.43869 0.63577,-0.97459 0.55765,-1.48981 -0.0781,-0.51523 -0.42858,-0.96757 -0.97425,-1.25752 -0.54567,-0.28995 -1.24187,-0.39376 -1.93544,-0.28858 0,0 0,0 0,0 m 49.87749,-3.10817 c -1.45625,0.11516 -2.56743,1.08549 -2.48187,2.16727 0.0411,0.5195 0.35828,0.99574 0.88183,1.32397 0.52354,0.32823 1.21053,0.48156 1.90985,0.42626 0.69932,-0.0553 1.35367,-0.31472 1.81912,-0.72116 0.46544,-0.40644 0.70384,-0.92663 0.66275,-1.44612 -0.0411,-0.5195 -0.35828,-0.99574 -0.88183,-1.32397 -0.52354,-0.32823 -1.21054,-0.48156 -1.90985,-0.42625 0,0 0,0 0,0 m 49.57113,-0.93336 c -1.45867,0.079 -2.59355,1.02153 -2.53484,2.10511 0.0282,0.52036 0.3335,1.00432 0.84875,1.34543 0.51525,0.34111 1.19824,0.51142 1.89872,0.47346 0.70048,-0.038 1.36107,-0.28107 1.83644,-0.67585 0.47538,-0.39479 0.7266,-0.90891 0.6984,-1.42927 -0.0282,-0.52035 -0.3335,-1.00432 -0.84875,-1.34542 -0.51525,-0.34111 -1.19824,-0.51142 -1.89872,-0.47346 0,0 0,0 0,0 m 49.36381,-0.19153 c -1.45862,0.0799 -2.59296,1.02304 -2.53361,2.10659 0.0285,0.52034 0.33408,1.00413 0.84953,1.34493 0.51545,0.34081 1.19854,0.51072 1.899,0.47235 0.70045,-0.0384 1.3609,-0.28186 1.83604,-0.67692 0.47515,-0.39506 0.72607,-0.90933 0.69757,-1.42967 -0.0285,-0.52034 -0.33409,-1.00412 -0.84954,-1.34493 -0.51545,-0.34081 -1.19853,-0.51072 -1.89899,-0.47235 0,0 0,0 0,0 m 49.26608,-0.33836 c -1.45757,0.0971 -2.5807,1.05358 -2.50856,2.13635 0.0346,0.51997 0.34591,1.00011 0.86535,1.33481 0.51943,0.3347 1.20448,0.49654 1.90443,0.44991 0.69995,-0.0466 1.35748,-0.29791 1.82793,-0.69855 0.47044,-0.40065 0.71528,-0.91784 0.68064,-1.43781 -0.0346,-0.51996 -0.34592,-1.00011 -0.86535,-1.33481 -0.51944,-0.33469 -1.20448,-0.49653 -1.90444,-0.4499 0,0 0,0 0,0 m 48.98884,-1.55931 c -1.45238,0.15675 -2.53537,1.15844 -2.41893,2.23734 0.0559,0.51811 0.38661,0.9851 0.91932,1.29823 0.53271,0.31314 1.22381,0.44677 1.92127,0.3715 0.69745,-0.0753 1.34413,-0.35328 1.79776,-0.77286 0.45364,-0.41959 0.67708,-0.94637 0.62116,-1.46448 -0.0559,-0.51811 -0.3866,-0.9851 -0.91932,-1.29823 -0.53271,-0.31314 -1.22381,-0.44677 -1.92126,-0.3715 0,0 0,0 0,0 m 48.37157,-4.38372 c -1.43196,0.28871 -2.2494,1.31342 -2.05996,2.38191 0.091,0.51311 0.45262,0.95655 1.00536,1.23278 0.55274,0.27622 1.14362,0.37611 1.83127,0.23747 0.68765,-0.13865 1.30623,-0.47454 1.71965,-0.93378 0.41342,-0.45925 0.58781,-1.00423 0.48482,-1.51506 -0.103,-0.51083 -0.47494,-0.94566 -1.03401,-1.20883 -0.55907,-0.26317 -1.25947,-0.33314 -1.94713,-0.19449 0,0 0,0 0,0 m 46.49545,-10.42334 c -1.35097,0.55565 -1.94317,1.73385 -1.55531,2.74732 0.18625,0.48669 0.62514,0.85384 1.22011,1.02069 0.59496,0.16684 1.18121,0.1331 1.82997,-0.13373 0.64875,-0.26683 1.1922,-0.71418 1.51078,-1.24364 0.31858,-0.52946 0.22785,-1.04988 0.0169,-1.5264 -0.21091,-0.47651 -0.475,-0.89133 -1.0739,-1.04343 -0.5989,-0.1521 -1.29983,-0.0876 -1.94859,0.17919 0,0 0,0 0,0 m 36.04913,-23.63931 c -0.74161,1.2583 -0.42558,2.27401 0.47394,2.88075 0.43197,0.29136 1.00205,0.33979 1.58483,0.13464 0.58279,-0.20515 0.97008,-0.41611 1.32622,-1.02036 0.35613,-0.60426 0.51936,-1.28887 0.45378,-1.90321 -0.0656,-0.61434 -0.57467,-0.78622 -1.03919,-1.02222 -0.46452,-0.236 -0.78512,-0.62868 -1.35435,-0.38848 -0.56923,0.24021 -1.08909,0.71462 -1.44523,1.31888 0,0 0,0 0,0 m 7.39544,-43.13556 c 0.0408,1.46006 0.95322,2.61906 2.03783,2.58871 0.52085,-0.0146 1.01257,-0.30708 1.367,-0.81317 0.35442,-0.50608 0.54251,-1.1843 0.52289,-1.88544 -0.0196,-0.70114 -0.24534,-1.36778 -0.62751,-1.85326 -0.38216,-0.48547 -0.88947,-0.75002 -1.41032,-0.73545 -0.52085,0.0146 -1.01257,0.30708 -1.367,0.81317 -0.35442,0.50609 -0.54251,1.1843 -0.52289,1.88544 0,0 0,0 0,0"
           id="path19106"
           inkscape:connector-curvature="0" />
        <path
           style="opacity:1;fill:#004400;fill-opacity:1;fill-rule:nonzero;stroke:none;stroke-width:0;stroke-miterlimit:4;stroke-dasharray:none;stroke-dashoffset:0;stroke-opacity:1"
           d="m 252.2538,1005.7965 c -0.33356,0.424 -0.93658,1.2909 -0.92692,1.766 0.01,0.4751 0.19851,0.8726 0.52501,1.105 0.32651,0.2324 0.76392,0.2807 1.21602,0.1342 0.4521,-0.1464 1.22774,-0.7126 1.5613,-1.1366 0.6946,-0.883 0.72593,-2.0172 0.07,-2.5331 -0.65595,-0.516 -1.75079,-0.2185 -2.44539,0.6645 0,0 0,0 0,0 m 49.32104,-21.54247 c -0.47523,0.25544 -0.85562,0.64066 -1.05748,1.0709 -0.20186,0.43025 -0.20866,0.87029 -0.0189,1.22332 0.18976,0.35302 0.56052,0.59012 1.03073,0.65913 0.47021,0.069 1.00136,-0.0357 1.47659,-0.29117 0.98961,-0.53192 1.47152,-1.55907 1.07638,-2.29421 -0.39514,-0.73514 -1.5177,-0.89988 -2.50731,-0.36797 0,0 0,0 0,0 m 50.24189,-8.13046 c -0.505,0.18998 -0.93325,0.5212 -1.19054,0.92081 -0.25729,0.3996 -0.32255,0.83484 -0.18142,1.20998 0.14113,0.37514 0.47709,0.65944 0.93397,0.79037 0.45688,0.13093 0.99725,0.0978 1.50225,-0.0922 1.05159,-0.39561 1.66584,-1.3496 1.37195,-2.13079 -0.29389,-0.78119 -1.38462,-1.09375 -2.43621,-0.69813 0,0 0,0 0,0 m 50.10148,-3.19747 c -0.51729,0.15338 -0.96813,0.45314 -1.25334,0.83332 -0.28521,0.38018 -0.38142,0.80964 -0.26748,1.19391 0.11394,0.38428 0.42871,0.69188 0.87506,0.85514 0.44635,0.16326 0.98771,0.16881 1.505,0.0154 1.0772,-0.31941 1.7581,-1.22703 1.52082,-2.02724 -0.23727,-0.8002 -1.30286,-1.18997 -2.38006,-0.87056 0,0 0,0 0,0 m 49.65012,-0.96054 c -0.52093,0.14051 -0.97907,0.429 -1.27361,0.802 -0.29455,0.373 -0.40138,0.79995 -0.297,1.18693 0.10438,0.38698 0.41143,0.70229 0.8536,0.87657 0.44217,0.17428 0.98324,0.19324 1.50417,0.0527 1.0848,-0.29262 1.78798,-1.18309 1.57062,-1.98894 -0.21737,-0.80585 -1.27298,-1.2219 -2.35778,-0.92929 0,0 0,0 0,0 m 49.36194,-0.19091 c -0.52085,0.14082 -0.97882,0.42958 -1.27315,0.80275 -0.29433,0.37317 -0.40091,0.80018 -0.2963,1.1871 0.10461,0.38692 0.41185,0.70205 0.85412,0.87607 0.44226,0.17402 0.98334,0.19267 1.5042,0.0518 1.08462,-0.29325 1.78728,-1.18414 1.56944,-1.98985 -0.21784,-0.80572 -1.27369,-1.22117 -2.35831,-0.92792 0,0 0,0 0,0 m 49.22839,-0.32564 c -0.51915,0.14696 -0.97368,0.4411 -1.26358,0.81772 -0.2899,0.37661 -0.39144,0.80486 -0.28227,1.19051 0.10917,0.38566 0.4201,0.69714 0.86439,0.86593 0.4443,0.16878 0.98556,0.18105 1.50471,0.0341 1.08108,-0.30603 1.77318,-1.20515 1.54585,-2.00824 -0.22734,-0.80309 -1.28802,-1.20604 -2.3691,-0.90001 0,0 0,0 0,0 m 48.85918,-1.51174 c -0.5127,0.1681 -0.95479,0.48062 -1.22902,0.8688 -0.27423,0.38818 -0.35813,0.82022 -0.23325,1.20108 0.12488,0.38086 0.44831,0.67935 0.89915,0.82978 0.45083,0.15044 0.99214,0.14052 1.50484,-0.0276 1.06763,-0.35007 1.72231,-1.27679 1.46226,-2.06989 -0.26005,-0.7931 -1.33635,-1.15225 -2.40398,-0.80218 0,0 0,0 0,0 m 48.36259,-4.30774 c -0.50009,0.20254 -0.91992,0.54436 -1.16715,0.95026 -0.24723,0.4059 -0.30159,0.84264 -0.15113,1.21413 0.15045,0.3715 0.49341,0.64732 0.95341,0.76679 0.46001,0.11947 0.79717,0.10614 1.29236,-0.10808 1.03119,-0.44609 1.59849,-1.4287 1.26711,-2.19473 -0.33137,-0.76602 -1.15322,-1.05013 -2.1946,-0.62837 0,0 0,0 0,0 m 45.67739,-10.03287 c -0.44544,0.30444 -0.52124,0.62533 -0.68735,1.07062 -0.1661,0.44529 -0.13699,0.88444 0.0809,1.22082 0.21791,0.33639 0.60679,0.54246 1.08108,0.57289 0.47429,0.0304 0.78537,-0.0646 1.23081,-0.36901 0.92759,-0.63398 1.29776,-1.70651 0.82681,-2.39557 -0.47095,-0.68907 -1.60469,-0.73373 -2.53228,-0.0997 0,0 0,0 0,0 m 35.23655,-22.46486 c -0.20215,0.50017 -0.24841,1.03951 -0.12862,1.49937 0.1198,0.45985 0.39584,0.80256 0.76739,0.95272 0.37156,0.15017 0.8082,0.0955 1.21387,-0.15201 0.40567,-0.24749 0.45725,-0.22236 0.6286,-0.7339 0.35683,-1.06521 0.005,-2.14362 -0.78668,-2.40869 -0.7913,-0.26508 -1.27362,-0.19905 -1.69456,0.84251 0,0 0,0 0,0 m 7.03397,-40.66531 c 0.12682,0.52436 0.4032,0.98983 0.76832,1.29399 0.36512,0.30416 0.78907,0.42211 1.1786,0.3279 0.38953,-0.0942 0.71272,-0.39288 0.89848,-0.83028 0.18576,-0.43741 0.21887,-0.97772 0.092,-1.50209 -0.2641,-1.09193 -1.13577,-1.81808 -1.94692,-1.62189 -0.81116,0.19619 -1.25463,1.24043 -0.99052,2.33237 0,0 0,0 0,0"
           id="path19108"
           inkscape:connector-curvature="0" />
        <path
           style="opacity:1;fill:#004400;fill-opacity:1;fill-rule:nonzero;stroke:none;stroke-width:0;stroke-miterlimit:4;stroke-dasharray:none;stroke-dashoffset:0;stroke-opacity:1"
           d="m 248.93988,1005.1412 c -0.41473,0.992 -0.15357,2.0459 0.58334,2.354 0.35387,0.1479 0.77236,0.1006 1.16342,-0.1316 0.39105,-0.2323 1.14774,-0.9872 1.3695,-1.4535 0.22177,-0.4663 0.29685,-0.9789 0.20873,-1.4251 -0.0881,-0.4462 -0.33222,-0.7895 -0.6786,-0.9542 -0.7213,-0.343 -2.23166,0.6184 -2.64639,1.6104 0,0 0,0 0,0 m 50.51025,-23.04465 c -0.81134,0.70559 -1.40116,1.87676 -0.85977,2.46408 0.25998,0.28205 0.98766,0.33722 1.44114,0.30228 0.45349,-0.0349 0.92714,-0.24492 1.31676,-0.58375 0.38962,-0.33884 0.6633,-0.77878 0.76082,-1.22303 0.0975,-0.44426 0.0109,-0.85644 -0.24082,-1.14587 -0.52415,-0.60271 -1.60678,-0.51931 -2.41813,0.18629 0,0 0,0 0,0 m 50.54758,-8.39395 c -0.898,0.59146 -1.26979,1.61172 -0.83042,2.27881 0.21099,0.32034 0.58465,0.51474 1.03878,0.54042 0.45412,0.0257 0.95151,-0.11946 1.38275,-0.40349 0.43123,-0.28403 0.76099,-0.68369 0.91672,-1.11105 0.15574,-0.42736 0.12469,-0.84741 -0.0863,-1.16776 -0.43937,-0.66708 -1.52353,-0.72839 -2.42153,-0.13693 0,0 0,0 0,0 m 50.27926,-3.32135 c -0.938,0.52573 -1.63499,1.54992 -1.2308,2.23888 0.19411,0.33085 0.78589,0.52994 1.23702,0.58803 0.45113,0.0581 0.95763,-0.0511 1.40807,-0.30358 0.45044,-0.25246 0.80794,-0.62751 0.99383,-1.04264 0.1859,-0.41513 0.18497,-0.83633 -0.003,-1.17095 -0.39055,-0.6968 -1.46755,-0.83548 -2.40555,-0.30974 0,0 0,0 0,0 m 49.71369,-1.00046 c -0.95075,0.50233 -1.41898,1.48209 -1.04582,2.18836 0.17919,0.33916 0.53242,0.56861 0.98197,0.63786 0.44955,0.0693 0.95861,-0.0274 1.41517,-0.26859 0.45657,-0.24122 0.82325,-0.6073 1.01938,-1.0177 0.19613,-0.4104 0.20564,-0.83149 0.0265,-1.17066 -0.37316,-0.70627 -1.4464,-0.8716 -2.39715,-0.36927 0,0 0,0 0,0 m 49.36043,-0.18998 c -0.95046,0.50288 -1.41811,1.48291 -1.04455,2.18896 0.1794,0.33906 0.53276,0.5683 0.98235,0.63729 0.44959,0.069 0.95859,-0.0279 1.41501,-0.26941 0.45643,-0.24149 0.8229,-0.60779 1.01879,-1.0183 0.19589,-0.41051 0.20515,-0.83161 0.0258,-1.17067 -0.37357,-0.70605 -1.4469,-0.87076 -2.39736,-0.36787 0,0 0,0 0,0 m 49.198,-0.30682 c -0.94445,0.51406 -1.40051,1.49955 -1.01863,2.20114 0.18338,0.33692 0.53942,0.56197 0.9898,0.62565 0.45037,0.0637 0.95819,-0.0392 1.41173,-0.2861 0.45354,-0.24686 0.81566,-0.61745 1.00669,-1.03025 0.19103,-0.41279 0.19533,-0.83398 0.0119,-1.17089 -0.38187,-0.7016 -1.45708,-0.85362 -2.40153,-0.33955 0,0 0,0 0,0 m 48.75543,-1.44364 c -0.92259,0.55233 -1.18569,1.53555 -0.78354,2.22573 0.19311,0.33143 0.41795,0.5547 0.87056,0.59987 0.4526,0.0452 0.95578,-0.0785 1.39882,-0.3437 0.44305,-0.26524 0.78968,-0.65036 0.96363,-1.07063 0.17396,-0.42028 0.16099,-0.84128 -0.036,-1.1704 -0.4103,-0.68536 -1.49083,-0.7932 -2.41343,-0.24087 0,0 0,0 0,0 m 48.19699,-4.18557 c -0.88294,0.61371 -1.22912,1.64293 -0.77323,2.29883 0.21893,0.31497 0.59733,0.49997 1.05195,0.51429 0.45463,0.0143 0.94823,-0.14319 1.37223,-0.43791 0.42401,-0.29471 0.45451,-0.66531 0.58936,-1.0997 0.13485,-0.4344 0.0835,-0.85245 -0.14277,-1.1622 -0.47117,-0.64501 -1.2146,-0.72702 -2.09754,-0.11331 0,0 0,0 0,0 m 45.54196,-9.7182 c -0.75112,0.76944 -0.89667,1.84552 -0.32509,2.40349 0.27448,0.26795 0.68101,0.37814 1.13016,0.30634 0.44914,-0.0718 0.63519,-0.22243 0.98665,-0.60072 0.35146,-0.37829 0.5769,-0.84481 0.62671,-1.29692 0.0498,-0.4521 -0.0801,-0.85277 -0.36108,-1.11386 -0.58519,-0.54369 -1.30623,-0.46776 -2.05735,0.30167 0,0 0,0 0,0 m 34.23811,-20.70565 c -0.17286,1.06115 0.77107,1.41043 1.55045,1.58494 0.37428,0.0838 0.33844,0.48732 0.66481,0.17059 0.32637,-0.31673 0.55636,-0.78094 0.63937,-1.29053 0.083,-0.50958 -0.42401,-0.40604 -0.65716,-0.79652 -0.23315,-0.39047 -0.57851,-0.63149 -0.9601,-0.67002 -0.79463,-0.0802 -1.06451,-0.0596 -1.23737,1.00154 0,0 0,0 0,0 m 7.42194,-38.85511 c 0.47723,0.96344 1.44429,1.45707 2.15998,1.10256 0.34369,-0.17024 0.58227,-0.5173 0.66325,-0.96483 0.081,-0.44753 -0.002,-0.95887 -0.23145,-1.42153 -0.22918,-0.46266 -0.58549,-0.83874 -0.99057,-1.04551 -0.40507,-0.20677 -0.82573,-0.2273 -1.16942,-0.0571 -0.7157,0.35451 -0.90901,1.42292 -0.43179,2.38636 0,0 0,0 0,0"
           id="path19110"
           inkscape:connector-curvature="0" />
        <path
           style="opacity:1;fill:#004400;fill-opacity:1;fill-rule:nonzero;stroke:none;stroke-width:0;stroke-miterlimit:4;stroke-dasharray:none;stroke-dashoffset:0;stroke-opacity:1"
           d="m 245.36983,1005.2565 c -0.16584,0.4653 -0.18757,0.9605 -0.0604,1.3767 0.12715,0.4161 0.39277,0.7191 0.73842,0.8423 0.71979,0.2565 2.11564,-0.767 2.50975,-1.7171 0.39411,-0.9502 0.1414,-1.9578 -0.56444,-2.2506 -0.33896,-0.1406 -0.73921,-0.094 -1.11272,0.1291 -0.3735,0.2232 -1.34476,1.1543 -1.51059,1.6196 0,0 0,0 0,0 m 51.18553,-24.70684 c -0.3623,0.33585 -0.61065,0.76487 -0.69041,1.19266 -0.0798,0.42779 0.0156,0.81932 0.26508,1.08846 0.51955,0.56044 1.92958,0.32694 2.70391,-0.35031 0.77432,-0.67724 0.9942,-1.69256 0.4911,-2.26777 -0.24159,-0.27623 -0.62101,-0.41195 -1.05477,-0.3773 -0.43377,0.0346 -1.35262,0.3784 -1.71491,0.71426 0,0 0,0 0,0 m 51.25178,-8.85536 c -0.4118,0.2729 -0.72621,0.65615 -0.87405,1.06543 -0.14784,0.40928 -0.11701,0.81108 0.0857,1.11699 0.42215,0.63703 1.45955,0.69276 2.3171,0.12447 0.85754,-0.56828 1.21049,-1.54539 0.78833,-2.18242 -0.20272,-0.30591 -0.56074,-0.49089 -0.99528,-0.51423 -0.43454,-0.0233 -0.91001,0.11686 -1.32182,0.38976 0,0 0,0 0,0 m 50.10296,-3.42599 c -0.42539,0.25119 -0.75924,0.61762 -0.9281,1.01868 -0.16886,0.40107 -0.15889,0.80392 0.0277,1.11993 0.38857,0.65805 1.42167,0.76748 2.30752,0.24441 0.88584,-0.52306 1.5962,-1.47446 1.22068,-2.14005 -0.18034,-0.31963 -0.85482,-0.51784 -1.28756,-0.56368 -0.43274,-0.0458 -0.91484,0.0695 -1.34024,0.32071 0,0 0,0 0,0 m 50.09335,-1.09729 c -0.43615,0.23202 -0.78598,0.58324 -0.97251,0.97641 -0.18654,0.39317 -0.1945,0.79607 -0.0222,1.12007 0.35892,0.6747 1.38615,0.82998 2.2944,0.34682 0.90825,-0.48315 1.35358,-1.42177 0.99466,-2.09647 -0.17235,-0.324 -0.51091,-0.54256 -0.94119,-0.60761 -0.43029,-0.065 -0.91705,0.0288 -1.35321,0.26078 0,0 0,0 0,0 m 49.35915,-0.18882 c -0.43603,0.23227 -0.78564,0.5837 -0.97195,0.97698 -0.1863,0.39327 -0.19403,0.79618 -0.0215,1.12008 0.35931,0.67448 1.38663,0.82916 2.2946,0.34548 0.90796,-0.48368 1.35274,-1.42256 0.99343,-2.09705 -0.17254,-0.3239 -0.51123,-0.54227 -0.94155,-0.60706 -0.43032,-0.0648 -0.91702,0.0293 -1.35304,0.26157 0,0 0,0 0,0 m 49.17207,-0.28319 c -0.43325,0.23741 -0.7787,0.59294 -0.96035,0.98838 -0.18165,0.39545 -0.18462,0.79841 -0.008,1.12026 0.36724,0.67019 1.39632,0.81274 2.29851,0.31837 0.90219,-0.49436 1.33586,-1.43843 0.96861,-2.10863 -0.17635,-0.32184 -0.51759,-0.53619 -0.94865,-0.5959 -0.43105,-0.0597 -0.91661,0.0401 -1.34986,0.27752 0,0 0,0 0,0 m 48.86321,-1.38819 c -0.42615,0.24991 -0.7611,0.61535 -0.93115,1.01592 -0.17006,0.40057 -0.1613,0.80345 0.0244,1.12002 0.38661,0.65922 1.4194,0.77174 2.30682,0.25131 0.88741,-0.52043 1.10839,-1.4798 0.714,-2.13439 -0.1894,-0.31434 -0.3402,-0.52245 -0.77281,-0.56958 -0.43261,-0.0471 -0.91506,0.0668 -1.34121,0.31672 0,0 0,0 0,0 m 47.86359,-4.00898 c -0.40486,0.2831 -0.70959,0.67408 -0.84716,1.08693 -0.13757,0.41285 -0.0967,0.81374 0.1136,1.1145 0.43793,0.62628 1.4764,0.65607 2.31947,0.0665 0.84307,-0.58953 1.1715,-1.57514 0.73356,-2.20142 -0.2103,-0.30076 -0.57282,-0.47673 -1.00781,-0.48921 -0.43499,-0.0125 -0.90681,0.13956 -1.31166,0.42266 0,0 0,0 0,0 m 45.2134,-9.25992 c -0.34409,0.35448 -0.21667,0.68787 -0.28371,1.11784 -0.067,0.42997 0.0399,0.8185 0.29726,1.08011 0.53595,0.54478 1.25566,0.46779 1.9722,-0.27037 0.71653,-0.73816 0.85288,-1.76806 0.30453,-2.30035 -0.26333,-0.25561 -0.65256,-0.35994 -1.08207,-0.29003 -0.42951,0.0699 -0.86412,0.30833 -1.20821,0.6628 0,0 0,0 0,0 m 34.40084,-19.76423 c -0.10656,0.48233 -0.0664,0.97635 0.11157,1.37339 0.178,0.39704 0.4793,0.66457 0.8376,0.74373 0.74613,0.16485 1.06578,0.14089 1.22829,-0.8748 0.16252,-1.0157 -0.3174,-1.93694 -1.07191,-2.05767 -0.36233,-0.058 -0.74083,0.0802 -1.05222,0.38409 -0.31139,0.3039 0.0532,-0.0511 -0.0533,0.43126 0,0 0,0 0,0 m 7.56711,-36.37339 c 0.22051,0.44202 0.56242,0.80087 0.95052,0.9976 0.3881,0.19673 0.7906,0.21522 1.11896,0.0514 0.68377,-0.3411 0.86584,-1.36379 0.40667,-2.28425 -0.45917,-0.92046 -1.38571,-1.39012 -2.06948,-1.04902 -0.32835,0.1638 -0.55567,0.49649 -0.63193,0.92487 -0.0763,0.42838 0.005,0.91736 0.22526,1.35938 0,0 0,0 0,0"
           id="path19112"
           inkscape:connector-curvature="0" />
        <path
           style="opacity:1;fill:#004400;fill-opacity:1;fill-rule:nonzero;stroke:none;stroke-width:0;stroke-miterlimit:4;stroke-dasharray:none;stroke-dashoffset:0;stroke-opacity:1"
           d="m 242.62914,1006.5557 c -0.16516,0.9139 -0.33058,2.389 0.35389,2.4751 0.32869,0.041 1.24643,-0.6572 1.53303,-0.9258 0.28661,-0.2687 0.49217,-0.6661 0.57148,-1.105 0.0793,-0.4388 0.0259,-0.8831 -0.14857,-1.2351 -0.17444,-0.352 -0.45558,-0.5828 -0.78159,-0.6417 -0.67887,-0.1227 -1.36309,0.5187 -1.52824,1.4325 0,0 0,0 0,0 m 50.89511,-26.12195 c -0.5692,0.7339 -0.90835,1.78281 -0.35438,2.19406 0.26602,0.19749 0.93236,0.15817 1.31077,0.0525 0.3784,-0.10563 0.74454,-0.36296 1.01788,-0.71539 0.27334,-0.35243 0.43148,-0.77108 0.43964,-1.16387 0.008,-0.39278 -0.13434,-0.72752 -0.39615,-0.93057 -0.54518,-0.42283 -1.44856,-0.17067 -2.01776,0.56323 0,0 0,0 0,0 m 50.96391,-9.28692 c -0.6675,0.64578 -0.81972,1.57126 -0.34,2.06711 0.23037,0.23812 0.57865,0.3433 0.9682,0.29239 0.38956,-0.0509 1.09244,-0.28246 1.41914,-0.58609 0.3267,-0.30363 0.55041,-0.69124 0.62193,-1.07754 0.0715,-0.38631 -0.015,-0.73967 -0.24058,-0.98236 -0.46969,-0.50537 -1.76119,-0.35929 -2.42869,0.28649 0,0 0,0 0,0 m 50.48473,-3.63597 c -0.71216,0.59616 -0.93048,1.50831 -0.48762,2.03735 0.21267,0.25405 0.55249,0.38397 0.94469,0.36118 0.39221,-0.0228 0.80468,-0.19643 1.14667,-0.48272 0.34199,-0.28628 0.5855,-0.66176 0.67694,-1.04384 0.0914,-0.38208 0.0233,-0.73945 -0.18932,-0.9935 -0.44286,-0.52904 -1.3792,-0.47462 -2.09136,0.12153 0,0 0,0 0,0 m 49.93948,-1.21332 c -0.73181,0.5719 -0.98065,1.47622 -0.55581,2.01984 0.20402,0.26106 0.53928,0.40233 0.93204,0.39273 0.39275,-0.01 0.97675,-0.17037 1.33115,-0.44117 0.35439,-0.27079 0.61436,-0.63508 0.72272,-1.01271 0.10835,-0.37764 0.0562,-0.7377 -0.14495,-1.00096 -0.4189,-0.54822 -1.55335,-0.52963 -2.28515,0.0423 0,0 0,0 0,0 m 49.54905,-0.20101 c -0.73766,0.56433 -0.99582,1.46603 -0.5766,2.01401 0.20131,0.26314 0.5351,0.40786 0.92794,0.40231 0.39283,-0.006 0.81253,-0.16092 1.16677,-0.43192 0.35424,-0.271 0.614,-0.63544 0.72213,-1.01314 0.10813,-0.3777 0.0558,-0.73772 -0.14553,-1.00087 -0.41922,-0.54798 -1.35705,-0.53472 -2.09471,0.0296 0,0 0,0 0,0 m 49.16182,-0.24888 c -0.73095,0.57299 -0.97844,1.47768 -0.55278,2.02067 0.2044,0.26075 0.53988,0.40152 0.93262,0.39133 0.39274,-0.0102 0.81058,-0.1705 1.16159,-0.44566 0.35101,-0.27517 0.60645,-0.64264 0.71012,-1.02159 0.10366,-0.37895 0.0471,-0.73833 -0.15734,-0.99908 -0.42565,-0.54299 -1.36326,-0.51867 -2.09421,0.0543 0,0 0,0 0,0 m 48.83965,-1.30306 c -0.71395,0.59404 -0.93499,1.50555 -0.4937,2.03591 0.21191,0.2547 0.55134,0.38563 0.94362,0.36401 0.39228,-0.0216 0.80527,-0.19403 1.14812,-0.4793 0.34285,-0.28527 0.58748,-0.66003 0.68007,-1.04183 0.0926,-0.38181 0.0256,-0.73939 -0.18636,-0.99408 -0.44129,-0.53037 -1.37779,-0.47875 -2.09175,0.11529 0,0 0,0 0,0 m 47.81188,-3.77247 c -0.6643,0.64908 -0.81194,1.5753 -0.32977,2.06877 0.23154,0.23698 0.58033,0.34043 0.96963,0.28759 0.3893,-0.0528 0.78722,-0.25762 1.10623,-0.56932 0.319,-0.3117 0.53296,-0.70476 0.5948,-1.09273 0.0618,-0.38797 -0.0335,-0.73906 -0.26504,-0.97604 -0.48217,-0.49348 -1.41156,-0.36734 -2.07585,0.28173 0,0 0,0 0,0 m 45.5379,-8.8509 c -0.54717,0.75046 -0.5388,1.68834 0.0187,2.09481 0.26771,0.19519 0.62884,0.23923 1.00395,0.12242 0.3751,-0.11681 0.73344,-0.38489 0.9962,-0.74527 0.26276,-0.36039 0.0528,-0.67498 0.0403,-1.06765 -0.0125,-0.39267 -0.17249,-0.71943 -0.44463,-0.9084 -0.5667,-0.39351 -1.06731,-0.24636 -1.61448,0.50409 0,0 0,0 0,0 m 35.11948,-18.78828 c -0.10223,0.92301 0.37074,1.73282 1.05641,1.80876 0.32927,0.0365 0.66455,-0.10463 0.93209,-0.39227 0.26754,-0.28763 -0.1318,-0.0614 -0.10779,-0.50672 0.024,-0.44531 -0.0844,-0.87946 -0.3013,-1.20695 -0.21692,-0.32749 -0.52463,-0.5215 -0.85543,-0.53933 -0.68885,-0.0371 -0.62175,-0.0865 -0.72398,0.83651 0,0 0,0 0,0 m 8.54786,-34.35254 c 0.54434,0.75239 1.4387,1.03452 1.99762,0.63016 0.2684,-0.19418 0.42197,-0.52394 0.42693,-0.91673 0.005,-0.3928 -0.13912,-0.81645 -0.40052,-1.17776 -0.2614,-0.36131 -0.61871,-0.63068 -0.99334,-0.74886 -0.37462,-0.11818 -0.73587,-0.0755 -1.00428,0.1187 -0.55892,0.40436 -0.57074,1.3421 -0.0264,2.09449 0,0 0,0 0,0"
           id="path19114"
           inkscape:connector-curvature="0" />
      </g>
    </g>
  </g>
</svg>
