<?xml version="1.0" encoding="UTF-8" standalone="no"?>
<svg
   xmlns:dc="http://purl.org/dc/elements/1.1/"
   xmlns:cc="http://creativecommons.org/ns#"
   xmlns:rdf="http://www.w3.org/1999/02/22-rdf-syntax-ns#"
   xmlns:svg="http://www.w3.org/2000/svg"
   xmlns="http://www.w3.org/2000/svg"
   xmlns:sodipodi="http://sodipodi.sourceforge.net/DTD/sodipodi-0.dtd"
   xmlns:inkscape="http://www.inkscape.org/namespaces/inkscape"
   height="24px"
   id="Layer_1"
   version="1.2"
   viewBox="0 0 24 24"
   width="24px"
   xml:space="preserve"
   inkscape:version="0.91 r13725"
   sodipodi:docname="mail.svg"
   inkscape:export-filename="/home/markus/devel/psyhp/sites/marion/static/gfx/mail.png"
   inkscape:export-xdpi="67.5"
   inkscape:export-ydpi="67.5"><metadata
     id="metadata9"><rdf:RDF><cc:Work
         rdf:about=""><dc:format>image/svg+xml</dc:format><dc:type
           rdf:resource="http://purl.org/dc/dcmitype/StillImage" /></cc:Work></rdf:RDF></metadata><defs
     id="defs7" /><sodipodi:namedview
     pagecolor="#ffffff"
     bordercolor="#666666"
     borderopacity="1"
     objecttolerance="10"
     gridtolerance="10"
     guidetolerance="10"
     inkscape:pageopacity="0"
     inkscape:pageshadow="2"
     inkscape:window-width="1920"
     inkscape:window-height="1016"
     id="namedview5"
     showgrid="true"
     inkscape:zoom="9.8333333"
     inkscape:cx="9.3518231"
     inkscape:cy="18.509813"
     inkscape:window-x="0"
     inkscape:window-y="27"
     inkscape:window-maximized="1"
     inkscape:current-layer="Layer_1"><inkscape:grid
       type="xygrid"
       id="grid4133" /></sodipodi:namedview><path
     d="M 19,5 5,5 C 3.896,5 3,5.896 3,7 l 0,9 c 0,1.104 0.896,2 2,2 l 14,0 c 1.104,0 2,-0.896 2,-2 L 21,7 C 21,5.896 20.104,5 19,5 Z m -9.684,7.316 1.602,1.4 c 0.305,0.266 0.691,0.398 1.082,0.398 0.391,0 0.777,-0.133 1.082,-0.398 l 1.602,-1.4 -0.037,0.037 3.646,3.646 -12.586,0 3.646,-3.646 -0.037,-0.037 z M 5,15.293 5,8.54 8.602,11.691 5,15.293 Z M 15.398,11.691 19,8.54 19,15.29 15.398,11.691 Z M 19,7 l 0,0.21 -6.576,5.754 c -0.227,0.198 -0.621,0.198 -0.848,0 L 5,7.21 5,7 19,7 Z"
     id="path3"
     style="fill:#004400;fill-opacity:1"
     inkscape:connector-curvature="0" /></svg>