<?xml version="1.0" encoding="UTF-8" standalone="no"?>
<svg
   xmlns:dc="http://purl.org/dc/elements/1.1/"
   xmlns:cc="http://creativecommons.org/ns#"
   xmlns:rdf="http://www.w3.org/1999/02/22-rdf-syntax-ns#"
   xmlns:svg="http://www.w3.org/2000/svg"
   xmlns="http://www.w3.org/2000/svg"
   xmlns:sodipodi="http://sodipodi.sourceforge.net/DTD/sodipodi-0.dtd"
   xmlns:inkscape="http://www.inkscape.org/namespaces/inkscape"
   height="24px"
   id="Layer_1"
   version="1.2"
   viewBox="0 0 24 24"
   width="24px"
   xml:space="preserve"
   inkscape:version="0.91 r13725"
   sodipodi:docname="phone.svg"
   inkscape:export-filename="/home/markus/devel/psyhp/sites/marion/static/gfx/phone.png"
   inkscape:export-xdpi="67.5"
   inkscape:export-ydpi="67.5"><metadata
     id="metadata15"><rdf:RDF><cc:Work
         rdf:about=""><dc:format>image/svg+xml</dc:format><dc:type
           rdf:resource="http://purl.org/dc/dcmitype/StillImage" /></cc:Work></rdf:RDF></metadata><defs
     id="defs13" /><sodipodi:namedview
     pagecolor="#ffffff"
     bordercolor="#666666"
     borderopacity="1"
     objecttolerance="10"
     gridtolerance="10"
     guidetolerance="10"
     inkscape:pageopacity="0"
     inkscape:pageshadow="2"
     inkscape:window-width="1920"
     inkscape:window-height="1016"
     id="namedview11"
     showgrid="true"
     inkscape:zoom="19.666667"
     inkscape:cx="8.195739"
     inkscape:cy="13.310153"
     inkscape:window-x="0"
     inkscape:window-y="27"
     inkscape:window-maximized="1"
     inkscape:current-layer="Layer_1"
     showguides="false" /><g
     id="g3"
     style="fill:#004400;fill-opacity:1"
     transform="matrix(0.99743191,0,0,0.9982091,0.50642023,0.49000314)"><path
       d="m 13.374,7.083 3.711,-3.71 -0.438,-0.434 c -0.566,-0.566 -1.555,-0.566 -2.121,0 L 12.94,4.525 c -0.284,0.284 -0.44,0.661 -0.44,1.061 0,0.4 0.156,0.777 0.438,1.06 l 0.436,0.437 z"
       id="path5"
       style="fill:#004400;fill-opacity:1"
       inkscape:connector-curvature="0" /><path
       d="m 6.646,12.939 c -0.566,-0.566 -1.555,-0.566 -2.121,0 L 2.939,14.525 C 2.656,14.809 2.5,15.186 2.5,15.586 c 0,0.4 0.156,0.777 0.441,1.062 L 3.378,17.08 7.081,13.377 6.646,12.939 Z"
       id="path7"
       style="fill:#004400;fill-opacity:1"
       inkscape:connector-curvature="0" /><path
       d="m 18.437,4.729 -0.354,-0.354 -3.708,3.708 0.65,0.649 c 0.095,0.095 0.146,0.22 0.146,0.354 0,0.134 -0.052,0.259 -0.146,0.354 l -5.586,5.586 c -0.189,0.188 -0.518,0.189 -0.707,0 l -0.65,-0.65 -3.702,3.71 0.354,0.354 c 0.26,0.26 1.246,1.105 3.056,1.105 1.616,0 4.256,-0.712 7.65,-4.105 6.773,-6.775 3.158,-10.55 2.997,-10.711 z"
       id="path9"
       style="fill:#004400;fill-opacity:1"
       inkscape:connector-curvature="0" /></g></svg>