<?xml version="1.0" encoding="UTF-8" standalone="no"?>
<svg
   xmlns:dc="http://purl.org/dc/elements/1.1/"
   xmlns:cc="http://creativecommons.org/ns#"
   xmlns:rdf="http://www.w3.org/1999/02/22-rdf-syntax-ns#"
   xmlns:svg="http://www.w3.org/2000/svg"
   xmlns="http://www.w3.org/2000/svg"
   version="1.1"
   id="svg7266"
   viewBox="0 0 744.09448819 1052.3622047"
   height="297mm"
   width="210mm">
  <defs
     id="defs7268" />
  <metadata
     id="metadata7271">
    <rdf:RDF>
      <cc:Work
         rdf:about="">
        <dc:format>image/svg+xml</dc:format>
        <dc:type
           rdf:resource="http://purl.org/dc/dcmitype/StillImage" />
        <dc:title></dc:title>
      </cc:Work>
    </rdf:RDF>
  </metadata>
  <g
     id="layer1">
    <g
       id="g19102"
       style="display:inline;fill:#004400;fill-opacity:1;stroke:#000000;stroke-opacity:1"
       transform="translate(-1540.5879,-375.94718)">
      <path
         id="path19104"
         d="m 243.87053,1009.483 c 1.12852,-1.0797 4.22814,-2.2942 5.65603,-1.6613 1.78433,0.791 3.58987,2.7859 3.44808,4.7324 -0.26464,3.6321 -6.72862,5.9596 -7.50547,9.5173 -0.36739,1.6825 1.40389,3.696 0.71368,5.2738 -0.70978,1.6225 -2.65697,3.5072 -4.41852,3.3228 -1.76098,-0.1844 -2.92106,-2.6702 -3.16377,-4.4239 -0.19817,-1.4319 1.61304,-3.0586 1.97827,-4.4573 0.92567,-3.5449 0.64432,-9.7708 3.2917,-12.3038 0,0 0,0 0,0 m 49.85034,-26.02526 c 1.5135,-0.38623 3.70231,0.23039 4.73636,1.40113 1.29219,1.46298 2.10164,4.02921 1.16109,5.73954 -1.75505,3.1913 -7.68073,1.71569 -10.34601,4.19778 -1.26047,1.17383 -0.89559,3.81692 -2.39402,4.66625 -1.54089,0.87336 -4.20043,1.01056 -5.4294,-0.26489 -1.22858,-1.27503 -0.63812,-3.83631 0.27533,-5.35312 0.74586,-1.23852 2.86912,-1.29055 3.99999,-2.1913 2.8662,-2.28296 4.44614,-7.28932 7.99666,-8.19539 0,0 0,0 0,0 m 50.83601,-9.33531 c 1.55617,-0.13499 3.59955,0.80934 4.43084,2.13178 1.0388,1.65256 1.42295,4.31587 0.2184,5.85174 -2.24767,2.86578 -7.70323,0.4401 -10.78142,2.38672 -1.45574,0.9206 -1.58651,3.5634 -3.21686,4.11893 -1.67655,0.57127 -4.23152,0.11188 -5.12032,-1.42019 -0.88851,-1.53157 0.0946,-3.85911 1.30841,-5.14824 0.9911,-1.0526 2.85302,-0.64475 4.13182,-1.31923 3.24109,-1.70947 5.37853,-6.28484 9.02913,-6.60151 0,0 0,0 0,0 m 50.27079,-3.63873 c 1.56184,-0.0228 3.26342,1.03581 4.02504,2.39956 0.95173,1.70417 1.1973,4.3838 -0.0852,5.85515 -2.39319,2.74539 -7.59104,-0.0723 -10.80111,1.64818 -1.51811,0.81364 -1.8018,3.42328 -3.47742,3.82199 -1.72311,0.41 -4.22313,-0.2892 -4.9629,-1.89853 -0.73954,-1.6088 0.45951,-3.83284 1.78989,-5.00127 1.08629,-0.95406 2.90125,-0.37178 4.23816,-0.92218 3.38837,-1.39498 5.60968,-5.8493 9.27358,-5.9029 0,0 0,0 0,0 m 49.83967,-1.21983 c 1.56175,0.0296 3.3723,1.16324 4.07251,2.55955 0.875,1.74485 1.00113,4.4328 -0.34562,5.84567 -2.51298,2.63626 -7.65106,-0.34995 -10.91718,1.2617 -1.54461,0.76218 -1.91583,3.36087 -3.60393,3.70305 -1.73594,0.35188 -4.2111,-0.43094 -4.89639,-2.06424 -0.68508,-1.63277 0.58804,-3.81529 1.95695,-4.93839 1.11775,-0.91704 2.91215,-0.27409 4.26682,-0.77927 3.43339,-1.28037 5.80314,-5.6576 9.46684,-5.58807 0,0 0,0 0,0 m 49.51848,-0.20369 c 1.56137,0.0457 3.21486,1.17809 3.91589,2.57398 0.87602,1.74434 1.00372,4.43221 -0.3422,5.84587 -2.51144,2.63772 -7.57687,-0.40746 -10.86035,1.16853 -1.55283,0.74532 -1.95233,3.33981 -3.64406,3.66359 -1.73967,0.33295 -4.20616,-0.47678 -4.87363,-2.11745 -0.66725,-1.64014 0.62957,-3.80867 2.01063,-4.9168 1.12768,-0.90481 2.91497,-0.24236 4.27506,-0.73275 3.44714,-1.2429 5.85588,-5.59227 9.51866,-5.48497 0,0 0,0 0,0 m 49.19683,-0.24584 c 1.56179,0.0273 3.22854,1.14006 3.94599,2.52758 0.89655,1.73387 1.05597,4.42005 -0.27317,5.84949 -2.48013,2.66718 -7.50795,-0.3323 -10.79051,1.2456 -1.55239,0.74622 -1.95038,3.34094 -3.64192,3.66571 -1.73947,0.33397 -4.20643,-0.47432 -4.87485,-2.1146 -0.66821,-1.63975 0.62734,-3.80904 2.00775,-4.91797 1.12715,-0.90546 2.91482,-0.24405 4.27463,-0.73524 3.44641,-1.24491 5.68828,-5.58462 9.35208,-5.52057 0,0 0,0 0,0 m 48.92615,-1.29731 c 1.56192,-0.0182 3.26037,1.04557 4.01792,2.4116 0.94666,1.70704 1.18423,4.38743 -0.10272,5.85498 -2.40141,2.73827 -7.49457,-0.066 -10.73437,1.5979 -1.53217,0.78688 -1.86162,3.39117 -3.544,3.76041 -1.73005,0.3797 -4.21744,-0.36328 -4.92886,-1.98536 -0.7112,-1.62155 0.52671,-3.82422 1.8774,-4.96914 1.10288,-0.93485 2.90736,-0.3208 4.25373,-0.84766 3.41237,-1.33531 5.49679,-5.78006 9.1609,-5.82273 0,0 0,0 0,0 m 48.04941,-3.76969 c 1.55547,-0.14268 3.33331,0.78222 4.19738,2.08347 1.07976,1.62608 1.53033,4.27895 0.36452,5.84443 -2.17535,2.92102 -7.44407,0.46625 -10.55229,2.36458 -1.46995,0.89776 -1.60638,3.51925 -3.25693,4.01159 -1.69732,0.50629 -4.20445,-0.0983 -5.0053,-1.67812 -0.80059,-1.57933 0.31245,-3.84766 1.59714,-5.06618 1.04899,-0.99496 2.72775,-0.50052 4.03159,-1.12527 3.30455,-1.5834 4.9749,-6.09977 8.62389,-6.4345 0,0 0,0 0,0 m 46.03126,-8.90615 c 1.51013,-0.39925 3.11739,0.2891 4.21169,1.40372 1.36746,1.39285 2.31101,3.91285 1.4619,5.67034 -1.58445,3.27933 -6.98347,1.66464 -9.78249,3.99491 -1.32373,1.10203 -1.04366,3.72394 -2.6184,4.42174 -1.61936,0.71758 -4.16328,0.45852 -5.14667,-1.01457 -0.98308,-1.47262 -0.32708,-3.79874 0.76773,-5.19035 0.89395,-1.1363 2.63157,-0.84293 3.83066,-1.65069 3.03908,-2.04724 3.733,-6.69852 7.27558,-7.6351 0,0 0,0 0,0 m 36.49321,-19.46049 c 1.11236,-1.09636 2.49324,-1.01744 4.00973,-0.6439 1.89506,0.46678 4.02147,2.11523 4.22217,4.05652 0.37441,3.62232 -4.78113,4.48643 -6.26689,7.81132 -0.70264,1.57242 0.68774,3.70616 -0.45688,4.99306 -1.17705,1.32337 -3.62894,1.90731 -5.07257,0.88124 -1.44317,-1.02573 -1.74858,-3.34583 -1.25016,-5.04475 0.40699,-1.38723 1.9332,-1.63945 2.71333,-2.85656 1.97724,-3.08476 -0.5082,-6.62498 2.10127,-9.19693 0,0 0,0 0,0 m 9.55218,-36.24561 c 0.0875,-1.55938 1.26347,-3.1818 2.67743,-3.84517 1.76692,-0.82896 4.4569,-0.88473 5.83389,0.49833 2.5693,2.58075 -0.60794,7.56617 0.88144,10.88932 0.70435,1.57159 3.28718,2.03876 3.56656,3.73816 0.2873,1.74756 -0.60307,4.0866 -2.29349,4.61473 -1.68988,0.52796 -3.74084,-0.52764 -4.81232,-1.93703 -0.8749,-1.15082 -0.16601,-2.91994 -0.62061,-4.29222 -1.15216,-3.47802 -5.43807,-6.00797 -5.2329,-9.66612 0,0 0,0 0,0"
         style="fill:#004400;fill-opacity:1;fill-rule:evenodd;stroke:none;stroke-width:0.95363015px;stroke-linecap:butt;stroke-linejoin:miter;stroke-opacity:1" />
      <path
         id="path19106"
         d="m 255.01328,1007.7304 c -1.12195,0.9353 -1.71691,2.6398 -0.98297,3.439 0.35244,0.3838 0.89569,0.5633 1.51023,0.4992 0.61453,-0.064 1.45009,-0.4709 1.98887,-0.92 0.53878,-0.4492 1.09764,-1.1769 1.26959,-1.7704 0.17196,-0.5935 0.0914,-1.1599 -0.22386,-1.5748 -0.31529,-0.4149 -0.83952,-0.6441 -1.45737,-0.6374 -0.61784,0.01 -1.56571,0.5152 -2.10449,0.9644 0,0 0,0 0,0 m 48.31848,-20.60084 c -1.40228,0.4091 -2.29269,1.5852 -1.98878,2.62689 0.14594,0.50024 0.55341,0.90194 1.13276,1.11675 0.57936,0.2148 1.28315,0.22511 1.95655,0.0286 0.6734,-0.19645 1.26124,-0.58358 1.63421,-1.07622 0.37297,-0.49264 0.50051,-1.05043 0.35457,-1.55067 -0.14594,-0.50024 -0.55341,-0.90194 -1.13277,-1.11675 -0.57935,-0.21481 -1.28315,-0.22511 -1.95654,-0.0287 0,0 0,0 0,0 m 49.84397,-7.92225 c -1.44429,0.21901 -2.48322,1.2663 -2.32053,2.3392 0.0781,0.51522 0.42857,0.96756 0.97425,1.25751 0.54567,0.28995 1.24187,0.39376 1.93544,0.28859 0.69357,-0.10517 1.3277,-0.41071 1.76288,-0.84939 0.43518,-0.43869 0.63577,-0.97459 0.55765,-1.48981 -0.0781,-0.51523 -0.42858,-0.96757 -0.97425,-1.25752 -0.54567,-0.28995 -1.24187,-0.39376 -1.93544,-0.28858 0,0 0,0 0,0 m 49.87749,-3.10817 c -1.45625,0.11516 -2.56743,1.08549 -2.48187,2.16727 0.0411,0.5195 0.35828,0.99574 0.88183,1.32397 0.52354,0.32823 1.21053,0.48156 1.90985,0.42626 0.69932,-0.0553 1.35367,-0.31472 1.81912,-0.72116 0.46544,-0.40644 0.70384,-0.92663 0.66275,-1.44612 -0.0411,-0.5195 -0.35828,-0.99574 -0.88183,-1.32397 -0.52354,-0.32823 -1.21054,-0.48156 -1.90985,-0.42625 0,0 0,0 0,0 m 49.57113,-0.93336 c -1.45867,0.079 -2.59355,1.02153 -2.53484,2.10511 0.0282,0.52036 0.3335,1.00432 0.84875,1.34543 0.51525,0.34111 1.19824,0.51142 1.89872,0.47346 0.70048,-0.038 1.36107,-0.28107 1.83644,-0.67585 0.47538,-0.39479 0.7266,-0.90891 0.6984,-1.42927 -0.0282,-0.52035 -0.3335,-1.00432 -0.84875,-1.34542 -0.51525,-0.34111 -1.19824,-0.51142 -1.89872,-0.47346 0,0 0,0 0,0 m 49.36381,-0.19153 c -1.45862,0.0799 -2.59296,1.02304 -2.53361,2.10659 0.0285,0.52034 0.33408,1.00413 0.84953,1.34493 0.51545,0.34081 1.19854,0.51072 1.899,0.47235 0.70045,-0.0384 1.3609,-0.28186 1.83604,-0.67692 0.47515,-0.39506 0.72607,-0.90933 0.69757,-1.42967 -0.0285,-0.52034 -0.33409,-1.00412 -0.84954,-1.34493 -0.51545,-0.34081 -1.19853,-0.51072 -1.89899,-0.47235 0,0 0,0 0,0 m 49.26608,-0.33836 c -1.45757,0.0971 -2.5807,1.05358 -2.50856,2.13635 0.0346,0.51997 0.34591,1.00011 0.86535,1.33481 0.51943,0.3347 1.20448,0.49654 1.90443,0.44991 0.69995,-0.0466 1.35748,-0.29791 1.82793,-0.69855 0.47044,-0.40065 0.71528,-0.91784 0.68064,-1.43781 -0.0346,-0.51996 -0.34592,-1.00011 -0.86535,-1.33481 -0.51944,-0.33469 -1.20448,-0.49653 -1.90444,-0.4499 0,0 0,0 0,0 m 48.98884,-1.55931 c -1.45238,0.15675 -2.53537,1.15844 -2.41893,2.23734 0.0559,0.51811 0.38661,0.9851 0.91932,1.29823 0.53271,0.31314 1.22381,0.44677 1.92127,0.3715 0.69745,-0.0753 1.34413,-0.35328 1.79776,-0.77286 0.45364,-0.41959 0.67708,-0.94637 0.62116,-1.46448 -0.0559,-0.51811 -0.3866,-0.9851 -0.91932,-1.29823 -0.53271,-0.31314 -1.22381,-0.44677 -1.92126,-0.3715 0,0 0,0 0,0 m 48.37157,-4.38372 c -1.43196,0.28871 -2.2494,1.31342 -2.05996,2.38191 0.091,0.51311 0.45262,0.95655 1.00536,1.23278 0.55274,0.27622 1.14362,0.37611 1.83127,0.23747 0.68765,-0.13865 1.30623,-0.47454 1.71965,-0.93378 0.41342,-0.45925 0.58781,-1.00423 0.48482,-1.51506 -0.103,-0.51083 -0.47494,-0.94566 -1.03401,-1.20883 -0.55907,-0.26317 -1.25947,-0.33314 -1.94713,-0.19449 0,0 0,0 0,0 m 46.49545,-10.42334 c -1.35097,0.55565 -1.94317,1.73385 -1.55531,2.74732 0.18625,0.48669 0.62514,0.85384 1.22011,1.02069 0.59496,0.16684 1.18121,0.1331 1.82997,-0.13373 0.64875,-0.26683 1.1922,-0.71418 1.51078,-1.24364 0.31858,-0.52946 0.22785,-1.04988 0.0169,-1.5264 -0.21091,-0.47651 -0.475,-0.89133 -1.0739,-1.04343 -0.5989,-0.1521 -1.29983,-0.0876 -1.94859,0.17919 0,0 0,0 0,0 m 36.04913,-23.63931 c -0.74161,1.2583 -0.42558,2.27401 0.47394,2.88075 0.43197,0.29136 1.00205,0.33979 1.58483,0.13464 0.58279,-0.20515 0.97008,-0.41611 1.32622,-1.02036 0.35613,-0.60426 0.51936,-1.28887 0.45378,-1.90321 -0.0656,-0.61434 -0.57467,-0.78622 -1.03919,-1.02222 -0.46452,-0.236 -0.78512,-0.62868 -1.35435,-0.38848 -0.56923,0.24021 -1.08909,0.71462 -1.44523,1.31888 0,0 0,0 0,0 m 7.39544,-43.13556 c 0.0408,1.46006 0.95322,2.61906 2.03783,2.58871 0.52085,-0.0146 1.01257,-0.30708 1.367,-0.81317 0.35442,-0.50608 0.54251,-1.1843 0.52289,-1.88544 -0.0196,-0.70114 -0.24534,-1.36778 -0.62751,-1.85326 -0.38216,-0.48547 -0.88947,-0.75002 -1.41032,-0.73545 -0.52085,0.0146 -1.01257,0.30708 -1.367,0.81317 -0.35442,0.50609 -0.54251,1.1843 -0.52289,1.88544 0,0 0,0 0,0"
         style="opacity:1;fill:#004400;fill-opacity:1;fill-rule:nonzero;stroke:none;stroke-width:0;stroke-miterlimit:4;stroke-dasharray:none;stroke-dashoffset:0;stroke-opacity:1" />
      <path
         id="path19108"
         d="m 252.2538,1005.7965 c -0.33356,0.424 -0.93658,1.2909 -0.92692,1.766 0.01,0.4751 0.19851,0.8726 0.52501,1.105 0.32651,0.2324 0.76392,0.2807 1.21602,0.1342 0.4521,-0.1464 1.22774,-0.7126 1.5613,-1.1366 0.6946,-0.883 0.72593,-2.0172 0.07,-2.5331 -0.65595,-0.516 -1.75079,-0.2185 -2.44539,0.6645 0,0 0,0 0,0 m 49.32104,-21.54247 c -0.47523,0.25544 -0.85562,0.64066 -1.05748,1.0709 -0.20186,0.43025 -0.20866,0.87029 -0.0189,1.22332 0.18976,0.35302 0.56052,0.59012 1.03073,0.65913 0.47021,0.069 1.00136,-0.0357 1.47659,-0.29117 0.98961,-0.53192 1.47152,-1.55907 1.07638,-2.29421 -0.39514,-0.73514 -1.5177,-0.89988 -2.50731,-0.36797 0,0 0,0 0,0 m 50.24189,-8.13046 c -0.505,0.18998 -0.93325,0.5212 -1.19054,0.92081 -0.25729,0.3996 -0.32255,0.83484 -0.18142,1.20998 0.14113,0.37514 0.47709,0.65944 0.93397,0.79037 0.45688,0.13093 0.99725,0.0978 1.50225,-0.0922 1.05159,-0.39561 1.66584,-1.3496 1.37195,-2.13079 -0.29389,-0.78119 -1.38462,-1.09375 -2.43621,-0.69813 0,0 0,0 0,0 m 50.10148,-3.19747 c -0.51729,0.15338 -0.96813,0.45314 -1.25334,0.83332 -0.28521,0.38018 -0.38142,0.80964 -0.26748,1.19391 0.11394,0.38428 0.42871,0.69188 0.87506,0.85514 0.44635,0.16326 0.98771,0.16881 1.505,0.0154 1.0772,-0.31941 1.7581,-1.22703 1.52082,-2.02724 -0.23727,-0.8002 -1.30286,-1.18997 -2.38006,-0.87056 0,0 0,0 0,0 m 49.65012,-0.96054 c -0.52093,0.14051 -0.97907,0.429 -1.27361,0.802 -0.29455,0.373 -0.40138,0.79995 -0.297,1.18693 0.10438,0.38698 0.41143,0.70229 0.8536,0.87657 0.44217,0.17428 0.98324,0.19324 1.50417,0.0527 1.0848,-0.29262 1.78798,-1.18309 1.57062,-1.98894 -0.21737,-0.80585 -1.27298,-1.2219 -2.35778,-0.92929 0,0 0,0 0,0 m 49.36194,-0.19091 c -0.52085,0.14082 -0.97882,0.42958 -1.27315,0.80275 -0.29433,0.37317 -0.40091,0.80018 -0.2963,1.1871 0.10461,0.38692 0.41185,0.70205 0.85412,0.87607 0.44226,0.17402 0.98334,0.19267 1.5042,0.0518 1.08462,-0.29325 1.78728,-1.18414 1.56944,-1.98985 -0.21784,-0.80572 -1.27369,-1.22117 -2.35831,-0.92792 0,0 0,0 0,0 m 49.22839,-0.32564 c -0.51915,0.14696 -0.97368,0.4411 -1.26358,0.81772 -0.2899,0.37661 -0.39144,0.80486 -0.28227,1.19051 0.10917,0.38566 0.4201,0.69714 0.86439,0.86593 0.4443,0.16878 0.98556,0.18105 1.50471,0.0341 1.08108,-0.30603 1.77318,-1.20515 1.54585,-2.00824 -0.22734,-0.80309 -1.28802,-1.20604 -2.3691,-0.90001 0,0 0,0 0,0 m 48.85918,-1.51174 c -0.5127,0.1681 -0.95479,0.48062 -1.22902,0.8688 -0.27423,0.38818 -0.35813,0.82022 -0.23325,1.20108 0.12488,0.38086 0.44831,0.67935 0.89915,0.82978 0.45083,0.15044 0.99214,0.14052 1.50484,-0.0276 1.06763,-0.35007 1.72231,-1.27679 1.46226,-2.06989 -0.26005,-0.7931 -1.33635,-1.15225 -2.40398,-0.80218 0,0 0,0 0,0 m 48.36259,-4.30774 c -0.50009,0.20254 -0.91992,0.54436 -1.16715,0.95026 -0.24723,0.4059 -0.30159,0.84264 -0.15113,1.21413 0.15045,0.3715 0.49341,0.64732 0.95341,0.76679 0.46001,0.11947 0.79717,0.10614 1.29236,-0.10808 1.03119,-0.44609 1.59849,-1.4287 1.26711,-2.19473 -0.33137,-0.76602 -1.15322,-1.05013 -2.1946,-0.62837 0,0 0,0 0,0 m 45.67739,-10.03287 c -0.44544,0.30444 -0.52124,0.62533 -0.68735,1.07062 -0.1661,0.44529 -0.13699,0.88444 0.0809,1.22082 0.21791,0.33639 0.60679,0.54246 1.08108,0.57289 0.47429,0.0304 0.78537,-0.0646 1.23081,-0.36901 0.92759,-0.63398 1.29776,-1.70651 0.82681,-2.39557 -0.47095,-0.68907 -1.60469,-0.73373 -2.53228,-0.0997 0,0 0,0 0,0 m 35.23655,-22.46486 c -0.20215,0.50017 -0.24841,1.03951 -0.12862,1.49937 0.1198,0.45985 0.39584,0.80256 0.76739,0.95272 0.37156,0.15017 0.8082,0.0955 1.21387,-0.15201 0.40567,-0.24749 0.45725,-0.22236 0.6286,-0.7339 0.35683,-1.06521 0.005,-2.14362 -0.78668,-2.40869 -0.7913,-0.26508 -1.27362,-0.19905 -1.69456,0.84251 0,0 0,0 0,0 m 7.03397,-40.66531 c 0.12682,0.52436 0.4032,0.98983 0.76832,1.29399 0.36512,0.30416 0.78907,0.42211 1.1786,0.3279 0.38953,-0.0942 0.71272,-0.39288 0.89848,-0.83028 0.18576,-0.43741 0.21887,-0.97772 0.092,-1.50209 -0.2641,-1.09193 -1.13577,-1.81808 -1.94692,-1.62189 -0.81116,0.19619 -1.25463,1.24043 -0.99052,2.33237 0,0 0,0 0,0"
         style="opacity:1;fill:#004400;fill-opacity:1;fill-rule:nonzero;stroke:none;stroke-width:0;stroke-miterlimit:4;stroke-dasharray:none;stroke-dashoffset:0;stroke-opacity:1" />
      <path
         id="path19110"
         d="m 248.93988,1005.1412 c -0.41473,0.992 -0.15357,2.0459 0.58334,2.354 0.35387,0.1479 0.77236,0.1006 1.16342,-0.1316 0.39105,-0.2323 1.14774,-0.9872 1.3695,-1.4535 0.22177,-0.4663 0.29685,-0.9789 0.20873,-1.4251 -0.0881,-0.4462 -0.33222,-0.7895 -0.6786,-0.9542 -0.7213,-0.343 -2.23166,0.6184 -2.64639,1.6104 0,0 0,0 0,0 m 50.51025,-23.04465 c -0.81134,0.70559 -1.40116,1.87676 -0.85977,2.46408 0.25998,0.28205 0.98766,0.33722 1.44114,0.30228 0.45349,-0.0349 0.92714,-0.24492 1.31676,-0.58375 0.38962,-0.33884 0.6633,-0.77878 0.76082,-1.22303 0.0975,-0.44426 0.0109,-0.85644 -0.24082,-1.14587 -0.52415,-0.60271 -1.60678,-0.51931 -2.41813,0.18629 0,0 0,0 0,0 m 50.54758,-8.39395 c -0.898,0.59146 -1.26979,1.61172 -0.83042,2.27881 0.21099,0.32034 0.58465,0.51474 1.03878,0.54042 0.45412,0.0257 0.95151,-0.11946 1.38275,-0.40349 0.43123,-0.28403 0.76099,-0.68369 0.91672,-1.11105 0.15574,-0.42736 0.12469,-0.84741 -0.0863,-1.16776 -0.43937,-0.66708 -1.52353,-0.72839 -2.42153,-0.13693 0,0 0,0 0,0 m 50.27926,-3.32135 c -0.938,0.52573 -1.63499,1.54992 -1.2308,2.23888 0.19411,0.33085 0.78589,0.52994 1.23702,0.58803 0.45113,0.0581 0.95763,-0.0511 1.40807,-0.30358 0.45044,-0.25246 0.80794,-0.62751 0.99383,-1.04264 0.1859,-0.41513 0.18497,-0.83633 -0.003,-1.17095 -0.39055,-0.6968 -1.46755,-0.83548 -2.40555,-0.30974 0,0 0,0 0,0 m 49.71369,-1.00046 c -0.95075,0.50233 -1.41898,1.48209 -1.04582,2.18836 0.17919,0.33916 0.53242,0.56861 0.98197,0.63786 0.44955,0.0693 0.95861,-0.0274 1.41517,-0.26859 0.45657,-0.24122 0.82325,-0.6073 1.01938,-1.0177 0.19613,-0.4104 0.20564,-0.83149 0.0265,-1.17066 -0.37316,-0.70627 -1.4464,-0.8716 -2.39715,-0.36927 0,0 0,0 0,0 m 49.36043,-0.18998 c -0.95046,0.50288 -1.41811,1.48291 -1.04455,2.18896 0.1794,0.33906 0.53276,0.5683 0.98235,0.63729 0.44959,0.069 0.95859,-0.0279 1.41501,-0.26941 0.45643,-0.24149 0.8229,-0.60779 1.01879,-1.0183 0.19589,-0.41051 0.20515,-0.83161 0.0258,-1.17067 -0.37357,-0.70605 -1.4469,-0.87076 -2.39736,-0.36787 0,0 0,0 0,0 m 49.198,-0.30682 c -0.94445,0.51406 -1.40051,1.49955 -1.01863,2.20114 0.18338,0.33692 0.53942,0.56197 0.9898,0.62565 0.45037,0.0637 0.95819,-0.0392 1.41173,-0.2861 0.45354,-0.24686 0.81566,-0.61745 1.00669,-1.03025 0.19103,-0.41279 0.19533,-0.83398 0.0119,-1.17089 -0.38187,-0.7016 -1.45708,-0.85362 -2.40153,-0.33955 0,0 0,0 0,0 m 48.75543,-1.44364 c -0.92259,0.55233 -1.18569,1.53555 -0.78354,2.22573 0.19311,0.33143 0.41795,0.5547 0.87056,0.59987 0.4526,0.0452 0.95578,-0.0785 1.39882,-0.3437 0.44305,-0.26524 0.78968,-0.65036 0.96363,-1.07063 0.17396,-0.42028 0.16099,-0.84128 -0.036,-1.1704 -0.4103,-0.68536 -1.49083,-0.7932 -2.41343,-0.24087 0,0 0,0 0,0 m 48.19699,-4.18557 c -0.88294,0.61371 -1.22912,1.64293 -0.77323,2.29883 0.21893,0.31497 0.59733,0.49997 1.05195,0.51429 0.45463,0.0143 0.94823,-0.14319 1.37223,-0.43791 0.42401,-0.29471 0.45451,-0.66531 0.58936,-1.0997 0.13485,-0.4344 0.0835,-0.85245 -0.14277,-1.1622 -0.47117,-0.64501 -1.2146,-0.72702 -2.09754,-0.11331 0,0 0,0 0,0 m 45.54196,-9.7182 c -0.75112,0.76944 -0.89667,1.84552 -0.32509,2.40349 0.27448,0.26795 0.68101,0.37814 1.13016,0.30634 0.44914,-0.0718 0.63519,-0.22243 0.98665,-0.60072 0.35146,-0.37829 0.5769,-0.84481 0.62671,-1.29692 0.0498,-0.4521 -0.0801,-0.85277 -0.36108,-1.11386 -0.58519,-0.54369 -1.30623,-0.46776 -2.05735,0.30167 0,0 0,0 0,0 m 34.23811,-20.70565 c -0.17286,1.06115 0.77107,1.41043 1.55045,1.58494 0.37428,0.0838 0.33844,0.48732 0.66481,0.17059 0.32637,-0.31673 0.55636,-0.78094 0.63937,-1.29053 0.083,-0.50958 -0.42401,-0.40604 -0.65716,-0.79652 -0.23315,-0.39047 -0.57851,-0.63149 -0.9601,-0.67002 -0.79463,-0.0802 -1.06451,-0.0596 -1.23737,1.00154 0,0 0,0 0,0 m 7.42194,-38.85511 c 0.47723,0.96344 1.44429,1.45707 2.15998,1.10256 0.34369,-0.17024 0.58227,-0.5173 0.66325,-0.96483 0.081,-0.44753 -0.002,-0.95887 -0.23145,-1.42153 -0.22918,-0.46266 -0.58549,-0.83874 -0.99057,-1.04551 -0.40507,-0.20677 -0.82573,-0.2273 -1.16942,-0.0571 -0.7157,0.35451 -0.90901,1.42292 -0.43179,2.38636 0,0 0,0 0,0"
         style="opacity:1;fill:#004400;fill-opacity:1;fill-rule:nonzero;stroke:none;stroke-width:0;stroke-miterlimit:4;stroke-dasharray:none;stroke-dashoffset:0;stroke-opacity:1" />
      <path
         id="path19112"
         d="m 245.36983,1005.2565 c -0.16584,0.4653 -0.18757,0.9605 -0.0604,1.3767 0.12715,0.4161 0.39277,0.7191 0.73842,0.8423 0.71979,0.2565 2.11564,-0.767 2.50975,-1.7171 0.39411,-0.9502 0.1414,-1.9578 -0.56444,-2.2506 -0.33896,-0.1406 -0.73921,-0.094 -1.11272,0.1291 -0.3735,0.2232 -1.34476,1.1543 -1.51059,1.6196 0,0 0,0 0,0 m 51.18553,-24.70684 c -0.3623,0.33585 -0.61065,0.76487 -0.69041,1.19266 -0.0798,0.42779 0.0156,0.81932 0.26508,1.08846 0.51955,0.56044 1.92958,0.32694 2.70391,-0.35031 0.77432,-0.67724 0.9942,-1.69256 0.4911,-2.26777 -0.24159,-0.27623 -0.62101,-0.41195 -1.05477,-0.3773 -0.43377,0.0346 -1.35262,0.3784 -1.71491,0.71426 0,0 0,0 0,0 m 51.25178,-8.85536 c -0.4118,0.2729 -0.72621,0.65615 -0.87405,1.06543 -0.14784,0.40928 -0.11701,0.81108 0.0857,1.11699 0.42215,0.63703 1.45955,0.69276 2.3171,0.12447 0.85754,-0.56828 1.21049,-1.54539 0.78833,-2.18242 -0.20272,-0.30591 -0.56074,-0.49089 -0.99528,-0.51423 -0.43454,-0.0233 -0.91001,0.11686 -1.32182,0.38976 0,0 0,0 0,0 m 50.10296,-3.42599 c -0.42539,0.25119 -0.75924,0.61762 -0.9281,1.01868 -0.16886,0.40107 -0.15889,0.80392 0.0277,1.11993 0.38857,0.65805 1.42167,0.76748 2.30752,0.24441 0.88584,-0.52306 1.5962,-1.47446 1.22068,-2.14005 -0.18034,-0.31963 -0.85482,-0.51784 -1.28756,-0.56368 -0.43274,-0.0458 -0.91484,0.0695 -1.34024,0.32071 0,0 0,0 0,0 m 50.09335,-1.09729 c -0.43615,0.23202 -0.78598,0.58324 -0.97251,0.97641 -0.18654,0.39317 -0.1945,0.79607 -0.0222,1.12007 0.35892,0.6747 1.38615,0.82998 2.2944,0.34682 0.90825,-0.48315 1.35358,-1.42177 0.99466,-2.09647 -0.17235,-0.324 -0.51091,-0.54256 -0.94119,-0.60761 -0.43029,-0.065 -0.91705,0.0288 -1.35321,0.26078 0,0 0,0 0,0 m 49.35915,-0.18882 c -0.43603,0.23227 -0.78564,0.5837 -0.97195,0.97698 -0.1863,0.39327 -0.19403,0.79618 -0.0215,1.12008 0.35931,0.67448 1.38663,0.82916 2.2946,0.34548 0.90796,-0.48368 1.35274,-1.42256 0.99343,-2.09705 -0.17254,-0.3239 -0.51123,-0.54227 -0.94155,-0.60706 -0.43032,-0.0648 -0.91702,0.0293 -1.35304,0.26157 0,0 0,0 0,0 m 49.17207,-0.28319 c -0.43325,0.23741 -0.7787,0.59294 -0.96035,0.98838 -0.18165,0.39545 -0.18462,0.79841 -0.008,1.12026 0.36724,0.67019 1.39632,0.81274 2.29851,0.31837 0.90219,-0.49436 1.33586,-1.43843 0.96861,-2.10863 -0.17635,-0.32184 -0.51759,-0.53619 -0.94865,-0.5959 -0.43105,-0.0597 -0.91661,0.0401 -1.34986,0.27752 0,0 0,0 0,0 m 48.86321,-1.38819 c -0.42615,0.24991 -0.7611,0.61535 -0.93115,1.01592 -0.17006,0.40057 -0.1613,0.80345 0.0244,1.12002 0.38661,0.65922 1.4194,0.77174 2.30682,0.25131 0.88741,-0.52043 1.10839,-1.4798 0.714,-2.13439 -0.1894,-0.31434 -0.3402,-0.52245 -0.77281,-0.56958 -0.43261,-0.0471 -0.91506,0.0668 -1.34121,0.31672 0,0 0,0 0,0 m 47.86359,-4.00898 c -0.40486,0.2831 -0.70959,0.67408 -0.84716,1.08693 -0.13757,0.41285 -0.0967,0.81374 0.1136,1.1145 0.43793,0.62628 1.4764,0.65607 2.31947,0.0665 0.84307,-0.58953 1.1715,-1.57514 0.73356,-2.20142 -0.2103,-0.30076 -0.57282,-0.47673 -1.00781,-0.48921 -0.43499,-0.0125 -0.90681,0.13956 -1.31166,0.42266 0,0 0,0 0,0 m 45.2134,-9.25992 c -0.34409,0.35448 -0.21667,0.68787 -0.28371,1.11784 -0.067,0.42997 0.0399,0.8185 0.29726,1.08011 0.53595,0.54478 1.25566,0.46779 1.9722,-0.27037 0.71653,-0.73816 0.85288,-1.76806 0.30453,-2.30035 -0.26333,-0.25561 -0.65256,-0.35994 -1.08207,-0.29003 -0.42951,0.0699 -0.86412,0.30833 -1.20821,0.6628 0,0 0,0 0,0 m 34.40084,-19.76423 c -0.10656,0.48233 -0.0664,0.97635 0.11157,1.37339 0.178,0.39704 0.4793,0.66457 0.8376,0.74373 0.74613,0.16485 1.06578,0.14089 1.22829,-0.8748 0.16252,-1.0157 -0.3174,-1.93694 -1.07191,-2.05767 -0.36233,-0.058 -0.74083,0.0802 -1.05222,0.38409 -0.31139,0.3039 0.0532,-0.0511 -0.0533,0.43126 0,0 0,0 0,0 m 7.56711,-36.37339 c 0.22051,0.44202 0.56242,0.80087 0.95052,0.9976 0.3881,0.19673 0.7906,0.21522 1.11896,0.0514 0.68377,-0.3411 0.86584,-1.36379 0.40667,-2.28425 -0.45917,-0.92046 -1.38571,-1.39012 -2.06948,-1.04902 -0.32835,0.1638 -0.55567,0.49649 -0.63193,0.92487 -0.0763,0.42838 0.005,0.91736 0.22526,1.35938 0,0 0,0 0,0"
         style="opacity:1;fill:#004400;fill-opacity:1;fill-rule:nonzero;stroke:none;stroke-width:0;stroke-miterlimit:4;stroke-dasharray:none;stroke-dashoffset:0;stroke-opacity:1" />
      <path
         id="path19114"
         d="m 242.62914,1006.5557 c -0.16516,0.9139 -0.33058,2.389 0.35389,2.4751 0.32869,0.041 1.24643,-0.6572 1.53303,-0.9258 0.28661,-0.2687 0.49217,-0.6661 0.57148,-1.105 0.0793,-0.4388 0.0259,-0.8831 -0.14857,-1.2351 -0.17444,-0.352 -0.45558,-0.5828 -0.78159,-0.6417 -0.67887,-0.1227 -1.36309,0.5187 -1.52824,1.4325 0,0 0,0 0,0 m 50.89511,-26.12195 c -0.5692,0.7339 -0.90835,1.78281 -0.35438,2.19406 0.26602,0.19749 0.93236,0.15817 1.31077,0.0525 0.3784,-0.10563 0.74454,-0.36296 1.01788,-0.71539 0.27334,-0.35243 0.43148,-0.77108 0.43964,-1.16387 0.008,-0.39278 -0.13434,-0.72752 -0.39615,-0.93057 -0.54518,-0.42283 -1.44856,-0.17067 -2.01776,0.56323 0,0 0,0 0,0 m 50.96391,-9.28692 c -0.6675,0.64578 -0.81972,1.57126 -0.34,2.06711 0.23037,0.23812 0.57865,0.3433 0.9682,0.29239 0.38956,-0.0509 1.09244,-0.28246 1.41914,-0.58609 0.3267,-0.30363 0.55041,-0.69124 0.62193,-1.07754 0.0715,-0.38631 -0.015,-0.73967 -0.24058,-0.98236 -0.46969,-0.50537 -1.76119,-0.35929 -2.42869,0.28649 0,0 0,0 0,0 m 50.48473,-3.63597 c -0.71216,0.59616 -0.93048,1.50831 -0.48762,2.03735 0.21267,0.25405 0.55249,0.38397 0.94469,0.36118 0.39221,-0.0228 0.80468,-0.19643 1.14667,-0.48272 0.34199,-0.28628 0.5855,-0.66176 0.67694,-1.04384 0.0914,-0.38208 0.0233,-0.73945 -0.18932,-0.9935 -0.44286,-0.52904 -1.3792,-0.47462 -2.09136,0.12153 0,0 0,0 0,0 m 49.93948,-1.21332 c -0.73181,0.5719 -0.98065,1.47622 -0.55581,2.01984 0.20402,0.26106 0.53928,0.40233 0.93204,0.39273 0.39275,-0.01 0.97675,-0.17037 1.33115,-0.44117 0.35439,-0.27079 0.61436,-0.63508 0.72272,-1.01271 0.10835,-0.37764 0.0562,-0.7377 -0.14495,-1.00096 -0.4189,-0.54822 -1.55335,-0.52963 -2.28515,0.0423 0,0 0,0 0,0 m 49.54905,-0.20101 c -0.73766,0.56433 -0.99582,1.46603 -0.5766,2.01401 0.20131,0.26314 0.5351,0.40786 0.92794,0.40231 0.39283,-0.006 0.81253,-0.16092 1.16677,-0.43192 0.35424,-0.271 0.614,-0.63544 0.72213,-1.01314 0.10813,-0.3777 0.0558,-0.73772 -0.14553,-1.00087 -0.41922,-0.54798 -1.35705,-0.53472 -2.09471,0.0296 0,0 0,0 0,0 m 49.16182,-0.24888 c -0.73095,0.57299 -0.97844,1.47768 -0.55278,2.02067 0.2044,0.26075 0.53988,0.40152 0.93262,0.39133 0.39274,-0.0102 0.81058,-0.1705 1.16159,-0.44566 0.35101,-0.27517 0.60645,-0.64264 0.71012,-1.02159 0.10366,-0.37895 0.0471,-0.73833 -0.15734,-0.99908 -0.42565,-0.54299 -1.36326,-0.51867 -2.09421,0.0543 0,0 0,0 0,0 m 48.83965,-1.30306 c -0.71395,0.59404 -0.93499,1.50555 -0.4937,2.03591 0.21191,0.2547 0.55134,0.38563 0.94362,0.36401 0.39228,-0.0216 0.80527,-0.19403 1.14812,-0.4793 0.34285,-0.28527 0.58748,-0.66003 0.68007,-1.04183 0.0926,-0.38181 0.0256,-0.73939 -0.18636,-0.99408 -0.44129,-0.53037 -1.37779,-0.47875 -2.09175,0.11529 0,0 0,0 0,0 m 47.81188,-3.77247 c -0.6643,0.64908 -0.81194,1.5753 -0.32977,2.06877 0.23154,0.23698 0.58033,0.34043 0.96963,0.28759 0.3893,-0.0528 0.78722,-0.25762 1.10623,-0.56932 0.319,-0.3117 0.53296,-0.70476 0.5948,-1.09273 0.0618,-0.38797 -0.0335,-0.73906 -0.26504,-0.97604 -0.48217,-0.49348 -1.41156,-0.36734 -2.07585,0.28173 0,0 0,0 0,0 m 45.5379,-8.8509 c -0.54717,0.75046 -0.5388,1.68834 0.0187,2.09481 0.26771,0.19519 0.62884,0.23923 1.00395,0.12242 0.3751,-0.11681 0.73344,-0.38489 0.9962,-0.74527 0.26276,-0.36039 0.0528,-0.67498 0.0403,-1.06765 -0.0125,-0.39267 -0.17249,-0.71943 -0.44463,-0.9084 -0.5667,-0.39351 -1.06731,-0.24636 -1.61448,0.50409 0,0 0,0 0,0 m 35.11948,-18.78828 c -0.10223,0.92301 0.37074,1.73282 1.05641,1.80876 0.32927,0.0365 0.66455,-0.10463 0.93209,-0.39227 0.26754,-0.28763 -0.1318,-0.0614 -0.10779,-0.50672 0.024,-0.44531 -0.0844,-0.87946 -0.3013,-1.20695 -0.21692,-0.32749 -0.52463,-0.5215 -0.85543,-0.53933 -0.68885,-0.0371 -0.62175,-0.0865 -0.72398,0.83651 0,0 0,0 0,0 m 8.54786,-34.35254 c 0.54434,0.75239 1.4387,1.03452 1.99762,0.63016 0.2684,-0.19418 0.42197,-0.52394 0.42693,-0.91673 0.005,-0.3928 -0.13912,-0.81645 -0.40052,-1.17776 -0.2614,-0.36131 -0.61871,-0.63068 -0.99334,-0.74886 -0.37462,-0.11818 -0.73587,-0.0755 -1.00428,0.1187 -0.55892,0.40436 -0.57074,1.3421 -0.0264,2.09449 0,0 0,0 0,0"
         style="opacity:1;fill:#004400;fill-opacity:1;fill-rule:nonzero;stroke:none;stroke-width:0;stroke-miterlimit:4;stroke-dasharray:none;stroke-dashoffset:0;stroke-opacity:1" />
    </g>
  </g>
</svg>
